<svg xmlns="http://www.w3.org/2000/svg" viewBox="0 0 419.06 279.36"><defs><style>.cls-1{fill:#001922;}</style></defs><g id="Camada_2" data-name="Camada 2"><g id="Layer_1" data-name="Layer 1"><path class="cls-1" d="M14.22,109.3c-2.86.78-2.86,3.63-4.86,6.72-2.93,4.53-1.44,7.47,1.06,7.55s3.84-3.06,6.39-3.63h0c2.53-.67,5.16,1.48,7.34.26s2.14-4.52-2.55-7.18C18.44,111.2,17.12,108.67,14.22,109.3Z"/><path class="cls-1" d="M6.75,108.87c2.13,1.79,2.92,4.36,1.76,5.74s-3.82,1-5.95-.77S-.36,109.47.8,108.1,4.63,107.07,6.75,108.87Z"/><path class="cls-1" d="M20.64,105.46c-1.05,2.58-.56,5.22,1.1,5.9s3.86-.86,4.92-3.44.56-5.22-1.1-5.9S21.69,102.88,20.64,105.46Z"/><path class="cls-1" d="M11.6,101.84c1.19,2.69.75,5.49-1,6.25s-4.1-.78-5.29-3.47-.75-5.49,1-6.25S10.41,99.16,11.6,101.84Z"/><path class="cls-1" d="M13.09,101.48c.19,2.93,1.88,5.21,3.77,5.08S20.12,104,19.93,101,18.06,95.83,16.17,96,12.9,98.55,13.09,101.48Z"/><path class="cls-1" d="M125,52.29c-2.84-.75-4.26,1.7-7.5,3.35-4.76,2.42-4.94,5.68-2.84,7s4.8-.7,7.27.07h0c2.5.68,3.69,3.83,6.16,3.87s4.07-2.81,1.38-7.41C127.7,56,127.82,53.19,125,52.29Z"/><path class="cls-1" d="M118.85,48.22c.93,2.59.33,5.18-1.35,5.78s-3.78-1-4.71-3.61-.33-5.19,1.35-5.78S117.92,45.62,118.85,48.22Z"/><path class="cls-1" d="M132.43,52.2c-2.18,1.68-3.07,4.19-2,5.59s3.74,1.19,5.92-.5,3.07-4.19,2-5.59S134.61,50.51,132.43,52.2Z"/><path class="cls-1" d="M126.49,44.61c-.32,2.89-2.09,5.07-3.95,4.87s-3.12-2.71-2.8-5.6,2.08-5.07,3.94-4.87S126.8,41.72,126.49,44.61Z"/><path class="cls-1" d="M127.94,45c-1.29,2.6-1,5.39.7,6.22s4.09-.6,5.38-3.2,1-5.39-.7-6.23S129.24,42.44,127.94,45Z"/><path class="cls-1" d="M360.79,48.8c-3.44-2.83-6.94-.35-12.47-.11-8.1.35-10.4,4.74-8.32,7.86s7.08,2.05,10,4.68l0,0,0,0c3,2.51,2.68,7.61,6.07,9.22s7.4-1.3,6.58-9.37C362.14,55.62,364.08,51.8,360.79,48.8Z"/><path class="cls-1" d="M354.83,39.27c-.36,4.17-2.82,7.37-5.51,7.14s-4.58-3.79-4.23-8,2.82-7.37,5.5-7.14S355.18,35.1,354.83,39.27Z"/><path class="cls-1" d="M371.08,53.33c-4.08,1-6.89,3.85-6.28,6.48s4.42,4,8.49,3,6.89-3.85,6.28-6.47S375.15,52.38,371.08,53.33Z"/><path class="cls-1" d="M367.65,39.1c-2.26,3.8-6.07,5.69-8.52,4.24s-2.59-5.71-.34-9.51,6.07-5.68,8.52-4.23S369.91,35.31,367.65,39.1Z"/><path class="cls-1" d="M369.39,40.61c-3.42,2.78-4.75,6.83-3,9s6,1.75,9.46-1,4.75-6.83,3-9S372.82,37.83,369.39,40.61Z"/><path class="cls-1" d="M299.66,106.8c-3.92-1.28-6.11,2-10.79,4.09-6.87,3-7.38,7.57-4.54,9.57s6.79-.6,10.19.68h.06c3.44,1.15,4.86,5.66,8.32,5.92s5.94-3.61,2.53-10.29C303.11,112.24,303.5,108.29,299.66,106.8Z"/><path class="cls-1" d="M291.32,100.59c1.1,3.72,0,7.3-2.35,8s-5.23-1.74-6.32-5.45,0-7.3,2.35-8S290.23,96.88,291.32,100.59Z"/><path class="cls-1" d="M310.05,107.26c-3.2,2.19-4.65,5.63-3.24,7.69s5.14,2,8.34-.22,4.64-5.63,3.24-7.69S313.24,105.08,310.05,107.26Z"/><path class="cls-1" d="M302.32,96.15c-.67,4-3.32,6.94-5.92,6.5s-4.16-4.05-3.48-8.08,3.33-6.94,5.92-6.5S303,92.12,302.32,96.15Z"/><path class="cls-1" d="M304.33,96.86c-2,3.55-1.81,7.48.48,8.79s5.78-.51,7.8-4.06,1.81-7.48-.47-8.79S306.36,93.32,304.33,96.86Z"/><path class="cls-1" d="M349.76,129.19c-3.91,1.1-3.9,5-6.61,9.26-4,6.24-1.91,10.25,1.52,10.33s5.23-4.21,8.72-5h.06c3.46-.94,7.09,2,10.06.29s2.9-6.21-3.55-9.82C355.56,131.76,353.72,128.31,349.76,129.19Z"/><path class="cls-1" d="M339.52,128.67c2.93,2.44,4,6,2.45,7.85s-5.23,1.44-8.16-1-4-6-2.45-7.85S336.59,126.22,339.52,128.67Z"/><path class="cls-1" d="M358.52,123.88c-1.42,3.55-.72,7.16,1.56,8.08s5.29-1.21,6.72-4.75.72-7.16-1.56-8.08S360,120.34,358.52,123.88Z"/><path class="cls-1" d="M346.11,119c1.65,3.67,1.07,7.51-1.3,8.58s-5.62-1-7.28-4.72-1.07-7.52,1.3-8.58S344.45,115.33,346.11,119Z"/><ellipse class="cls-1" cx="352.83" cy="118.15" rx="4.7" ry="7.29" transform="translate(-7.43 25.09) rotate(-4.03)"/><path class="cls-1" d="M230.16,161.43c-2.77-2.11-5.44-.07-9.74.28-6.32.51-8,4-6.27,6.38s5.59,1.4,7.94,3.36l0,0,0,0c2.43,1.87,2.31,5.86,5,7s5.74-1.23,4.86-7.51C231.41,166.72,232.82,163.67,230.16,161.43Z"/><path class="cls-1" d="M225.22,154.16c-.15,3.27-2,5.84-4.09,5.74s-3.69-2.82-3.54-6.09,2-5.84,4.09-5.74S225.37,150.9,225.22,154.16Z"/><path class="cls-1" d="M238.32,164.66c-3.15.86-5.26,3.21-4.7,5.25s3.56,3,6.72,2.12,5.26-3.21,4.7-5.25S241.48,163.8,238.32,164.66Z"/><ellipse class="cls-1" cx="231.69" cy="151.73" rx="6.25" ry="4.03" transform="translate(-12.42 282.54) rotate(-61.41)"/><path class="cls-1" d="M236.64,154.78c-2.6,2.27-3.52,5.47-2,7.15s4.76,1.18,7.35-1.09,3.51-5.47,2.05-7.14S239.23,152.51,236.64,154.78Z"/><path class="cls-1" d="M74.79,25.12C70.56,23.5,68,27,62.71,29,55,32,54.17,36.93,57.19,39.28s7.49-.29,11.15,1.31l0,0h0c3.72,1.46,5,6.49,8.81,7S84,44,80.58,36.42C78.27,31.29,78.93,27,74.79,25.12Z"/><path class="cls-1" d="M66,17.83c1,4.15-.36,8-3,8.67s-5.64-2.2-6.64-6.34.36-8,3-8.66S65,13.69,66,17.83Z"/><path class="cls-1" d="M86.18,26.2c-3.64,2.23-5.42,5.93-4,8.27s5.54,2.44,9.18.22,5.42-5.93,4-8.27S89.81,24,86.18,26.2Z"/><path class="cls-1" d="M78.31,13.56c-1,4.39-4,7.44-6.87,6.82s-4.34-4.68-3.38-9.07,4-7.44,6.87-6.82S79.27,9.17,78.31,13.56Z"/><path class="cls-1" d="M80.47,14.46c-2.42,3.79-2.4,8.12,0,9.68s6.38-.24,8.8-4,2.41-8.12,0-9.68S82.9,10.67,80.47,14.46Z"/><path class="cls-1" d="M406,170.53c-2.5.21-3,2.58-5.09,4.84-3.15,3.31-2.37,6-.31,6.44s3.68-1.94,5.88-2h.05c2.2-.16,4.06,2,6.06,1.37s2.49-3.42-1-6.37C409.26,172.78,408.55,170.46,406,170.53Z"/><path class="cls-1" d="M399.9,169c1.49,1.83,1.74,4.09.56,5s-3.34.26-4.83-1.57-1.74-4.09-.56-5S398.41,167.18,399.9,169Z"/><path class="cls-1" d="M412,168.35c-1.28,2-1.28,4.25,0,5.08s3.35-.11,4.63-2.09,1.29-4.25,0-5.08S413.26,166.37,412,168.35Z"/><path class="cls-1" d="M405,163.92c.57,2.42-.23,4.68-1.79,5.05s-3.29-1.3-3.86-3.72.24-4.68,1.8-5.05S404.46,161.5,405,163.92Z"/><path class="cls-1" d="M406.33,163.85c-.3,2.47.74,4.63,2.33,4.82s3.13-1.64,3.43-4.11-.74-4.63-2.33-4.82S406.63,161.39,406.33,163.85Z"/><path class="cls-1" d="M21.18,19.28c-2.87-.91-4.45,1.52-7.85,3-5,2.23-5.35,5.56-3.27,7s4.95-.48,7.44.44h.05c2.51.82,3.57,4.1,6.1,4.27S28,31.4,25.44,26.54C23.72,23.23,24,20.35,21.18,19.28Z"/><path class="cls-1" d="M15.06,14.8c.82,2.7.07,5.32-1.68,5.85s-3.82-1.24-4.64-3.94-.07-5.33,1.68-5.85S14.24,12.09,15.06,14.8Z"/><path class="cls-1" d="M28.76,19.56c-2.32,1.62-3.36,4.14-2.32,5.63s3.76,1.4,6.08-.21,3.36-4.13,2.32-5.63S31.08,18,28.76,19.56Z"/><path class="cls-1" d="M23.06,11.49c-.47,2.95-2.39,5.09-4.29,4.78s-3-2.93-2.58-5.87,2.39-5.09,4.29-4.78S23.53,8.55,23.06,11.49Z"/><path class="cls-1" d="M24.53,12c-1.46,2.6-1.28,5.46.4,6.4s4.21-.4,5.67-3S31.88,9.94,30.21,9,26,9.41,24.53,12Z"/><path class="cls-1" d="M262.05,60.86c-3.13-.84-4.7,1.85-8.29,3.66-5.25,2.66-5.46,6.26-3.15,7.7s5.3-.76,8,.1h.05c2.75.76,4.05,4.23,6.78,4.28s4.5-3.07,1.54-8.17C265,65,265.12,61.86,262.05,60.86Z"/><path class="cls-1" d="M255.24,56.34c1,2.87.35,5.72-1.5,6.38s-4.17-1.14-5.19-4-.34-5.72,1.51-6.38S254.23,53.48,255.24,56.34Z"/><path class="cls-1" d="M270.21,60.77c-2.41,1.85-3.4,4.62-2.21,6.17s4.12,1.32,6.53-.53,3.4-4.61,2.21-6.17S272.63,58.92,270.21,60.77Z"/><path class="cls-1" d="M263.68,52.39c-.36,3.19-2.31,5.58-4.37,5.35s-3.43-3-3.07-6.18,2.31-5.59,4.37-5.36S264,49.2,263.68,52.39Z"/><ellipse class="cls-1" cx="268.64" cy="54.54" rx="5.81" ry="3.74" transform="translate(99.63 270.36) rotate(-63.41)"/><path class="cls-1" d="M14.84,212.54c-2.09.75-1.94,2.88-3.25,5.29-1.94,3.55-.66,5.66,1.2,5.57s2.7-2.49,4.57-3.05h0c1.85-.64,3.94.82,5.5-.21s1.34-3.49-2.31-5.22C18.09,213.73,17,211.91,14.84,212.54Z"/><path class="cls-1" d="M9.24,212.64c1.69,1.22,2.42,3.09,1.63,4.18s-2.8,1-4.48-.24-2.42-3.1-1.63-4.19S7.56,211.41,9.24,212.64Z"/><path class="cls-1" d="M19.42,209.32c-.65,2-.13,3.93,1.15,4.35s2.83-.86,3.48-2.84.13-3.93-1.15-4.34S20.06,207.34,19.42,209.32Z"/><path class="cls-1" d="M12.47,207.13c1,1.93.87,4.05-.38,4.72S9,211.48,8,209.55s-.87-4.06.38-4.73S11.44,205.19,12.47,207.13Z"/><path class="cls-1" d="M13.56,206.77c.31,2.18,1.69,3.78,3.09,3.59s2.3-2.12,2-4.3-1.69-3.78-3.09-3.59S13.26,204.59,13.56,206.77Z"/><path class="cls-1" d="M307.49,261.27c-1.74,1.54-.75,3.55-1.08,6.41-.48,4.19,1.58,5.73,3.36,4.92s1.63-3.47,3.22-4.76h0c1.54-1.35,4.13-.75,5.24-2.36s-.06-3.92-4.28-4.16C311.11,261.14,309.3,259.83,307.49,261.27Z"/><path class="cls-1" d="M302.1,263.56c2.12.52,3.56,2.05,3.22,3.42s-2.32,2-4.44,1.52-3.56-2.05-3.22-3.42S300,263,302.1,263.56Z"/><path class="cls-1" d="M310.66,256.35c.16,2.18,1.42,3.86,2.82,3.76s2.41-1.94,2.26-4.11-1.42-3.86-2.82-3.76S310.51,254.18,310.66,256.35Z"/><path class="cls-1" d="M303.07,257c1.76,1.47,2.42,3.59,1.48,4.73s-3.15.86-4.92-.61-2.43-3.59-1.48-4.73S301.3,255.48,303.07,257Z"/><path class="cls-1" d="M304,256.18c1.15,2,3.12,3,4.4,2.26s1.39-2.95.25-4.95-3.13-3-4.41-2.26S302.84,254.19,304,256.18Z"/><path class="cls-1" d="M265.46,263.11c-3-1.2-4.94,1.33-8.75,2.74-5.58,2.07-6.2,5.66-4,7.37s5.41-.16,8,1h.05c2.68,1.07,3.59,4.71,6.32,5.07s4.88-2.58,2.49-8C267.93,267.58,268.43,264.47,265.46,263.11Z"/><path class="cls-1" d="M259.13,257.8c.7,3-.3,5.79-2.23,6.23s-4.06-1.61-4.76-4.61.31-5.79,2.24-6.23S258.44,254.8,259.13,257.8Z"/><path class="cls-1" d="M273.67,264c-2.64,1.58-3.95,4.24-2.93,5.94s4,1.8,6.63.21,3.94-4.24,2.92-5.94S276.3,262.37,273.67,264Z"/><path class="cls-1" d="M268.06,254.79c-.72,3.16-3,5.34-5,4.88s-3.1-3.41-2.38-6.57,3-5.35,5-4.88S268.78,251.63,268.06,254.79Z"/><ellipse class="cls-1" cx="272.8" cy="257.51" rx="5.87" ry="3.79" transform="translate(-91.85 345.63) rotate(-56.93)"/><path class="cls-1" d="M158,147.43c-2.07.79-1.87,2.92-3.14,5.38-1.85,3.6-.52,5.68,1.35,5.56s2.64-2.56,4.5-3.18h0c1.84-.68,4,.73,5.5-.34s1.27-3.53-2.43-5.18C161.25,148.54,160.07,146.75,158,147.43Z"/><path class="cls-1" d="M152.34,147.65c1.73,1.19,2.5,3,1.73,4.16s-2.78,1.05-4.5-.14-2.5-3-1.73-4.16S150.62,146.46,152.34,147.65Z"/><path class="cls-1" d="M162.47,144.09c-.6,2,0,3.94,1.25,4.33s2.83-.92,3.43-2.93,0-3.94-1.25-4.33S163.07,142.09,162.47,144.09Z"/><path class="cls-1" d="M155.45,142.05c1.09,1.92,1,4-.27,4.74s-3.12-.29-4.21-2.21-1-4,.28-4.74S154.37,140.13,155.45,142.05Z"/><path class="cls-1" d="M156.54,141.67c.36,2.17,1.78,3.75,3.18,3.52s2.26-2.18,1.9-4.35-1.78-3.76-3.18-3.53S156.19,139.49,156.54,141.67Z"/><path class="cls-1" d="M262.4,230c-2.56-2.24-5.29-.44-9.5-.4-6.19.06-8.05,3.35-6.55,5.78s5.35,1.74,7.5,3.82l0,0h0c2.24,2,1.85,5.87,4.4,7.18s5.67-.8,5.25-7C263.25,235.24,264.83,232.38,262.4,230Z"/><path class="cls-1" d="M258.09,222.6c-.37,3.17-2.33,5.54-4.38,5.3s-3.39-3-3-6.18,2.33-5.54,4.38-5.3S258.47,219.43,258.09,222.6Z"/><path class="cls-1" d="M270.12,233.72c-3.13.62-5.34,2.76-4.94,4.78s3.26,3.15,6.39,2.53,5.35-2.76,4.95-4.78S273.25,233.1,270.12,233.72Z"/><path class="cls-1" d="M267.87,222.79c-1.82,2.84-4.77,4.18-6.6,3s-1.83-4.41,0-7.25,4.77-4.18,6.6-3S269.69,220,267.87,222.79Z"/><ellipse class="cls-1" cx="271.54" cy="227.12" rx="6.1" ry="3.93" transform="translate(-82.05 210.04) rotate(-37.14)"/><path class="cls-1" d="M395.93,81.65c-3.24,3.27-1,7.12-1.31,12.83-.42,8.38,3.87,11.18,7.29,9.34s2.8-7.1,5.78-9.85l0,0,0,0c2.87-2.87,8.09-2,10.08-5.37s-.63-7.75-9-7.68C403.09,80.92,399.34,78.54,395.93,81.65Z"/><path class="cls-1" d="M385.54,86.88c4.26.76,7.32,3.61,6.83,6.36s-4.35,4.36-8.62,3.59-7.32-3.61-6.82-6.36S381.28,86.11,385.54,86.88Z"/><ellipse class="cls-1" cx="406.6" cy="70.8" rx="5.06" ry="7.84" transform="translate(-5.84 55.64) rotate(-7.77)"/><path class="cls-1" d="M386.6,73.65c3.69,2.69,5.28,6.8,3.54,9.18S384,85,380.32,82.26s-5.28-6.8-3.54-9.18S382.91,71,386.6,73.65Z"/><path class="cls-1" d="M388.32,72c2.54,3.8,6.58,5.56,9,3.93s2.38-6-.15-9.85-6.58-5.55-9-3.92S385.79,68.19,388.32,72Z"/><path class="cls-1" d="M195.58,123.93c-4.42-.92-6.41,2.95-11.26,5.75-7.12,4.1-7.14,9.12-3.8,11s7.32-1.47,11.17-.48h.07c3.89.84,6,5.58,9.77,5.44s6-4.63,1.53-11.5C200,129.44,199.94,125.09,195.58,123.93Z"/><ellipse class="cls-1" cx="181.18" cy="120.08" rx="4.95" ry="7.68" transform="translate(-32.3 79.18) rotate(-22.69)"/><ellipse class="cls-1" cx="210.17" cy="126.95" rx="7.68" ry="4.95" transform="translate(-32 167.46) rotate(-40.63)"/><path class="cls-1" d="M197.2,112c-.25,4.47-2.79,8-5.67,7.79s-5-3.91-4.76-8.38,2.8-8,5.68-7.79S197.45,107.54,197.2,112Z"/><ellipse class="cls-1" cx="204.27" cy="114.63" rx="8.1" ry="5.22" transform="translate(17.85 256.45) rotate(-66.56)"/><path class="cls-1" d="M13.26,161.71c-2.8.38-3.17,3.07-5.44,5.74-3.34,3.91-2.3,6.87,0,7.26s4-2.4,6.5-2.62h0c2.47-.32,4.69,2,6.9,1.17s2.6-4-1.5-7.11C17,164,16.07,161.48,13.26,161.71Z"/><path class="cls-1" d="M6.26,160.36c1.78,2,2.2,4.49.93,5.64s-3.74.49-5.52-1.48-2.2-4.49-.94-5.64S4.47,158.39,6.26,160.36Z"/><path class="cls-1" d="M19.81,158.9c-1.33,2.3-1.19,4.86.29,5.71s3.76-.33,5.08-2.63,1.19-4.86-.29-5.71S21.13,156.59,19.81,158.9Z"/><path class="cls-1" d="M11.72,154.34c.79,2.68,0,5.27-1.71,5.78s-3.78-1.26-4.56-4,0-5.28,1.72-5.78S10.94,151.65,11.72,154.34Z"/><path class="cls-1" d="M13.18,154.18c-.19,2.79,1.11,5.16,2.91,5.28s3.42-2,3.61-4.83-1.11-5.16-2.91-5.28S13.37,151.39,13.18,154.18Z"/><path class="cls-1" d="M405.86,23.83c-2.74-.6-4,1.79-7,3.5-4.44,2.51-4.48,5.63-2.42,6.79s4.55-.87,6.94-.23h0c2.41.55,3.67,3.51,6,3.44s3.78-2.84,1-7.13C408.57,27.28,408.57,24.58,405.86,23.83Z"/><path class="cls-1" d="M399.8,20.19c1,2.44.52,4.94-1.06,5.58s-3.65-.82-4.64-3.26-.53-4.94,1-5.58S398.8,17.75,399.8,20.19Z"/><path class="cls-1" d="M412.93,23.44c-2,1.7-2.77,4.13-1.67,5.43s3.61,1,5.63-.72,2.76-4.13,1.67-5.43S415,21.74,412.93,23.44Z"/><path class="cls-1" d="M407,16.44c-.19,2.77-1.79,4.92-3.58,4.8s-3.08-2.46-2.9-5.23,1.78-4.93,3.57-4.81S407.13,13.66,407,16.44Z"/><path class="cls-1" d="M408.35,16.78c-1.13,2.54-.71,5.19.92,5.92s3.88-.74,5-3.28.72-5.19-.91-5.91S409.49,14.25,408.35,16.78Z"/><path class="cls-1" d="M397.34,214.44c-3.55.73-3.78,4.21-6.46,7.83-3.93,5.29-2.34,9,.7,9.28s4.93-3.42,8.08-3.91h.06c3.13-.63,6.18,2.2,8.93.89s3-5.35-2.54-9C402.34,217.09,400.93,213.9,397.34,214.44Z"/><path class="cls-1" d="M388.27,213.33c2.45,2.36,3.21,5.56,1.69,7.14s-4.75.95-7.2-1.41-3.22-5.56-1.69-7.14S385.81,211,388.27,213.33Z"/><path class="cls-1" d="M405.48,210.27c-1.49,3.06-1.1,6.32.88,7.28s4.78-.74,6.27-3.8,1.1-6.33-.88-7.29S407,207.21,405.48,210.27Z"/><path class="cls-1" d="M394.74,205.14c1.24,3.37.48,6.75-1.7,7.55s-4.94-1.29-6.17-4.66-.49-6.75,1.69-7.55S393.5,201.77,394.74,205.14Z"/><ellipse class="cls-1" cx="400.78" cy="204.81" rx="4.19" ry="6.5"/><path class="cls-1" d="M325.68,14.5c-2.31,1.53-1.48,4.07-2.35,7.4-1.28,4.89.91,7.07,3.15,6.4s2.53-3.83,4.62-5.09h0c2.05-1.34,5-.2,6.61-1.93s.58-4.64-4.38-5.63C330,15,328.08,13.09,325.68,14.5Z"/><path class="cls-1" d="M318.92,16.3c2.42,1,3.87,3,3.24,4.59s-3.1,2-5.52,1.06-3.87-3-3.24-4.59S316.5,15.33,318.92,16.3Z"/><path class="cls-1" d="M330.27,9.2c-.18,2.61,1,4.81,2.71,4.93s3.18-1.9,3.37-4.5-1-4.81-2.71-4.92S330.45,6.6,330.27,9.2Z"/><path class="cls-1" d="M321.17,8.63c1.85,2,2.28,4.66,1,5.85s-3.88.5-5.72-1.54-2.28-4.66-1-5.85S319.33,6.59,321.17,8.63Z"/><path class="cls-1" d="M322.39,7.87c1,2.55,3.19,4.09,4.84,3.43s2.15-3.27,1.12-5.82-3.19-4.09-4.84-3.43S321.36,5.32,322.39,7.87Z"/><path class="cls-1" d="M310.1,221.74c-2.82-.5-4,2-7,3.85-4.44,2.74-4.36,5.92-2.21,7s4.62-1.06,7.08-.5H308c2.48.46,3.89,3.43,6.29,3.27s3.75-3,.76-7.33C313,225.15,312.88,222.39,310.1,221.74Z"/><path class="cls-1" d="M303.76,218.26c1.11,2.46.73,5-.85,5.74s-3.77-.69-4.88-3.14-.73-5,.86-5.74S302.65,215.81,303.76,218.26Z"/><path class="cls-1" d="M317.29,221.06c-2,1.81-2.66,4.32-1.49,5.61s3.73.85,5.72-1,2.66-4.32,1.49-5.61S319.28,219.25,317.29,221.06Z"/><path class="cls-1" d="M310.91,214.15c-.08,2.84-1.63,5.1-3.46,5s-3.25-2.4-3.17-5.23,1.63-5.1,3.46-5.05S311,211.31,310.91,214.15Z"/><path class="cls-1" d="M312.36,214.45c-1.05,2.63-.53,5.32,1.17,6s3.93-.91,5-3.54.52-5.33-1.18-6S313.41,211.81,312.36,214.45Z"/><path class="cls-1" d="M103.57,254.85c-4.37-1.35-6.74,2.36-11.9,4.73-7.56,3.47-8,8.53-4.87,10.69s7.53-.79,11.32.58h.07c3.84,1.22,5.49,6.19,9.34,6.41s6.52-4.1,2.62-11.45C107.49,260.82,107.86,256.43,103.57,254.85Z"/><ellipse class="cls-1" cx="89.42" cy="249.6" rx="5.02" ry="7.78" transform="translate(-70.36 38.02) rotate(-17.35)"/><path class="cls-1" d="M115.1,255.17c-3.51,2.48-5.06,6.33-3.46,8.59s5.74,2.08,9.25-.4,5.06-6.33,3.45-8.59S118.6,252.69,115.1,255.17Z"/><ellipse class="cls-1" cx="101.1" cy="242.19" rx="8.2" ry="5.29" transform="translate(-153.47 306.01) rotate(-81.42)"/><path class="cls-1" d="M108.57,243.74c-2.18,4-1.87,8.33.69,9.74s6.4-.68,8.58-4.65,1.88-8.33-.68-9.74S110.75,239.77,108.57,243.74Z"/><path class="cls-1" d="M93.36,86.26c-3-1.55-5.21.84-9.27,1.88-6,1.54-7,5.16-4.93,7.14s5.57.41,8.15,1.9h0l0,0c2.63,1.38,3.18,5.22,6,5.88s5.28-2.13,3.4-8C95.43,91.11,96.27,88,93.36,86.26Z"/><path class="cls-1" d="M87.43,80.13c.4,3.15-.93,5.91-3,6.17s-4-2.09-4.39-5.24.93-5.91,3-6.17S87,77,87.43,80.13Z"/><path class="cls-1" d="M101.7,88c-2.87,1.35-4.5,3.94-3.63,5.79s3.9,2.27,6.78.92,4.5-3.94,3.63-5.79S104.58,86.65,101.7,88Z"/><path class="cls-1" d="M96.92,78c-1.08,3.17-3.61,5.17-5.65,4.48s-2.83-3.83-1.75-7S93.13,70.3,95.17,71,98,74.82,96.92,78Z"/><path class="cls-1" d="M98.45,78.83c-2.1,2.6-2.45,5.82-.77,7.17s4.74.35,6.85-2.25,2.45-5.82.77-7.17S100.56,76.23,98.45,78.83Z"/><path class="cls-1" d="M399.44,130.58c-2.94.42-3.3,3.25-5.67,6.07-3.47,4.13-2.35,7.23.11,7.61s4.19-2.55,6.79-2.8h.05c2.59-.35,4.94,2.11,7.25,1.17s2.69-4.21-1.64-7.44C403.39,133,402.39,130.32,399.44,130.58Z"/><path class="cls-1" d="M392.08,129.22c1.89,2.05,2.35,4.7,1,5.91s-3.92.54-5.81-1.5-2.35-4.7-1-5.92S390.19,127.17,392.08,129.22Z"/><ellipse class="cls-1" cx="409.12" cy="129.17" rx="5.04" ry="3.25" transform="translate(95.65 422.09) rotate(-60.58)"/><path class="cls-1" d="M397.77,122.86c.84,2.81.06,5.53-1.76,6.08s-4-1.3-4.81-4.11-.06-5.54,1.75-6.08S396.92,120,397.77,122.86Z"/><path class="cls-1" d="M399.29,122.68c-.18,2.93,1.21,5.4,3.1,5.52s3.57-2.17,3.75-5.1-1.21-5.41-3.1-5.52S399.47,119.75,399.29,122.68Z"/><path class="cls-1" d="M306.78,55.25c-4.1.65-4.55,4.63-7.81,8.62-4.77,5.85-3.15,10.17.31,10.66s5.82-3.65,9.45-4.06h.07c3.62-.54,7,2.85,10.18,1.49s3.68-6-2.45-10.38C312.36,58.55,310.9,54.82,306.78,55.25Z"/><path class="cls-1" d="M296.45,53.5c2.68,2.83,3.38,6.53,1.56,8.26s-5.48.84-8.17-2-3.38-6.53-1.55-8.26S293.77,50.67,296.45,53.5Z"/><path class="cls-1" d="M316.31,50.91c-1.87,3.42-1.59,7.17.62,8.38s5.51-.6,7.37-4,1.59-7.18-.62-8.38S318.17,47.48,316.31,50.91Z"/><path class="cls-1" d="M304.28,44.47c1.24,3.93.2,7.75-2.33,8.55s-5.58-1.73-6.82-5.65-.2-7.75,2.33-8.55S303,40.55,304.28,44.47Z"/><path class="cls-1" d="M306.41,44.2c-.19,4.11,1.81,7.54,4.46,7.66s4.95-3.11,5.14-7.22S314.2,37.1,311.55,37,306.6,40.09,306.41,44.2Z"/><path class="cls-1" d="M370.74,173c-2.18-1.53-4.16.1-7.44.48-4.81.55-6,3.27-4.62,5s4.31.92,6.16,2.36h0c1.91,1.37,1.93,4.42,4,5.23s4.36-1.09,3.52-5.86C371.83,177.05,372.83,174.69,370.74,173Z"/><path class="cls-1" d="M366.77,167.62c0,2.51-1.36,4.52-3,4.5s-2.9-2.07-2.87-4.57,1.37-4.51,3-4.49S366.8,165.12,366.77,167.62Z"/><path class="cls-1" d="M377.06,175.3c-2.39.74-3.94,2.59-3.46,4.13s2.8,2.19,5.19,1.45,3.94-2.59,3.46-4.13S379.45,174.56,377.06,175.3Z"/><path class="cls-1" d="M374.41,167c-1.18,2.36-3.37,3.65-4.89,2.89s-1.8-3.29-.62-5.65,3.38-3.65,4.9-2.89S375.59,164.62,374.41,167Z"/><ellipse class="cls-1" cx="377.62" cy="170.04" rx="4.78" ry="3.08" transform="translate(-14.12 304.39) rotate(-43.17)"/><path class="cls-1" d="M122.21,13.56c-2.12-.48-3.1,1.37-5.45,2.68-3.45,1.93-3.49,4.35-1.9,5.25s3.53-.66,5.38-.16h0c1.86.43,2.83,2.72,4.66,2.67s2.93-2.19.81-5.51C124.29,16.23,124.29,14.14,122.21,13.56Z"/><path class="cls-1" d="M117.52,10.72c.76,1.89.39,3.82-.83,4.32s-2.82-.65-3.58-2.54-.4-3.82.82-4.31S116.76,8.83,117.52,10.72Z"/><path class="cls-1" d="M127.67,13.27c-1.56,1.31-2.15,3.18-1.31,4.19s2.8.77,4.36-.54,2.15-3.18,1.31-4.19S129.24,12,127.67,13.27Z"/><path class="cls-1" d="M123.06,7.84c-.15,2.14-1.39,3.8-2.77,3.71s-2.39-1.92-2.24-4.06,1.4-3.81,2.78-3.71S123.21,5.69,123.06,7.84Z"/><path class="cls-1" d="M124.15,8.11c-.88,2-.57,4,.7,4.58s3-.56,3.88-2.52.57-4-.7-4.58S125,6.15,124.15,8.11Z"/><path class="cls-1" d="M86.68,181.48c-3.26,2-2.25,5.53-3.61,10.07-2,6.66.89,9.76,4,9s3.66-5.15,6.61-6.77h0l0,0c2.89-1.74,6.92,0,9.18-2.31s1-6.36-5.72-8C92.58,182.32,90,179.67,86.68,181.48Z"/><path class="cls-1" d="M77.28,183.62c3.28,1.47,5.17,4.37,4.22,6.48s-4.36,2.64-7.64,1.17-5.17-4.36-4.23-6.47S74,182.16,77.28,183.62Z"/><path class="cls-1" d="M93.26,174.44c-.39,3.56,1.17,6.66,3.47,6.91s4.48-2.45,4.86-6-1.17-6.66-3.47-6.91S93.64,170.87,93.26,174.44Z"/><path class="cls-1" d="M80.77,173.19c2.43,2.9,2.89,6.52,1,8.09s-5.36.49-7.79-2.41-2.89-6.53-1-8.09S78.34,170.29,80.77,173.19Z"/><path class="cls-1" d="M82.48,172.2c1.29,3.56,4.19,5.78,6.48,5s3.12-4.39,1.84-7.95-4.18-5.78-6.48-5S81.2,168.64,82.48,172.2Z"/><path class="cls-1" d="M285.08,16c-2.1-.74-3.33,1-5.89,2.08-3.76,1.54-4.09,4-2.58,5.12s3.68-.24,5.51.5h0c1.85.66,2.56,3.12,4.43,3.3s3.26-1.87,1.5-5.53C286.88,19,287.14,16.85,285.08,16Z"/><path class="cls-1" d="M280.64,12.53c.55,2-.07,4-1.37,4.3s-2.81-1-3.35-3,.07-4,1.37-4.31S280.1,10.51,280.64,12.53Z"/><path class="cls-1" d="M290.7,16.38c-1.76,1.14-2.59,3-1.85,4.12s2.76,1.12,4.52,0,2.58-3,1.84-4.12S292.45,15.23,290.7,16.38Z"/><path class="cls-1" d="M286.65,10.26c-.41,2.17-1.88,3.72-3.28,3.45s-2.2-2.25-1.79-4.42,1.89-3.71,3.29-3.45S287.07,8.09,286.65,10.26Z"/><path class="cls-1" d="M287.73,10.68c-1.14,1.89-1.07,4,.15,4.76s3.14-.21,4.28-2.1,1.07-4-.15-4.76S288.87,8.78,287.73,10.68Z"/><path class="cls-1" d="M282.27,148.63c1.16-.88,2.29-.62,4-.21a18.64,18.64,0,0,0,3.09.53c2.33.18,4.05,1,4.58,2.1a1.67,1.67,0,0,1-.19,1.74,1.9,1.9,0,0,1-.36.39A5.63,5.63,0,0,1,291,154a7.1,7.1,0,0,0-3.26,1.25l-.07.06-.07,0a7.29,7.29,0,0,0-1.88,2.92,5.52,5.52,0,0,1-1.3,2.14,1.83,1.83,0,0,1-2.2.11c-1-.75-1.42-2.59-1.11-4.92a19,19,0,0,0,.11-3.13c-.05-1.75-.08-2.91,1-3.87m-.44-.54c-2.05,1.76-.94,4.12-1.39,7.45-.65,4.88,1.73,6.73,3.82,5.82a2.94,2.94,0,0,0,.62-.38c1.45-1.19,1.57-3.74,3.18-5.06l.06,0h0l.05,0c1.63-1.33,4.17-.9,5.63-2.1a2.18,2.18,0,0,0,.48-.52c1.33-1.85,0-4.56-4.9-4.93-3.35-.24-5.43-1.82-7.58-.17Z"/><path class="cls-1" d="M271.46,151.77h0a4.54,4.54,0,0,1,3.86-.45,5.39,5.39,0,0,1,2.59,1.47,2,2,0,0,1,.61,1.74,1.35,1.35,0,0,1-.51.74,4.54,4.54,0,0,1-3.86.45,5.44,5.44,0,0,1-2.59-1.47,2,2,0,0,1-.6-1.74,1.39,1.39,0,0,1,.5-.74m-.43-.53a2,2,0,0,0-.74,1.1c-.42,1.58,1.23,3.4,3.69,4a5.17,5.17,0,0,0,4.47-.59,2.07,2.07,0,0,0,.74-1.1c.42-1.58-1.23-3.39-3.69-4a5.16,5.16,0,0,0-4.47.59Z"/><path class="cls-1" d="M287.55,138.71a1.4,1.4,0,0,1,.84-.35c1.24-.07,2.37,1.67,2.48,3.78a4.52,4.52,0,0,1-1.22,3.68,1.4,1.4,0,0,1-.84.35c-1.23.07-2.37-1.67-2.48-3.78a4.55,4.55,0,0,1,1.22-3.68m-.43-.54a5.18,5.18,0,0,0-1.48,4.25c.13,2.54,1.57,4.53,3.21,4.44a2.06,2.06,0,0,0,1.23-.5,5.22,5.22,0,0,0,1.49-4.25c-.14-2.54-1.58-4.53-3.21-4.44a2.09,2.09,0,0,0-1.24.5Z"/><path class="cls-1" d="M271.74,142.44h0c1-.79,3-.33,4.57,1.05a5.67,5.67,0,0,1,1.79,2.61,2.12,2.12,0,0,1-.23,2l-.17.17c-1,.79-3,.33-4.58-1a5.85,5.85,0,0,1-1.79-2.61,2.14,2.14,0,0,1,.24-2,.91.91,0,0,1,.17-.17m-.44-.53a1.52,1.52,0,0,0-.26.25c-1.13,1.3-.4,3.79,1.63,5.54s4.24,2.06,5.47,1.05a1.88,1.88,0,0,0,.25-.24c1.13-1.31.4-3.79-1.63-5.55-1.88-1.63-4.23-2.06-5.46-1.05Z"/><path class="cls-1" d="M278.37,137.06a.9.9,0,0,1,.2-.14c1.16-.64,3.06.49,4.15,2.46s1.06,3.9.09,4.69a.86.86,0,0,1-.2.13,2.15,2.15,0,0,1-2-.17,5.75,5.75,0,0,1-2.18-2.29c-1-1.83-1.06-3.89-.09-4.68m-.44-.54c-1.22,1-1.28,3.38-.08,5.56,1.3,2.34,3.58,3.57,5.09,2.73a2.11,2.11,0,0,0,.31-.21c1.22-1,1.29-3.38.08-5.55-1.3-2.35-3.58-3.57-5.09-2.74a2.11,2.11,0,0,0-.31.21Z"/><path class="cls-1" d="M52.94,261.78c1.33.5,1.69,1.57,2.23,3.18a19.07,19.07,0,0,0,1.15,2.82c1.06,2,1.3,3.82.64,4.85a1.65,1.65,0,0,1-1.54.74,2.11,2.11,0,0,1-.5-.1A5.47,5.47,0,0,1,53,271.75a7,7,0,0,0-2.71-2l-.08,0-.08,0a7,7,0,0,0-3.37-.05,5.55,5.55,0,0,1-2.43,0,2,2,0,0,1-.47-.23,1.65,1.65,0,0,1-.76-1.53c.11-1.21,1.41-2.5,3.48-3.44a18.33,18.33,0,0,0,2.63-1.52c1.42-.94,2.36-1.56,3.72-1.14m.22-.64c-2.51-.78-3.88,1.34-6.85,2.69-4.35,2-4.64,4.88-2.82,6.13a2.67,2.67,0,0,0,.63.32c1.72.58,3.88-.64,5.8,0l.07,0h0l0,0c1.93.66,2.89,3,4.62,3.55a2.57,2.57,0,0,0,.68.14c2.21.13,3.76-2.35,1.53-6.58-1.51-2.88-1.29-5.4-3.75-6.32Z"/><path class="cls-1" d="M44.8,254.5h0a4.38,4.38,0,0,1,2.35,2.94,5.14,5.14,0,0,1,.12,2.89,1.91,1.91,0,0,1-1.11,1.39,1.37,1.37,0,0,1-.87,0,4.41,4.41,0,0,1-2.36-2.95,5.23,5.23,0,0,1-.12-2.89,2,2,0,0,1,1.11-1.39,1.41,1.41,0,0,1,.88,0m.21-.64a2.08,2.08,0,0,0-1.28,0c-1.52.47-2.17,2.76-1.44,5.12a5.06,5.06,0,0,0,2.78,3.39,2.19,2.19,0,0,0,1.29,0c1.52-.47,2.16-2.76,1.43-5.12A5,5,0,0,0,45,253.86Z"/><path class="cls-1" d="M63.83,261a1.41,1.41,0,0,1,.71.51c.69,1-.15,2.81-1.84,4a4.44,4.44,0,0,1-3.66.89,1.37,1.37,0,0,1-.71-.52c-.69-1,.15-2.8,1.84-4a4.43,4.43,0,0,1,3.66-.88m.21-.63a5.06,5.06,0,0,0-4.26,1c-2,1.42-2.92,3.63-2,4.93a2,2,0,0,0,1,.76,5,5,0,0,0,4.26-1c2-1.42,2.92-3.62,2-4.92a2,2,0,0,0-1-.76Z"/><path class="cls-1" d="M52.61,249.92h0c1.16.4,1.81,2.29,1.5,4.31A5.54,5.54,0,0,1,52.88,257a2.06,2.06,0,0,1-1.73.82.79.79,0,0,1-.22-.06c-1.16-.39-1.81-2.28-1.5-4.3a5.46,5.46,0,0,1,1.23-2.81,2.06,2.06,0,0,1,1.73-.82l.22,0m.22-.63a1.3,1.3,0,0,0-.34-.08c-1.66-.26-3.32,1.62-3.72,4.19-.37,2.39.48,4.54,1.94,5a1.87,1.87,0,0,0,.34.08c1.66.26,3.32-1.62,3.72-4.19.37-2.39-.48-4.55-1.94-5Z"/><path class="cls-1" d="M60.46,252.61l.22.1c1.12.62,1.17,2.77.11,4.68s-2.67,2.88-3.82,2.48a.78.78,0,0,1-.21-.09,2.07,2.07,0,0,1-.87-1.71,5.53,5.53,0,0,1,.76-3c1-1.79,2.66-2.88,3.81-2.49m.22-.63c-1.46-.5-3.45.68-4.62,2.79-1.26,2.28-1.1,4.78.37,5.6a3.27,3.27,0,0,0,.33.14c1.45.49,3.44-.68,4.61-2.79,1.27-2.28,1.1-4.78-.37-5.6a1.83,1.83,0,0,0-.32-.14Z"/><path class="cls-1" d="M55.73,134.27c1.65,1.68,1.46,3.54,1.16,6.35a30.34,30.34,0,0,0-.24,5c.2,3.77-.7,6.67-2.41,7.76a2.71,2.71,0,0,1-2.83,0,3.33,3.33,0,0,1-.69-.49,9,9,0,0,1-1.82-3.63,11.58,11.58,0,0,0-2.67-4.94l-.1-.1-.11-.1a11.61,11.61,0,0,0-5-2.42,9.11,9.11,0,0,1-3.69-1.64,3.51,3.51,0,0,1-.54-.68,2.72,2.72,0,0,1-.08-2.83c1-1.75,3.86-2.79,7.64-2.76a30.54,30.54,0,0,0,5-.47c2.79-.42,4.64-.7,6.39.87m.77-.81c-3.23-2.93-6.77-.67-12.18-.71-7.94-.05-10.41,4.13-8.52,7.28a4.11,4.11,0,0,0,.73.91c2.19,2.09,6.29,1.75,8.73,4.07l.08.08,0,0,0,0,.07.06c2.45,2.33,2.29,6.48,4.5,8.57a3.88,3.88,0,0,0,.92.67c3.24,1.74,7.3-.91,6.89-8.84-.29-5.4,1.8-9-1.27-12.14Z"/><path class="cls-1" d="M48.52,117.63h0c1.25,1.19,1.84,3.58,1.5,6.08a8.57,8.57,0,0,1-1.83,4.44,3.2,3.2,0,0,1-2.64,1.32,2.27,2.27,0,0,1-1.29-.66c-1.25-1.19-1.84-3.57-1.51-6.08a8.7,8.7,0,0,1,1.83-4.43A3.18,3.18,0,0,1,47.23,117a2.34,2.34,0,0,1,1.29.65m.77-.8a3.42,3.42,0,0,0-1.91-1c-2.62-.35-5.19,2.65-5.73,6.72-.4,3,.38,5.64,1.84,7a3.46,3.46,0,0,0,1.91,1c2.62.35,5.18-2.66,5.73-6.72.4-3-.38-5.65-1.84-7Z"/><path class="cls-1" d="M72.67,140.7a2.29,2.29,0,0,1,.72,1.27c.36,2-2.18,4.13-5.54,4.74-2.48.45-4.89,0-6.13-1.22a2.28,2.28,0,0,1-.73-1.27c-.36-1.95,2.18-4.12,5.55-4.73,2.47-.45,4.88,0,6.13,1.21m.76-.81c-1.45-1.38-4.17-2-7.09-1.5-4,.73-6.92,3.43-6.45,6A3.41,3.41,0,0,0,61,146.3c1.45,1.38,4.17,2,7.09,1.5,4-.73,6.92-3.43,6.45-6a3.44,3.44,0,0,0-1.06-1.88Z"/><path class="cls-1" d="M63.49,116.18h0c1.46,1.39,1.14,4.69-.74,7.52a9.17,9.17,0,0,1-3.81,3.39,3.47,3.47,0,0,1-3.18,0,3.15,3.15,0,0,1-.3-.24c-1.46-1.39-1.14-4.7.74-7.53A9.21,9.21,0,0,1,60,116a3.41,3.41,0,0,1,3.18,0,3.15,3.15,0,0,1,.3.24m.76-.81a3.94,3.94,0,0,0-.45-.36c-2.32-1.54-6.14.13-8.53,3.73-2.22,3.35-2.43,7.19-.57,9a2.25,2.25,0,0,0,.45.35c2.32,1.55,6.13-.12,8.53-3.72,2.22-3.35,2.42-7.19.57-8.95Z"/><path class="cls-1" d="M73.44,125.69a2.35,2.35,0,0,1,.26.29c1.26,1.72-.16,5-3.09,7.14-2.73,2-6,2.48-7.48,1.09a2.55,2.55,0,0,1-.26-.3,3.4,3.4,0,0,1-.11-3.17,9.11,9.11,0,0,1,3.21-4c2.73-2,6-2.48,7.47-1.09m.77-.81c-1.85-1.76-5.66-1.37-8.9,1-3.49,2.55-5,6.44-3.33,8.69a2.32,2.32,0,0,0,.39.44c1.84,1.76,5.66,1.38,8.9-1,3.48-2.56,5-6.45,3.33-8.69a3.41,3.41,0,0,0-.39-.45Z"/><path class="cls-1" d="M12.89,63.23c1-.61,1.93-.29,3.29.2a16.89,16.89,0,0,0,2.48.72c1.9.36,3.23,1.15,3.56,2.13a1.36,1.36,0,0,1-.32,1.41,1.43,1.43,0,0,1-.32.28,4.53,4.53,0,0,1-2,.47,6,6,0,0,0-2.78.73l-.06,0-.07,0a6,6,0,0,0-1.8,2.21,4.75,4.75,0,0,1-1.26,1.64,2.09,2.09,0,0,1-.4.19,1.42,1.42,0,0,1-1.42-.3c-.75-.71-.92-2.26-.45-4.13a15.67,15.67,0,0,0,.37-2.55c.13-1.44.21-2.39,1.2-3.08m-.31-.47c-1.84,1.25-1.15,3.28-1.81,6-1,3.94.79,5.67,2.59,5.11a2.65,2.65,0,0,0,.54-.25c1.29-.84,1.62-2.92,3.06-3.85l.06,0h0l0,0c1.45-.94,3.49-.36,4.79-1.2a2.27,2.27,0,0,0,.45-.38c1.25-1.4.42-3.73-3.56-4.48-2.72-.51-4.28-2-6.19-.83Z"/><path class="cls-1" d="M3.76,64.82h0a3.72,3.72,0,0,1,3.2,0,4.46,4.46,0,0,1,2,1.44,1.63,1.63,0,0,1,.33,1.48,1.11,1.11,0,0,1-.48.56,3.73,3.73,0,0,1-3.2,0,4.42,4.42,0,0,1-2-1.44,1.64,1.64,0,0,1-.34-1.47,1.17,1.17,0,0,1,.48-.56m-.31-.48a1.76,1.76,0,0,0-.7.83c-.49,1.26.69,2.89,2.64,3.65a4.29,4.29,0,0,0,3.72-.06,1.68,1.68,0,0,0,.7-.84c.49-1.26-.69-2.89-2.64-3.65a4.29,4.29,0,0,0-3.72.07Z"/><path class="cls-1" d="M18.13,55.6a1.2,1.2,0,0,1,.71-.21c1,.06,1.79,1.58,1.69,3.33a3.74,3.74,0,0,1-1.34,2.89,1.11,1.11,0,0,1-.72.21c-1-.06-1.79-1.58-1.69-3.32a3.77,3.77,0,0,1,1.35-2.9m-.31-.48a4.24,4.24,0,0,0-1.6,3.34c-.13,2.09.87,3.85,2.21,3.93a1.8,1.8,0,0,0,1.07-.3,4.29,4.29,0,0,0,1.6-3.34c.12-2.09-.88-3.85-2.22-3.93a1.79,1.79,0,0,0-1.06.3Z"/><path class="cls-1" d="M4.84,57.21h0c.87-.56,2.47,0,3.65,1.27a4.71,4.71,0,0,1,1.22,2.3,1.73,1.73,0,0,1-.37,1.58l-.15.12c-.87.56-2.47,0-3.65-1.27a4.67,4.67,0,0,1-1.22-2.3,1.73,1.73,0,0,1,.37-1.58.44.44,0,0,1,.15-.12m-.31-.48a1.3,1.3,0,0,0-.23.18c-1,1-.68,3.06.82,4.68S8.4,63.67,9.5,63l.23-.18c1-1,.68-3.07-.82-4.69S5.63,56,4.53,56.73Z"/><path class="cls-1" d="M10.76,53.41l.18-.1c1-.42,2.46.68,3.17,2.4s.51,3.28-.36,3.84a.51.51,0,0,1-.18.09A1.74,1.74,0,0,1,12,59.32a4.7,4.7,0,0,1-1.58-2.07c-.66-1.6-.5-3.28.36-3.84m-.31-.48c-1.09.7-1.36,2.65-.57,4.54s2.6,3.25,3.91,2.7a1.71,1.71,0,0,0,.27-.14c1.1-.71,1.36-2.65.58-4.54s-2.6-3.25-3.92-2.7a1.74,1.74,0,0,0-.27.14Z"/><path class="cls-1" d="M63.16,223.82c1.38-.76,2.54-.29,4.29.41a21.69,21.69,0,0,0,3.2,1.08c2.46.56,4.15,1.67,4.54,3a1.82,1.82,0,0,1-.49,1.83,2.51,2.51,0,0,1-.44.35,6.1,6.1,0,0,1-2.66.51,7.71,7.71,0,0,0-3.67.81l-.08,0-.08,0a7.82,7.82,0,0,0-2.47,2.8,6.06,6.06,0,0,1-1.73,2.07A2,2,0,0,1,63,237a1.79,1.79,0,0,1-1.83-.46c-1-1-1.09-3-.39-5.41a19.5,19.5,0,0,0,.62-3.31c.24-1.87.39-3.11,1.72-4m-.37-.64c-2.47,1.54-1.67,4.23-2.68,7.69-1.48,5.09.75,7.44,3.12,6.8a2.88,2.88,0,0,0,.72-.3c1.74-1,2.27-3.72,4.2-4.86l.07,0h0l0,0c2-1.15,4.58-.29,6.33-1.32a3.33,3.33,0,0,0,.6-.48c1.7-1.76.74-4.85-4.43-6-3.52-.81-5.48-2.81-8-1.4Z"/><path class="cls-1" d="M51.16,225.42h0a4.85,4.85,0,0,1,4.18.14,5.74,5.74,0,0,1,2.52,2,2.17,2.17,0,0,1,.37,1.94,1.55,1.55,0,0,1-.66.71,4.88,4.88,0,0,1-4.18-.14,5.76,5.76,0,0,1-2.52-2,2.13,2.13,0,0,1-.36-1.94,1.5,1.5,0,0,1,.65-.7m-.38-.64a2.32,2.32,0,0,0-1,1.05c-.7,1.61.76,3.81,3.27,4.9a5.56,5.56,0,0,0,4.86.1,2.27,2.27,0,0,0,1-1.05c.7-1.62-.76-3.81-3.27-4.9a5.56,5.56,0,0,0-4.86-.1Z"/><path class="cls-1" d="M70.39,214.12a1.51,1.51,0,0,1,.94-.24c1.32.13,2.25,2.16,2,4.43a4.87,4.87,0,0,1-1.9,3.71,1.51,1.51,0,0,1-.94.24c-1.33-.13-2.26-2.16-2-4.43a4.87,4.87,0,0,1,1.9-3.71m-.38-.65a5.61,5.61,0,0,0-2.26,4.29c-.27,2.72.94,5.07,2.69,5.24a2.27,2.27,0,0,0,1.4-.34,5.57,5.57,0,0,0,2.26-4.28c.27-2.72-.94-5.07-2.69-5.24a2.26,2.26,0,0,0-1.4.33Z"/><path class="cls-1" d="M53,215.54h0c1.16-.69,3.22.12,4.7,1.84a6.25,6.25,0,0,1,1.48,3.07,2.3,2.3,0,0,1-.56,2,1.37,1.37,0,0,1-.21.15c-1.16.69-3.23-.12-4.7-1.84a6.17,6.17,0,0,1-1.48-3.07,2.3,2.3,0,0,1,.56-2l.21-.15m-.38-.64a2.18,2.18,0,0,0-.31.22c-1.42,1.21-1,4,.83,6.16,1.75,2,4.18,2.87,5.65,2a2.18,2.18,0,0,0,.31-.22c1.41-1.21,1-4-.84-6.16-1.74-2-4.17-2.87-5.64-2Z"/><path class="cls-1" d="M60.88,210.88a1.28,1.28,0,0,1,.24-.11c1.33-.5,3.17,1,4,3.28.78,2.12.49,4.32-.67,5a1.67,1.67,0,0,1-.23.12,2.3,2.3,0,0,1-2.06-.51,6.17,6.17,0,0,1-2-2.78c-.79-2.12-.49-4.32.66-5m-.37-.64c-1.47.86-1.92,3.39-1,5.9,1,2.7,3.23,4.37,5,3.72a1.62,1.62,0,0,0,.35-.17c1.47-.86,1.92-3.38,1-5.9-1-2.7-3.23-4.37-5-3.72a1.62,1.62,0,0,0-.35.17Z"/><path class="cls-1" d="M162.13,19.41c1.4,0,2.1.89,3.16,2.21a19,19,0,0,0,2,2.24c1.67,1.52,2.51,3.13,2.24,4.31a1.63,1.63,0,0,1-1.18,1.21,1.74,1.74,0,0,1-.5.08,5.49,5.49,0,0,1-2.3-.77,7.07,7.07,0,0,0-3.22-1h-.17A6.93,6.93,0,0,0,159,28.81a5.48,5.48,0,0,1-2.26.86,2.16,2.16,0,0,1-.51-.06A1.62,1.62,0,0,1,155,28.44c-.31-1.16.46-2.81,2.08-4.39a18.58,18.58,0,0,0,1.94-2.31c1-1.36,1.67-2.26,3.08-2.33m0-.67c-2.6.12-3.16,2.57-5.47,4.84-3.39,3.32-2.68,6.13-.55,6.68a2.38,2.38,0,0,0,.69.07c1.81,0,3.41-1.9,5.42-1.95h.17c2,0,3.7,1.78,5.52,1.75a2.75,2.75,0,0,0,.68-.11c2.1-.63,2.71-3.46-.8-6.65-2.4-2.18-3.05-4.61-5.66-4.63Z"/><path class="cls-1" d="M152.06,15.38h0a4.42,4.42,0,0,1,3.2,1.95A5.24,5.24,0,0,1,156.35,20a1.91,1.91,0,0,1-.57,1.67,1.39,1.39,0,0,1-.82.27,4.39,4.39,0,0,1-3.2-1.95,5.15,5.15,0,0,1-1.09-2.66,1.88,1.88,0,0,1,.56-1.67,1.4,1.4,0,0,1,.83-.27m0-.66a2,2,0,0,0-1.21.4c-1.26,1-1.08,3.31.4,5.26A5,5,0,0,0,155,22.59a2,2,0,0,0,1.21-.4c1.26-1,1.09-3.31-.39-5.26A5,5,0,0,0,152,14.72Z"/><path class="cls-1" d="M172,15a1.36,1.36,0,0,1,.84.23c1,.68.81,2.67-.36,4.35a4.37,4.37,0,0,1-3.11,2.06,1.39,1.39,0,0,1-.85-.23c-1-.68-.81-2.67.36-4.35A4.41,4.41,0,0,1,172,15m0-.67a5,5,0,0,0-3.64,2.35c-1.41,2-1.5,4.37-.2,5.28a2,2,0,0,0,1.24.35A5,5,0,0,0,173.06,20c1.4-2,1.49-4.37.19-5.28a2,2,0,0,0-1.24-.35Z"/><path class="cls-1" d="M157.8,8.46h0c1.21,0,2.46,1.52,2.85,3.51a5.48,5.48,0,0,1-.19,3,2,2,0,0,1-1.33,1.35l-.23,0c-1.21,0-2.46-1.51-2.86-3.5a5.58,5.58,0,0,1,.19-3,2.06,2.06,0,0,1,1.34-1.35.91.91,0,0,1,.23,0m0-.67-.34,0c-1.63.32-2.55,2.64-2.05,5.18.47,2.36,2,4.07,3.52,4a1.39,1.39,0,0,0,.35,0c1.63-.32,2.55-2.64,2.05-5.17-.47-2.36-2-4.08-3.53-4Z"/><path class="cls-1" d="M166,8.31a1,1,0,0,1,.24,0c1.26.2,2,2.19,1.69,4.33s-1.51,3.59-2.72,3.62l-.23,0a2.06,2.06,0,0,1-1.39-1.3,5.49,5.49,0,0,1-.3-3c.31-2,1.51-3.59,2.71-3.61m0-.67c-1.53,0-3,1.8-3.36,4.17-.41,2.56.6,4.84,2.25,5.1a2,2,0,0,0,.35,0c1.52,0,3-1.8,3.36-4.17.4-2.55-.6-4.84-2.25-5.1a2.06,2.06,0,0,0-.35,0Z"/><path class="cls-1" d="M176.9,186.18c1.89.91,2.3,2.53,2.9,5a28.09,28.09,0,0,0,1.35,4.3c1.31,3.1,1.44,5.81.34,7.24a2.42,2.42,0,0,1-2.36.9,2.59,2.59,0,0,1-.72-.21,8,8,0,0,1-2.64-2.48,10.38,10.38,0,0,0-3.75-3.33l-.11-.05-.12-.06a10.42,10.42,0,0,0-5-.48,8.15,8.15,0,0,1-3.59-.25,2.62,2.62,0,0,1-.66-.41,2.4,2.4,0,0,1-.94-2.34c.31-1.78,2.39-3.52,5.56-4.65a27.42,27.42,0,0,0,4.08-1.93c2.21-1.21,3.68-2,5.63-1.23m.4-.91c-3.61-1.47-5.89,1.51-10.44,3.13-6.67,2.38-7.46,6.64-4.92,8.71a3.92,3.92,0,0,0,.89.54c2.47,1.07,5.81-.46,8.56.74l.1,0,0,0h0l.07,0c2.77,1.21,3.9,4.73,6.39,5.82a3.83,3.83,0,0,0,1,.27c3.24.47,5.84-3,3.07-9.51-1.88-4.45-1.24-8.14-4.76-9.8Z"/><path class="cls-1" d="M165.77,174.43h0c1.41.62,2.63,2.44,3.12,4.64a7.74,7.74,0,0,1-.19,4.28,2.85,2.85,0,0,1-1.81,1.92,2,2,0,0,1-1.28-.16c-1.41-.61-2.64-2.43-3.12-4.64a7.66,7.66,0,0,1,.18-4.28,2.84,2.84,0,0,1,1.81-1.91,2.1,2.1,0,0,1,1.29.15m.39-.91a3.1,3.1,0,0,0-1.89-.22c-2.3.51-3.54,3.81-2.75,7.39.57,2.59,2,4.62,3.69,5.33a3,3,0,0,0,1.89.22c2.31-.5,3.54-3.81,2.76-7.38-.57-2.6-2.05-4.62-3.7-5.34Z"/><path class="cls-1" d="M193.06,186.41a2,2,0,0,1,1,.84c.9,1.53-.57,4.13-3.21,5.66-1.93,1.14-4.1,1.47-5.51.86a2.15,2.15,0,0,1-1-.84c-.89-1.54.58-4.13,3.21-5.67,1.94-1.13,4.1-1.47,5.51-.85m.4-.92c-1.64-.71-4.12-.42-6.41.91-3.16,1.85-4.75,5-3.57,7a3.09,3.09,0,0,0,1.46,1.25c1.65.72,4.13.43,6.42-.91,3.15-1.84,4.75-5,3.56-7a3.11,3.11,0,0,0-1.46-1.26Z"/><path class="cls-1" d="M177.87,168.64h0c1.66.72,2.39,3.59,1.68,6.54a8.15,8.15,0,0,1-2.16,4,3.06,3.06,0,0,1-2.65,1l-.33-.11c-1.65-.72-2.39-3.59-1.68-6.54a8.32,8.32,0,0,1,2.16-4,3.08,3.08,0,0,1,2.66-1l.32.11m.4-.91a2.81,2.81,0,0,0-.49-.16c-2.41-.59-5.11,2-6,5.73-.85,3.49.16,6.77,2.25,7.68a2.46,2.46,0,0,0,.48.16c2.42.59,5.11-2,6-5.73.84-3.49-.16-6.77-2.25-7.68Z"/><path class="cls-1" d="M189.13,173.58a1.34,1.34,0,0,1,.31.17c1.58,1.05,1.39,4.23-.42,6.92-1.68,2.51-4.28,3.92-5.93,3.2a1.54,1.54,0,0,1-.31-.17,3.05,3.05,0,0,1-1.07-2.62,8.24,8.24,0,0,1,1.48-4.31c1.68-2.51,4.29-3.91,5.94-3.19m.4-.91c-2.09-.91-5.17.57-7.17,3.55-2.14,3.21-2.2,6.93-.14,8.31a3,3,0,0,0,.47.25c2.08.91,5.17-.58,7.16-3.55,2.14-3.21,2.21-6.93.14-8.31a2.94,2.94,0,0,0-.46-.25Z"/><path class="cls-1" d="M103,139.32c1.29.17,1.84,1,2.66,2.36a17.16,17.16,0,0,0,1.62,2.28c1.37,1.57,2,3.13,1.59,4.19a1.46,1.46,0,0,1-1.21,1,1.83,1.83,0,0,1-.47,0,5,5,0,0,1-2-1,6.3,6.3,0,0,0-2.85-1.24h-.15a6.57,6.57,0,0,0-3,.67,5,5,0,0,1-2.16.54,1.64,1.64,0,0,1-1.46-1.31c-.17-1.1.72-2.52,2.37-3.8a17.37,17.37,0,0,0,2-1.92c1.06-1.13,1.77-1.89,3.07-1.8m.06-.61c-2.4-.17-3.17,2-5.54,3.84-3.46,2.68-3.11,5.34-1.22,6.07a2.38,2.38,0,0,0,.63.14c1.66.16,3.33-1.38,5.18-1.21h.15c1.86.18,3.2,2,4.88,2.19a2.69,2.69,0,0,0,.63,0c2-.35,2.85-2.89,0-6.19-2-2.25-2.29-4.55-4.68-4.84Z"/><path class="cls-1" d="M94.17,134.55h0a4,4,0,0,1,2.72,2.13,4.77,4.77,0,0,1,.72,2.55,1.78,1.78,0,0,1-.7,1.48,1.25,1.25,0,0,1-.78.15,4.06,4.06,0,0,1-2.73-2.13,4.86,4.86,0,0,1-.72-2.55,1.78,1.78,0,0,1,.7-1.48,1.3,1.3,0,0,1,.79-.15m.06-.61a1.92,1.92,0,0,0-1.16.23c-1.26.74-1.35,2.92-.2,4.87a4.59,4.59,0,0,0,3.2,2.43,1.89,1.89,0,0,0,1.15-.23c1.26-.74,1.35-2.92.2-4.87a4.6,4.6,0,0,0-3.19-2.43Z"/><path class="cls-1" d="M112.52,136.34a1.34,1.34,0,0,1,.75.31c.82.73.45,2.54-.8,3.95a4.07,4.07,0,0,1-3.08,1.56,1.27,1.27,0,0,1-.75-.31c-.82-.73-.45-2.53.8-3.94a4.06,4.06,0,0,1,3.08-1.57m.06-.61a4.64,4.64,0,0,0-3.6,1.77c-1.5,1.69-1.84,3.84-.74,4.81a1.85,1.85,0,0,0,1.09.46,4.64,4.64,0,0,0,3.6-1.77c1.5-1.69,1.84-3.84.75-4.81a1.91,1.91,0,0,0-1.1-.46Z"/><path class="cls-1" d="M100.17,128.82h0c1.11.1,2.1,1.65,2.25,3.52a5.14,5.14,0,0,1-.5,2.77,1.89,1.89,0,0,1-1.37,1.09.81.81,0,0,1-.22,0c-1.11-.1-2.09-1.65-2.24-3.52a5.14,5.14,0,0,1,.5-2.77,1.89,1.89,0,0,1,1.37-1.09h.21m.06-.61h-.32c-1.53.12-2.62,2.15-2.43,4.53.17,2.21,1.39,4,2.8,4.08h.31c1.54-.12,2.63-2.15,2.44-4.53-.17-2.21-1.39-3.95-2.8-4.08Z"/><path class="cls-1" d="M107.74,129.56l.21,0c1.14.32,1.63,2.22,1.09,4.15s-1.77,3.13-2.88,3l-.21,0a1.9,1.9,0,0,1-1.13-1.34,5.08,5.08,0,0,1,0-2.81c.51-1.8,1.77-3.13,2.88-3m.06-.61c-1.4-.14-2.93,1.33-3.53,3.46-.64,2.3,0,4.5,1.51,4.91a1.91,1.91,0,0,0,.33.06c1.4.14,2.92-1.33,3.52-3.46.65-2.3,0-4.5-1.51-4.91a1.8,1.8,0,0,0-.32-.06Z"/><path class="cls-1" d="M250.14,17.26c.89.72.91,1.62.93,3a14.61,14.61,0,0,0,.18,2.44c.32,1.81.05,3.26-.71,3.88a1.31,1.31,0,0,1-1.35.19,1.58,1.58,0,0,1-.36-.2,4.4,4.4,0,0,1-1.09-1.64,5.65,5.65,0,0,0-1.58-2.22l0,0-.06-.05a5.69,5.69,0,0,0-2.57-.86,4.39,4.39,0,0,1-1.87-.58,1.64,1.64,0,0,1-.3-.29,1.31,1.31,0,0,1-.2-1.36c.38-.9,1.69-1.57,3.51-1.78a13.78,13.78,0,0,0,2.39-.52c1.32-.37,2.19-.61,3.13,0m.32-.43c-1.72-1.22-3.3.07-5.9.37-3.83.45-4.77,2.6-3.68,4a2.16,2.16,0,0,0,.41.39c1.18.88,3.13.48,4.44,1.45l0,0h0l0,0c1.32,1,1.48,3,2.66,3.86a2.12,2.12,0,0,0,.49.27c1.66.65,3.46-.87,2.79-4.66-.45-2.58.34-4.46-1.32-5.77Z"/><path class="cls-1" d="M245.69,9.68h0a3.54,3.54,0,0,1,1.08,2.84,4.18,4.18,0,0,1-.62,2.24,1.52,1.52,0,0,1-1.19.79,1.07,1.07,0,0,1-.66-.24,3.54,3.54,0,0,1-1.08-2.84,4.21,4.21,0,0,1,.62-2.24A1.53,1.53,0,0,1,245,9.44a1.07,1.07,0,0,1,.66.24m.32-.43a1.6,1.6,0,0,0-1-.35c-1.28,0-2.34,1.58-2.36,3.57a4.05,4.05,0,0,0,1.3,3.28,1.66,1.66,0,0,0,1,.34c1.28,0,2.34-1.58,2.36-3.57A4,4,0,0,0,246,9.25Z"/><path class="cls-1" d="M258.67,19.37a1.1,1.1,0,0,1,.42.57c.29.92-.81,2.11-2.39,2.6a3.59,3.59,0,0,1-3-.22,1.16,1.16,0,0,1-.43-.57c-.28-.92.81-2.12,2.4-2.61a3.55,3.55,0,0,1,3,.23m.32-.44a4.05,4.05,0,0,0-3.5-.3c-1.9.58-3.13,2.05-2.75,3.28a1.65,1.65,0,0,0,.62.84,4.08,4.08,0,0,0,3.5.31c1.9-.59,3.13-2.06,2.75-3.28a1.63,1.63,0,0,0-.62-.85Z"/><path class="cls-1" d="M252.81,8.1h0c.79.58.83,2.19.09,3.67a4.46,4.46,0,0,1-1.64,1.85,1.67,1.67,0,0,1-1.52.2l-.16-.1c-.79-.58-.83-2.19-.09-3.66a4.43,4.43,0,0,1,1.64-1.86,1.66,1.66,0,0,1,1.52-.2l.16.1m.32-.43a1.14,1.14,0,0,0-.23-.15c-1.21-.61-3,.42-3.89,2.29s-.75,3.61.25,4.35l.23.14c1.21.61,2.95-.42,3.89-2.29s.75-3.6-.25-4.34Z"/><path class="cls-1" d="M258.16,12.09l.14.13c.71.76.22,2.41-1.07,3.62s-2.75,1.54-3.53,1a.86.86,0,0,1-.14-.13,1.63,1.63,0,0,1-.24-1.52,4.36,4.36,0,0,1,1.31-2.09c1.19-1.12,2.75-1.55,3.53-1m.32-.43c-1-.74-2.8-.33-4.22,1s-2,3.4-1.1,4.38a1.3,1.3,0,0,0,.22.19c1,.74,2.8.33,4.22-1s2-3.39,1.1-4.38l-.22-.19Z"/><path class="cls-1" d="M342.71,90c1.09.93,1.07,2.07,1,3.79a20.86,20.86,0,0,0,.12,3.07c.32,2.27-.08,4.08-1.06,4.82a1.64,1.64,0,0,1-1.71.18,2,2,0,0,1-.44-.27,5.53,5.53,0,0,1-1.29-2.1,7,7,0,0,0-1.88-2.86l-.07-.05-.06-.06a7,7,0,0,0-3.18-1.2,5.44,5.44,0,0,1-2.32-.81,2.22,2.22,0,0,1-.37-.38,1.66,1.66,0,0,1-.19-1.71c.51-1.12,2.19-1.89,4.48-2.07a18.7,18.7,0,0,0,3-.54c1.67-.41,2.78-.67,3.92.19m.43-.53c-2.11-1.61-4.14-.06-7.42.2-4.81.38-6.09,3-4.79,4.86a2.65,2.65,0,0,0,.49.51c1.44,1.15,3.91.73,5.5,2l.06.05h0l.05,0c1.6,1.28,1.72,3.8,3.16,5a3,3,0,0,0,.6.36c2.05.88,4.37-.93,3.71-5.72-.45-3.26.63-5.57-1.39-7.29Z"/><path class="cls-1" d="M337.48,80.31h0a4.47,4.47,0,0,1,1.23,3.61,5.3,5.3,0,0,1-.88,2.78,1.93,1.93,0,0,1-1.54.94,1.36,1.36,0,0,1-.81-.33,4.47,4.47,0,0,1-1.23-3.61,5.3,5.3,0,0,1,.88-2.78,1.93,1.93,0,0,1,1.54-.94,1.42,1.42,0,0,1,.81.33m.43-.53a2.13,2.13,0,0,0-1.21-.48c-1.61-.07-3,1.88-3.13,4.37a5.12,5.12,0,0,0,1.49,4.17,2,2,0,0,0,1.2.48c1.61.08,3-1.88,3.13-4.37a5.15,5.15,0,0,0-1.48-4.17Z"/><path class="cls-1" d="M353.31,93a1.48,1.48,0,0,1,.51.73c.31,1.17-1.11,2.62-3.12,3.16a4.45,4.45,0,0,1-3.78-.42,1.36,1.36,0,0,1-.5-.73c-.32-1.17,1.11-2.61,3.11-3.16a4.48,4.48,0,0,1,3.78.42m.42-.53a5.1,5.1,0,0,0-4.37-.54c-2.41.65-4,2.44-3.6,4A2.16,2.16,0,0,0,346.5,97a5.09,5.09,0,0,0,4.38.54c2.4-.65,4-2.43,3.59-4a2,2,0,0,0-.74-1.09Z"/><path class="cls-1" d="M346.48,78.65h0c1,.77.93,2.79-.06,4.6a5.67,5.67,0,0,1-2.13,2.25,2.09,2.09,0,0,1-1.93.18.8.8,0,0,1-.19-.13c-1-.76-.94-2.78.06-4.59a5.54,5.54,0,0,1,2.13-2.25,2.07,2.07,0,0,1,1.92-.18,1.32,1.32,0,0,1,.2.12m.42-.53a2.9,2.9,0,0,0-.29-.19c-1.49-.81-3.72.4-5,2.7s-1.1,4.48.12,5.45a1.49,1.49,0,0,0,.29.2c1.48.81,3.71-.4,5-2.7,1.18-2.15,1.1-4.49-.11-5.46Z"/><path class="cls-1" d="M353,83.9a1.45,1.45,0,0,1,.18.17c.85,1,.16,3-1.51,4.48s-3.51,1.81-4.47,1l-.17-.17a2.07,2.07,0,0,1-.24-1.91A5.57,5.57,0,0,1,348.53,85c1.55-1.35,3.52-1.81,4.47-1m.43-.53c-1.21-1-3.51-.54-5.35,1.07s-2.68,4.16-1.57,5.44a3.07,3.07,0,0,0,.26.25c1.21,1,3.51.54,5.35-1.07s2.68-4.16,1.57-5.44a3.07,3.07,0,0,0-.26-.25Z"/><path class="cls-1" d="M271.19,190.82c2.2.65,2.91,2.34,4,4.88a31.52,31.52,0,0,0,2.18,4.43c1.95,3.14,2.55,6,1.6,7.78a2.64,2.64,0,0,1-2.4,1.37,3.23,3.23,0,0,1-.82-.1,8.8,8.8,0,0,1-3.27-2.24,11.39,11.39,0,0,0-4.62-3l-.13,0-.14,0a11.36,11.36,0,0,0-5.46.31,8.82,8.82,0,0,1-3.93.33,2.79,2.79,0,0,1-.78-.32,2.66,2.66,0,0,1-1.41-2.38c0-2,2-4.21,5.23-6a31,31,0,0,0,4.08-2.77c2.19-1.69,3.64-2.8,5.89-2.28m.27-1.06c-4.14-1-6.11,2.63-10.76,5.15-6.81,3.71-6.95,8.44-3.85,10.25a4.41,4.41,0,0,0,1.06.44c2.85.75,6.2-1.48,9.38-.65l.12,0h.06l.09,0c3.2.84,5,4.46,7.9,5.21a3.65,3.65,0,0,0,1.1.14c3.59,0,5.82-4.23,1.72-10.82-2.79-4.49-2.73-8.59-6.82-9.79Z"/><path class="cls-1" d="M257.16,180h0c1.63.42,3.26,2.19,4.16,4.49a8.58,8.58,0,0,1,.53,4.66,3.13,3.13,0,0,1-1.64,2.38,2.27,2.27,0,0,1-1.42,0c-1.63-.43-3.26-2.19-4.16-4.49a8.61,8.61,0,0,1-.53-4.67,3.16,3.16,0,0,1,1.64-2.38,2.28,2.28,0,0,1,1.42,0m.27-1.06a3.35,3.35,0,0,0-2.08.09c-2.41.93-3.18,4.72-1.73,8.45,1,2.71,3,4.65,4.9,5.15a3.35,3.35,0,0,0,2.08-.08c2.41-.94,3.18-4.72,1.73-8.46-1.05-2.71-3-4.65-4.9-5.15Z"/><path class="cls-1" d="M288.72,188.32a2.27,2.27,0,0,1,1.22.75c1.23,1.5.08,4.56-2.51,6.67-1.91,1.55-4.19,2.28-5.82,1.85a2.23,2.23,0,0,1-1.23-.74c-1.22-1.51-.07-4.56,2.52-6.67,1.9-1.55,4.19-2.28,5.82-1.86m.27-1c-1.9-.5-4.53.23-6.78,2.06-3.11,2.53-4.3,6.21-2.67,8.21a3.38,3.38,0,0,0,1.79,1.11c1.9.49,4.54-.24,6.78-2.07,3.11-2.53,4.3-6.2,2.67-8.2a3.34,3.34,0,0,0-1.79-1.11Z"/><path class="cls-1" d="M269.28,171.67h0c1.91.5,3.19,3.48,2.92,6.79a9,9,0,0,1-1.66,4.7,3.37,3.37,0,0,1-2.71,1.52,2.25,2.25,0,0,1-.36-.06c-1.91-.5-3.2-3.48-2.93-6.79a9,9,0,0,1,1.66-4.7,3.38,3.38,0,0,1,2.71-1.52,2.38,2.38,0,0,1,.37.06m.27-1a3.33,3.33,0,0,0-.55-.1c-2.72-.22-5.2,3-5.54,7.22-.32,3.92,1.32,7.3,3.73,7.93a3.53,3.53,0,0,0,.55.1c2.72.22,5.2-3,5.54-7.22.33-3.92-1.31-7.3-3.73-7.93Z"/><path class="cls-1" d="M282.29,175.11a2.6,2.6,0,0,1,.36.13c1.89.88,2.22,4.34.72,7.57-1.39,3-4,5-5.88,4.46l-.36-.13a3.38,3.38,0,0,1-1.6-2.66,8.94,8.94,0,0,1,.88-4.91c1.39-3,4-5,5.88-4.46m.27-1.05c-2.41-.63-5.49,1.5-7.14,5.05-1.78,3.83-1.22,7.87,1.25,9a3.58,3.58,0,0,0,.55.19c2.41.63,5.49-1.5,7.14-5.06,1.78-3.83,1.22-7.86-1.25-9a2.76,2.76,0,0,0-.55-.19Z"/><path class="cls-1" d="M129.05,217.28c1.5,1.54,1.31,3.23,1,5.8a28.17,28.17,0,0,0-.24,4.59c.17,3.45-.67,6.09-2.23,7.07a2.49,2.49,0,0,1-2.58,0,3.18,3.18,0,0,1-.63-.46,8.22,8.22,0,0,1-1.64-3.31,10.55,10.55,0,0,0-2.42-4.53l-.09-.08-.1-.1a10.62,10.62,0,0,0-4.58-2.22,8.23,8.23,0,0,1-3.36-1.52,3.26,3.26,0,0,1-.49-.62,2.45,2.45,0,0,1-.06-2.58c.92-1.59,3.53-2.52,7-2.49a27.88,27.88,0,0,0,4.58-.4c2.55-.37,4.24-.62,5.83.82m.71-.73c-2.93-2.69-6.18-.65-11.11-.7-7.24-.08-9.51,3.72-7.8,6.6a3.6,3.6,0,0,0,.66.83c2,1.91,5.73,1.62,7.94,3.75l.08.07,0,0,0,0,.06.06c2.23,2.13,2.06,5.91,4.06,7.84a3.78,3.78,0,0,0,.84.61c2.95,1.6,6.66-.8,6.32-8-.23-4.93,1.69-8.25-1.1-11.08Z"/><path class="cls-1" d="M122.55,202.07h0c1.13,1.09,1.66,3.27,1.34,5.56a7.86,7.86,0,0,1-1.69,4,2.9,2.9,0,0,1-2.41,1.19,2.08,2.08,0,0,1-1.18-.61c-1.13-1.09-1.66-3.27-1.34-5.55a7.86,7.86,0,0,1,1.69-4,2.9,2.9,0,0,1,2.41-1.19,2.16,2.16,0,0,1,1.18.6m.7-.73a3.09,3.09,0,0,0-1.74-.88c-2.38-.33-4.73,2.4-5.25,6.1-.38,2.69.32,5.16,1.65,6.43a3.09,3.09,0,0,0,1.74.88c2.38.33,4.73-2.4,5.25-6.1.38-2.69-.32-5.16-1.65-6.43Z"/><path class="cls-1" d="M144.47,223.22a2.12,2.12,0,0,1,.66,1.16c.32,1.79-2,3.76-5.08,4.3-2.26.4-4.45-.05-5.59-1.14a2.18,2.18,0,0,1-.66-1.16c-.31-1.78,2-3.75,5.09-4.29,2.26-.4,4.45,0,5.58,1.13m.71-.73c-1.33-1.27-3.81-1.87-6.47-1.4-3.68.65-6.33,3.09-5.91,5.47a3.17,3.17,0,0,0,1,1.72c1.32,1.27,3.8,1.87,6.46,1.4,3.69-.65,6.33-3.1,5.91-5.47a3.08,3.08,0,0,0-.95-1.72Z"/><path class="cls-1" d="M136.21,200.81h0c1.33,1.28,1,4.29-.71,6.86a8.35,8.35,0,0,1-3.49,3.07,3.13,3.13,0,0,1-2.9,0,2.88,2.88,0,0,1-.27-.22c-1.33-1.28-1-4.29.71-6.86A8.32,8.32,0,0,1,133,200.6a3.15,3.15,0,0,1,2.89,0l.28.22m.7-.73a3.29,3.29,0,0,0-.41-.33c-2.11-1.42-5.6.09-7.8,3.36-2,3-2.24,6.55-.56,8.16a2.69,2.69,0,0,0,.41.33c2.11,1.42,5.6-.09,7.79-3.36,2-3.05,2.25-6.55.57-8.16Z"/><path class="cls-1" d="M145.25,209.53a2,2,0,0,1,.23.27c1.14,1.57-.16,4.55-2.85,6.5-2.5,1.81-5.5,2.23-6.82,1a2.09,2.09,0,0,1-.24-.28,3.12,3.12,0,0,1-.09-2.89,8.42,8.42,0,0,1,2.94-3.6c2.5-1.81,5.5-2.23,6.83-1m.7-.73c-1.68-1.61-5.16-1.28-8.12.87-3.2,2.31-4.57,5.85-3.08,7.91a2.3,2.3,0,0,0,.35.41c1.68,1.61,5.16,1.28,8.13-.87,3.19-2.31,4.57-5.86,3.07-7.92a2.64,2.64,0,0,0-.35-.4Z"/><path class="cls-1" d="M322.79,174.74c2.16.23,3.11,1.67,4.54,3.84a27.58,27.58,0,0,0,2.78,3.73c2.34,2.58,3.39,5.17,2.81,6.94a2.5,2.5,0,0,1-2,1.69,2.9,2.9,0,0,1-.78,0,8.24,8.24,0,0,1-3.41-1.51,10.65,10.65,0,0,0-4.8-2h-.26a10.65,10.65,0,0,0-5,1.22,8.33,8.33,0,0,1-3.59,1,2.94,2.94,0,0,1-.78-.17,2.47,2.47,0,0,1-1.71-2c-.31-1.84,1.11-4.25,3.82-6.44a28.55,28.55,0,0,0,3.31-3.27c1.74-1.94,2.89-3.22,5.06-3.12m.08-1c-4-.19-5.22,3.48-9.1,6.62-5.68,4.61-5,9-1.81,10.17a3.58,3.58,0,0,0,1.05.22c2.78.2,5.51-2.43,8.6-2.21h.26c3.11.23,5.41,3.28,8.21,3.48a3.77,3.77,0,0,0,1.05-.07c3.32-.65,4.66-4.91-.26-10.32-3.36-3.68-4-7.5-8-7.91Z"/><path class="cls-1" d="M307.93,167.1h0c1.58.12,3.4,1.47,4.62,3.45a8,8,0,0,1,1.29,4.24,2.91,2.91,0,0,1-1.11,2.48,2.06,2.06,0,0,1-1.3.29c-1.59-.12-3.4-1.47-4.63-3.45a8,8,0,0,1-1.29-4.23,3,3,0,0,1,1.11-2.49,2.18,2.18,0,0,1,1.31-.29m.07-1a3.18,3.18,0,0,0-1.92.44c-2.07,1.28-2.14,4.92-.15,8.13,1.44,2.33,3.57,3.8,5.42,3.93a3.14,3.14,0,0,0,1.92-.43c2.07-1.28,2.14-4.92.16-8.14-1.45-2.33-3.58-3.8-5.43-3.93Z"/><path class="cls-1" d="M338.62,169.42a2.18,2.18,0,0,1,1.26.48c1.39,1.18.85,4.21-1.19,6.61-1.5,1.77-3.49,2.84-5.07,2.72a2.06,2.06,0,0,1-1.27-.48c-1.39-1.18-.85-4.21,1.19-6.61,1.5-1.77,3.49-2.84,5.08-2.72m.07-1c-1.85-.13-4.16,1-5.93,3.08-2.45,2.88-2.93,6.49-1.07,8.07a3.18,3.18,0,0,0,1.85.72c1.85.13,4.16-1,5.93-3.08,2.45-2.88,2.93-6.49,1.07-8.06a3.19,3.19,0,0,0-1.85-.73Z"/><path class="cls-1" d="M317.74,157.32h0c1.85.13,3.56,2.68,3.87,5.79a8.59,8.59,0,0,1-.73,4.64,3.16,3.16,0,0,1-2.25,1.87,1.37,1.37,0,0,1-.35,0c-1.86-.14-3.56-2.68-3.88-5.79a8.5,8.5,0,0,1,.74-4.64,3.15,3.15,0,0,1,2.24-1.88h.36m.07-1a3.15,3.15,0,0,0-.53,0c-2.55.26-4.3,3.68-3.9,7.64.38,3.69,2.48,6.54,4.82,6.71a3.13,3.13,0,0,0,.53,0c2.56-.26,4.3-3.68,3.9-7.65-.37-3.68-2.47-6.54-4.82-6.71Z"/><path class="cls-1" d="M330.39,158.27a2.25,2.25,0,0,1,.36.06c1.9.49,2.8,3.64,2,6.89-.78,3-2.84,5.28-4.69,5.15l-.36-.06a3.17,3.17,0,0,1-1.94-2.2,8.46,8.46,0,0,1,0-4.69c.78-3,2.84-5.28,4.69-5.15m.08-1c-2.35-.17-4.84,2.33-5.76,5.91-1,3.86.22,7.5,2.7,8.14a2.54,2.54,0,0,0,.54.09c2.35.17,4.84-2.33,5.76-5.92,1-3.85-.22-7.5-2.71-8.14a3.08,3.08,0,0,0-.53-.08Z"/><path class="cls-1" d="M155.84,264.47c.93.72,1,1.65,1,3.06a16,16,0,0,0,.24,2.5c.35,1.85.11,3.34-.66,4a1.36,1.36,0,0,1-1.39.22,1.65,1.65,0,0,1-.37-.2,4.49,4.49,0,0,1-1.15-1.66,5.77,5.77,0,0,0-1.67-2.26l0,0-.06,0a5.9,5.9,0,0,0-2.66-.85,4.67,4.67,0,0,1-1.93-.55,1.77,1.77,0,0,1-.31-.3,1.33,1.33,0,0,1-.24-1.39c.37-.94,1.71-1.64,3.58-1.89a16.41,16.41,0,0,0,2.45-.58c1.34-.41,2.24-.67,3.21,0m.33-.45c-1.8-1.22-3.39.14-6.07.5-3.92.52-4.85,2.75-3.7,4.18a2,2,0,0,0,.43.4c1.22.87,3.22.42,4.59,1.4l0,0h0l0,0c1.37,1,1.58,3,2.81,3.92a2.06,2.06,0,0,0,.51.27c1.71.63,3.53-1,2.78-4.84-.51-2.65.27-4.6-1.46-5.91Z"/><path class="cls-1" d="M151.13,256.76h0a3.63,3.63,0,0,1,1.16,2.9,4.24,4.24,0,0,1-.59,2.31,1.58,1.58,0,0,1-1.22.84,1.15,1.15,0,0,1-.68-.24,3.6,3.6,0,0,1-1.16-2.89,4.28,4.28,0,0,1,.59-2.32,1.59,1.59,0,0,1,1.22-.83,1.07,1.07,0,0,1,.68.23m.32-.45a1.71,1.71,0,0,0-1-.34c-1.31,0-2.37,1.67-2.36,3.71a4.18,4.18,0,0,0,1.4,3.35,1.73,1.73,0,0,0,1,.34c1.31,0,2.37-1.67,2.36-3.72a4.16,4.16,0,0,0-1.4-3.34Z"/><path class="cls-1" d="M164.65,266.47a1.16,1.16,0,0,1,.44.58c.31.94-.79,2.19-2.41,2.72a3.67,3.67,0,0,1-3.11-.17,1.16,1.16,0,0,1-.44-.58c-.31-.94.79-2.19,2.41-2.72a3.67,3.67,0,0,1,3.11.17M165,266a4.21,4.21,0,0,0-3.61-.25c-1.94.64-3.17,2.17-2.76,3.42a1.67,1.67,0,0,0,.65.86,4.21,4.21,0,0,0,3.61.25c1.94-.64,3.17-2.17,2.76-3.42A1.67,1.67,0,0,0,165,266Z"/><path class="cls-1" d="M158.42,255h0c.81.59.88,2.24.15,3.77a4.67,4.67,0,0,1-1.64,1.94,1.73,1.73,0,0,1-1.57.23l-.16-.1c-.82-.58-.89-2.24-.16-3.76a4.56,4.56,0,0,1,1.65-1.94,1.71,1.71,0,0,1,1.56-.23,1.4,1.4,0,0,1,.17.09m.32-.45a2,2,0,0,0-.25-.14c-1.25-.6-3,.48-4,2.43s-.7,3.71.33,4.45a1.28,1.28,0,0,0,.25.15c1.25.6,3-.49,3.95-2.43s.7-3.72-.33-4.46Z"/><path class="cls-1" d="M164,259l.15.13c.74.76.27,2.47-1,3.73s-2.8,1.64-3.62,1.06l-.15-.13a1.72,1.72,0,0,1-.27-1.56,4.54,4.54,0,0,1,1.31-2.18c1.2-1.17,2.79-1.63,3.61-1.05m.32-.45c-1-.74-2.89-.29-4.32,1.11s-2,3.52-1.05,4.52a2.11,2.11,0,0,0,.23.19c1,.74,2.89.29,4.32-1.11s2-3.52,1-4.52a1.37,1.37,0,0,0-.23-.19Z"/><path class="cls-1" d="M210.5,26.61c2.25-.64,3.77.41,6.08,2a30.22,30.22,0,0,0,4.27,2.59c3.38,1.62,5.47,3.77,5.61,5.77a2.7,2.7,0,0,1-1.3,2.48,3.15,3.15,0,0,1-.76.37,9,9,0,0,1-4-.13,11.52,11.52,0,0,0-5.57,0l-.13,0-.14,0A11.45,11.45,0,0,0,210.06,43a9,9,0,0,1-3.17,2.43,3.1,3.1,0,0,1-.85.15,2.7,2.7,0,0,1-2.5-1.27c-1-1.7-.6-4.67,1.21-8a30.27,30.27,0,0,0,2-4.59c1-2.63,1.59-4.38,3.78-5.16m-.33-1.05c-4.08,1.43-3.8,5.58-6.39,10.27-3.79,6.88-1.33,11,2.31,10.85a3.9,3.9,0,0,0,1.14-.2c2.85-.92,4.49-4.65,7.66-5.67l.11,0h.07l.09,0c3.19-1,6.72,1.07,9.58.15a4.77,4.77,0,0,0,1-.49c3.05-2,2.66-6.78-4.43-10.17-4.84-2.32-7-5.86-11.16-4.65Z"/><path class="cls-1" d="M192.62,25h0c1.62-.53,4,.09,6,1.56a8.58,8.58,0,0,1,3,3.7,3.13,3.13,0,0,1-.1,2.92,2.26,2.26,0,0,1-1.18.81c-1.63.53-4-.09-6-1.56a8.6,8.6,0,0,1-3-3.7,3.16,3.16,0,0,1,.11-2.92,2.21,2.21,0,0,1,1.18-.81M192.28,24a3.39,3.39,0,0,0-1.74,1.21c-1.54,2.11-.14,5.76,3.14,8.16,2.38,1.74,5.09,2.34,7,1.72a3.36,3.36,0,0,0,1.73-1.21c1.55-2.11.15-5.76-3.13-8.16-2.38-1.74-5.09-2.34-7-1.72Z"/><path class="cls-1" d="M224.11,14.92a2.26,2.26,0,0,1,1.45,0c1.87.62,2.56,3.85,1.5,7.07-.78,2.36-2.34,4.23-4,4.76a2.4,2.4,0,0,1-1.45,0c-1.87-.62-2.55-3.86-1.49-7.07.78-2.37,2.33-4.23,4-4.76m-.34-1.05c-1.89.61-3.74,2.67-4.66,5.46-1.27,3.86-.29,7.65,2.2,8.47a3.45,3.45,0,0,0,2.13,0c1.89-.62,3.75-2.68,4.67-5.47,1.27-3.85.28-7.64-2.2-8.46a3.41,3.41,0,0,0-2.14,0Z"/><path class="cls-1" d="M198.43,11.31h0c1.91-.62,4.63,1.23,6.2,4.2a9,9,0,0,1,1.14,4.91,3.39,3.39,0,0,1-1.47,2.78,2.63,2.63,0,0,1-.35.15c-1.91.61-4.63-1.23-6.2-4.2a9.15,9.15,0,0,1-1.15-4.92,3.41,3.41,0,0,1,1.48-2.78,1.51,1.51,0,0,1,.35-.14m-.34-1.06a3.43,3.43,0,0,0-.52.23c-2.44,1.29-2.8,5.4-.8,9.18,1.86,3.52,5.11,5.52,7.52,4.74a3.38,3.38,0,0,0,.52-.22c2.44-1.29,2.8-5.41.8-9.19-1.87-3.52-5.11-5.51-7.52-4.74Z"/><path class="cls-1" d="M211.42,7.14a1.61,1.61,0,0,1,.38-.08c2.09-.29,4.26,2.49,4.74,6.06.45,3.32-.69,6.41-2.59,7a2.34,2.34,0,0,1-.38.09,3.41,3.41,0,0,1-2.81-1.4,9.09,9.09,0,0,1-1.93-4.67c-.45-3.32.69-6.4,2.59-7m-.34-1c-2.4.78-3.88,4.28-3.35,8.22.58,4.24,3.26,7.38,6,7a2.63,2.63,0,0,0,.57-.13c2.4-.78,3.88-4.28,3.35-8.22-.57-4.24-3.25-7.38-6-7a3.63,3.63,0,0,0-.57.13Z"/><path class="cls-1" d="M219.34,212.6c2,.28,2.8,1.62,4,3.66a26.1,26.1,0,0,0,2.44,3.49c2.07,2.43,3,4.83,2.38,6.44a2.28,2.28,0,0,1-1.87,1.48,2.47,2.47,0,0,1-.72,0,7.44,7.44,0,0,1-3.08-1.48,9.85,9.85,0,0,0-4.33-1.94h-.12l-.12,0a10,10,0,0,0-4.62,1,7.66,7.66,0,0,1-3.32.8,2.41,2.41,0,0,1-.7-.18,2.25,2.25,0,0,1-1.51-1.85c-.24-1.69,1.14-3.85,3.68-5.78a25.8,25.8,0,0,0,3.13-2.89c1.65-1.73,2.74-2.87,4.72-2.72m.1-.93c-3.66-.3-4.88,3-8.52,5.79-5.33,4.06-4.83,8.12-1.95,9.26a3.36,3.36,0,0,0,1,.23c2.53.27,5.11-2.07,7.93-1.77h.24c2.84.29,4.86,3.15,7.41,3.42a3.52,3.52,0,0,0,1,0c3.06-.5,4.41-4.36.06-9.46-3-3.47-3.45-7-7.1-7.47Z"/><path class="cls-1" d="M206,205.18h0c1.45.15,3.07,1.45,4.13,3.3a7.27,7.27,0,0,1,1.06,3.91,2.7,2.7,0,0,1-1.09,2.24,1.92,1.92,0,0,1-1.2.23c-1.45-.15-3.07-1.45-4.14-3.3a7.36,7.36,0,0,1-1.06-3.91,2.73,2.73,0,0,1,1.09-2.24,2,2,0,0,1,1.21-.23m.09-.93a2.86,2.86,0,0,0-1.76.34c-1.94,1.11-2.11,4.44-.38,7.44,1.25,2.18,3.16,3.59,4.85,3.76a2.89,2.89,0,0,0,1.77-.34c1.93-1.11,2.1-4.44.38-7.44-1.26-2.18-3.16-3.59-4.86-3.76Z"/><path class="cls-1" d="M234,208.2a1.9,1.9,0,0,1,1.14.47c1.24,1.13.66,3.89-1.28,6-1.43,1.58-3.28,2.5-4.73,2.35a2,2,0,0,1-1.14-.48c-1.24-1.13-.66-3.89,1.28-6,1.42-1.58,3.28-2.5,4.73-2.34m.09-.94c-1.68-.18-3.84.79-5.52,2.64-2.32,2.57-2.86,5.86-1.21,7.36A2.93,2.93,0,0,0,229,218c1.69.18,3.85-.79,5.53-2.64,2.32-2.57,2.86-5.86,1.21-7.36a2.94,2.94,0,0,0-1.68-.71Z"/><path class="cls-1" d="M215.22,196.51h0c1.7.17,3.18,2.55,3.38,5.41a7.79,7.79,0,0,1-.81,4.23,2.88,2.88,0,0,1-2.11,1.65h-.32c-1.7-.18-3.18-2.56-3.38-5.42a7.79,7.79,0,0,1,.81-4.23,2.9,2.9,0,0,1,2.11-1.65,1.13,1.13,0,0,1,.32,0m.1-.94a2.66,2.66,0,0,0-.49,0c-2.34.16-4,3.25-3.79,6.89.24,3.38,2.08,6.06,4.22,6.28a2.66,2.66,0,0,0,.49,0c2.34-.16,4-3.24,3.79-6.88-.24-3.39-2.08-6.07-4.22-6.29Z"/><path class="cls-1" d="M226.78,197.75a1.91,1.91,0,0,1,.33.06c1.72.5,2.46,3.42,1.6,6.37-.8,2.74-2.75,4.75-4.44,4.57a1.91,1.91,0,0,1-.33-.06,2.89,2.89,0,0,1-1.71-2.06,7.76,7.76,0,0,1,.11-4.31c.8-2.74,2.75-4.75,4.44-4.57m.1-.94c-2.14-.22-4.5,2-5.45,5.25-1,3.5,0,6.88,2.25,7.53a2.66,2.66,0,0,0,.49.1c2.14.22,4.49-2,5.44-5.25,1-3.5,0-6.87-2.24-7.53a2.84,2.84,0,0,0-.49-.1Z"/><path class="cls-1" d="M353.77,255.54c2,1,2.46,2.73,3.11,5.37a29.13,29.13,0,0,0,1.42,4.64c1.4,3.35,1.53,6.27.33,7.81a2.61,2.61,0,0,1-2.54,1,3,3,0,0,1-.78-.23,8.66,8.66,0,0,1-2.83-2.68,11.2,11.2,0,0,0-4-3.62l-.13-.05-.13-.06a11.35,11.35,0,0,0-5.34-.55,8.66,8.66,0,0,1-3.88-.29,2.92,2.92,0,0,1-.7-.43,2.6,2.6,0,0,1-1-2.54c.34-1.91,2.59-3.78,6-5a30.89,30.89,0,0,0,4.4-2.06c2.39-1.29,4-2.15,6.07-1.29m.43-1c-3.87-1.6-6.35,1.59-11.26,3.32-7.2,2.53-8.07,7.11-5.35,9.35a4.44,4.44,0,0,0,1,.59c2.66,1.17,6.26-.46,9.22.84l.11,0h0l0,0,.08,0c3,1.32,4.18,5.12,6.85,6.3a4.07,4.07,0,0,0,1.06.31c3.49.52,6.31-3.2,3.36-10.24-2-4.8-1.3-8.78-5.09-10.58Z"/><path class="cls-1" d="M341.83,242.82h0c1.52.67,2.83,2.64,3.34,5a8.35,8.35,0,0,1-.21,4.61,3.11,3.11,0,0,1-2,2.05,2.18,2.18,0,0,1-1.38-.17c-1.52-.67-2.83-2.64-3.34-5a8.25,8.25,0,0,1,.22-4.61,3.07,3.07,0,0,1,2-2,2.17,2.17,0,0,1,1.38.17m.44-1a3.29,3.29,0,0,0-2-.24c-2.49.53-3.83,4.08-3,7.94.6,2.8,2.18,5,4,5.77a3.26,3.26,0,0,0,2,.24c2.49-.53,3.83-4.08,3-7.94-.6-2.8-2.18-5-4-5.77Z"/><path class="cls-1" d="M371.19,255.86a2.31,2.31,0,0,1,1.07.91c1,1.66-.64,4.45-3.49,6.09-2.09,1.21-4.42,1.56-5.94.89a2.21,2.21,0,0,1-1.07-.91c-1-1.65.64-4.44,3.48-6.09,2.1-1.21,4.43-1.56,5.95-.89m.43-1c-1.77-.78-4.44-.48-6.91.94-3.42,2-5.15,5.36-3.88,7.56a3.33,3.33,0,0,0,1.57,1.36c1.77.78,4.44.48,6.91-.95,3.41-2,5.15-5.35,3.88-7.55a3.32,3.32,0,0,0-1.57-1.36Z"/><path class="cls-1" d="M354.91,236.64h0c1.78.79,2.56,3.88,1.78,7.05a8.92,8.92,0,0,1-2.35,4.31,3.31,3.31,0,0,1-2.87,1.05l-.35-.11c-1.78-.79-2.56-3.89-1.77-7.06a8.77,8.77,0,0,1,2.35-4.3,3.31,3.31,0,0,1,2.86-1.06,2.06,2.06,0,0,1,.35.12m.43-1a4.56,4.56,0,0,0-.52-.18c-2.6-.64-5.52,2.11-6.51,6.15-.93,3.75.13,7.29,2.38,8.29a3.16,3.16,0,0,0,.52.17c2.61.65,5.52-2.1,6.52-6.14.92-3.75-.14-7.3-2.39-8.29Z"/><path class="cls-1" d="M367,242a1.74,1.74,0,0,1,.33.18c1.7,1.15,1.48,4.57-.48,7.46-1.82,2.7-4.64,4.2-6.41,3.42a1.35,1.35,0,0,1-.33-.19,3.27,3.27,0,0,1-1.14-2.83,8.85,8.85,0,0,1,1.62-4.63c1.82-2.69,4.64-4.19,6.41-3.41m.43-1c-2.24-1-5.57.59-7.73,3.79-2.33,3.45-2.41,7.45-.19,8.95a3.05,3.05,0,0,0,.5.28c2.24,1,5.57-.6,7.73-3.8,2.33-3.44,2.41-7.45.19-8.95a3,3,0,0,0-.5-.27Z"/><path class="cls-1" d="M15.16,257c1.18-.59,2.14-.16,3.58.49a17.89,17.89,0,0,0,2.64,1c2,.55,3.42,1.54,3.7,2.64a1.51,1.51,0,0,1-.46,1.51,2.14,2.14,0,0,1-.39.28,5,5,0,0,1-2.24.34,6.55,6.55,0,0,0-3.1.55l-.07,0-.07,0a6.55,6.55,0,0,0-2.16,2.26,5,5,0,0,1-1.52,1.67,1.44,1.44,0,0,1-.45.17,1.5,1.5,0,0,1-1.52-.44c-.76-.84-.81-2.54-.14-4.55a17.11,17.11,0,0,0,.63-2.75c.26-1.56.43-2.59,1.57-3.25m-.29-.55c-2.12,1.21-1.54,3.48-2.5,6.36-1.41,4.21.38,6.24,2.39,5.79a2.48,2.48,0,0,0,.61-.23c1.49-.8,2-3,3.68-3.93l.06,0h0l.05,0c1.66-.9,3.84-.09,5.34-.89a3,3,0,0,0,.52-.38c1.48-1.42.78-4-3.51-5.2-2.92-.79-4.49-2.54-6.67-1.44Z"/><path class="cls-1" d="M5.06,258h0a4.06,4.06,0,0,1,3.49.26,4.79,4.79,0,0,1,2,1.74,1.79,1.79,0,0,1,.25,1.64,1.33,1.33,0,0,1-.58.57,4.06,4.06,0,0,1-3.49-.26,4.85,4.85,0,0,1-2-1.74,1.79,1.79,0,0,1-.25-1.64,1.28,1.28,0,0,1,.58-.57m-.3-.55a1.92,1.92,0,0,0-.84.85c-.64,1.33.51,3.22,2.58,4.21a4.68,4.68,0,0,0,4.06.25,2,2,0,0,0,.84-.85c.64-1.33-.51-3.22-2.57-4.22a4.7,4.7,0,0,0-4.07-.24Z"/><path class="cls-1" d="M21.53,249.13a1.3,1.3,0,0,1,.8-.16c1.1.15,1.82,1.88,1.55,3.77a4.09,4.09,0,0,1-1.71,3,1.31,1.31,0,0,1-.8.17c-1.1-.16-1.81-1.88-1.55-3.78a4.11,4.11,0,0,1,1.71-3.05m-.3-.55a4.72,4.72,0,0,0-2,3.52c-.31,2.27.62,4.27,2.08,4.47a1.93,1.93,0,0,0,1.19-.23,4.69,4.69,0,0,0,2-3.51c.32-2.27-.62-4.28-2.08-4.48a1.93,1.93,0,0,0-1.19.23Z"/><path class="cls-1" d="M6.89,249.74h0c1-.53,2.7.22,3.87,1.71a5.11,5.11,0,0,1,1.14,2.61,1.93,1.93,0,0,1-.54,1.7.78.78,0,0,1-.18.11c-1,.54-2.69-.21-3.87-1.7a5.2,5.2,0,0,1-1.14-2.61,1.93,1.93,0,0,1,.54-1.7l.18-.12m-.3-.54-.27.17c-1.22,1-1,3.29.5,5.19s3.4,2.54,4.66,1.86l.27-.17c1.22-1,1-3.29-.5-5.19s-3.4-2.54-4.66-1.86Z"/><path class="cls-1" d="M13.68,246.11a.88.88,0,0,1,.2-.09c1.14-.37,2.63.95,3.26,2.89s.27,3.63-.72,4.16a1.89,1.89,0,0,1-.21.09,1.91,1.91,0,0,1-1.7-.49,5.14,5.14,0,0,1-1.55-2.4c-.59-1.8-.27-3.63.72-4.16m-.29-.55c-1.26.67-1.72,2.77-1,4.9.75,2.3,2.56,3.77,4,3.29a1.6,1.6,0,0,0,.3-.13c1.26-.68,1.72-2.77,1-4.91-.75-2.3-2.56-3.77-4-3.28a1,1,0,0,0-.3.13Z"/><path class="cls-1" d="M43.54,187c1.39,0,2.07.87,3.11,2.17a18.07,18.07,0,0,0,2,2.2c1.64,1.5,2.46,3.08,2.2,4.24a1.63,1.63,0,0,1-1.16,1.19,2.15,2.15,0,0,1-.5.07,5.14,5.14,0,0,1-2.25-.76,6.93,6.93,0,0,0-3.16-1h-.17a7,7,0,0,0-3.1,1.07,5.2,5.2,0,0,1-2.22.84,1.49,1.49,0,0,1-.51-.06,1.59,1.59,0,0,1-1.2-1.14c-.3-1.15.46-2.76,2-4.31a18.72,18.72,0,0,0,1.9-2.27c1-1.33,1.65-2.22,3-2.28m0-.66c-2.56.11-3.11,2.52-5.38,4.74-3.33,3.26-2.64,6-.55,6.56a2.68,2.68,0,0,0,.68.08c1.78,0,3.35-1.87,5.32-1.91h.17c2,0,3.63,1.76,5.42,1.73a2.53,2.53,0,0,0,.66-.11c2.07-.61,2.67-3.39-.78-6.53-2.35-2.14-3-4.53-5.54-4.55Z"/><path class="cls-1" d="M33.66,183.06h0A4.29,4.29,0,0,1,36.8,185a5,5,0,0,1,1.07,2.61,1.88,1.88,0,0,1-.56,1.64,1.42,1.42,0,0,1-.81.26,4.29,4.29,0,0,1-3.14-1.92A5,5,0,0,1,32.29,185a1.88,1.88,0,0,1,.56-1.64,1.35,1.35,0,0,1,.81-.26m0-.65a1.94,1.94,0,0,0-1.19.38c-1.24.94-1.07,3.25.38,5.18a4.9,4.9,0,0,0,3.67,2.17,2,2,0,0,0,1.19-.39c1.24-.93,1.07-3.25-.38-5.17a4.9,4.9,0,0,0-3.67-2.17Z"/><path class="cls-1" d="M53.27,182.72a1.35,1.35,0,0,1,.83.23c1,.67.79,2.62-.36,4.27a4.3,4.3,0,0,1-3.06,2,1.31,1.31,0,0,1-.83-.23c-1-.67-.79-2.62.36-4.27a4.3,4.3,0,0,1,3.06-2m0-.66a5,5,0,0,0-3.59,2.31c-1.38,2-1.47,4.29-.2,5.18a2.13,2.13,0,0,0,1.22.35,4.94,4.94,0,0,0,3.58-2.31c1.39-2,1.48-4.29.21-5.18a2.13,2.13,0,0,0-1.22-.35Z"/><path class="cls-1" d="M39.31,176.27h0c1.18,0,2.41,1.49,2.8,3.45a5.45,5.45,0,0,1-.19,3A2,2,0,0,1,40.6,184l-.22,0c-1.19,0-2.42-1.49-2.8-3.45a5.36,5.36,0,0,1,.19-3,2,2,0,0,1,1.32-1.33l.22,0m0-.65a1.84,1.84,0,0,0-.33,0c-1.61.32-2.51,2.59-2,5.08.45,2.32,2,4,3.45,4l.34,0c1.6-.31,2.51-2.59,2-5.08-.45-2.32-2-4-3.46-4Z"/><path class="cls-1" d="M47.39,176.13a.86.86,0,0,1,.23,0c1.24.19,2,2.14,1.66,4.25-.31,2-1.49,3.52-2.67,3.54h-.23A2,2,0,0,1,45,182.65a5.4,5.4,0,0,1-.3-3c.32-2,1.49-3.52,2.67-3.54m0-.66c-1.5,0-2.93,1.77-3.3,4.1-.41,2.5.58,4.74,2.19,5l.35,0c1.5,0,2.93-1.77,3.31-4.1.4-2.5-.59-4.74-2.2-5a2.07,2.07,0,0,0-.35,0Z"/><path class="cls-1" d="M368.83,12.08c1.25.52,1.57,1.55,2,3.11a17.6,17.6,0,0,0,1,2.73c.95,2,1.12,3.7.46,4.66a1.53,1.53,0,0,1-1.49.66,1.6,1.6,0,0,1-.48-.11,5.12,5.12,0,0,1-1.78-1.51,6.8,6.8,0,0,0-2.53-2l-.08,0-.08,0a6.8,6.8,0,0,0-3.22-.15,5.12,5.12,0,0,1-2.32,0,1.7,1.7,0,0,1-.44-.24,1.55,1.55,0,0,1-.68-1.48c.13-1.16,1.42-2.35,3.43-3.19a18.89,18.89,0,0,0,2.57-1.37c1.38-.86,2.3-1.42,3.59-1m.22-.61c-2.37-.82-3.75,1.17-6.63,2.37-4.22,1.76-4.59,4.53-2.88,5.78a2.42,2.42,0,0,0,.59.32c1.63.61,3.73-.49,5.55.19l.06,0h.09c1.83.69,2.67,2.93,4.32,3.54a2.22,2.22,0,0,0,.64.15c2.11.2,3.67-2.12,1.67-6.24-1.37-2.81-1.08-5.21-3.41-6.17Z"/><path class="cls-1" d="M361.26,4.86h0a4.22,4.22,0,0,1,2.16,2.89,5,5,0,0,1,0,2.77,1.86,1.86,0,0,1-1.11,1.3,1.33,1.33,0,0,1-.83-.06,4.18,4.18,0,0,1-2.17-2.89,5,5,0,0,1,0-2.77,1.9,1.9,0,0,1,1.11-1.3,1.37,1.37,0,0,1,.84.06m.22-.6a2,2,0,0,0-1.23-.08c-1.47.41-2.15,2.58-1.53,4.86a4.8,4.8,0,0,0,2.56,3.32,1.93,1.93,0,0,0,1.23.08C364,12,364.67,9.86,364,7.58a4.83,4.83,0,0,0-2.56-3.32Z"/><path class="cls-1" d="M379.27,11.68a1.37,1.37,0,0,1,.67.52c.63,1-.23,2.68-1.88,3.76a4.25,4.25,0,0,1-3.53.73,1.3,1.3,0,0,1-.67-.51c-.63-1,.23-2.68,1.88-3.76a4.25,4.25,0,0,1,3.53-.74m.22-.6a4.85,4.85,0,0,0-4.1.8c-2,1.3-2.91,3.38-2.07,4.65a2,2,0,0,0,1,.76,4.85,4.85,0,0,0,4.11-.79c2-1.3,2.9-3.38,2.07-4.66a2,2,0,0,0-1-.76Z"/><path class="cls-1" d="M368.88.72h0c1.09.41,1.66,2.24,1.3,4.17a5.27,5.27,0,0,1-1.27,2.65,2,2,0,0,1-1.68.73.83.83,0,0,1-.21-.06c-1.09-.41-1.66-2.24-1.3-4.16A5.34,5.34,0,0,1,367,1.39a2,2,0,0,1,1.68-.73l.22.06m.22-.6a1.68,1.68,0,0,0-.32-.09c-1.58-.29-3.23,1.45-3.69,3.9-.43,2.28.33,4.37,1.71,4.88a1.68,1.68,0,0,0,.32.09c1.57.3,3.23-1.45,3.69-3.89.43-2.28-.33-4.37-1.71-4.89Z"/><path class="cls-1" d="M376.3,3.54l.21.09c1.05.63,1,2.69,0,4.49s-2.64,2.67-3.73,2.26l-.2-.1a2,2,0,0,1-.78-1.66,5.27,5.27,0,0,1,.82-2.82c1-1.68,2.63-2.67,3.72-2.26m.23-.61c-1.38-.51-3.32.55-4.5,2.54-1.28,2.14-1.2,4.54.18,5.36a1.77,1.77,0,0,0,.31.15c1.37.52,3.32-.54,4.5-2.53s1.2-4.54-.18-5.37a1.77,1.77,0,0,0-.31-.15Z"/><path class="cls-1" d="M130.75,170.88c1.4,0,2.14.78,3.26,2a18.54,18.54,0,0,0,2.13,2.12c1.75,1.42,2.67,3,2.46,4.16a1.61,1.61,0,0,1-1.11,1.27,2,2,0,0,1-.49.11,5.38,5.38,0,0,1-2.33-.65,7.13,7.13,0,0,0-3.25-.8h-.17a6.94,6.94,0,0,0-3.08,1.26,5.53,5.53,0,0,1-2.2,1,2.15,2.15,0,0,1-.51,0,1.63,1.63,0,0,1-1.29-1.1c-.37-1.14.31-2.81,1.83-4.47a17.8,17.8,0,0,0,1.81-2.41c.93-1.4,1.54-2.33,2.94-2.48m-.05-.66c-2.59.26-3,2.72-5.19,5.1-3.19,3.48-2.33,6.24-.18,6.67a2.29,2.29,0,0,0,.69,0c1.79-.14,3.28-2.08,5.28-2.23h.17c2-.15,3.77,1.57,5.58,1.44a2.6,2.6,0,0,0,.66-.14c2.06-.74,2.52-3.59-1.15-6.57-2.5-2-3.27-4.42-5.86-4.3Z"/><path class="cls-1" d="M120.52,167.42h0a4.35,4.35,0,0,1,3.28,1.77,5.13,5.13,0,0,1,1.23,2.58,1.9,1.9,0,0,1-.47,1.69,1.34,1.34,0,0,1-.81.31,4.37,4.37,0,0,1-3.28-1.76,5.2,5.2,0,0,1-1.23-2.59,1.9,1.9,0,0,1,.47-1.69,1.46,1.46,0,0,1,.81-.31m0-.66a2,2,0,0,0-1.18.46c-1.21,1-.9,3.35.67,5.21a5,5,0,0,0,3.84,2A2,2,0,0,0,125,174c1.2-1,.9-3.35-.68-5.21a5,5,0,0,0-3.84-2Z"/><path class="cls-1" d="M140.35,166a1.38,1.38,0,0,1,.85.18c1,.63,1,2.62-.12,4.35a4.39,4.39,0,0,1-3,2.22,1.4,1.4,0,0,1-.85-.19c-1-.62-1-2.61.13-4.34a4.38,4.38,0,0,1,3-2.22m0-.66a5,5,0,0,0-3.5,2.53c-1.29,2.07-1.25,4.42.09,5.25a2.07,2.07,0,0,0,1.25.29,5,5,0,0,0,3.5-2.53c1.29-2.08,1.25-4.43-.09-5.26a2,2,0,0,0-1.25-.28Z"/><path class="cls-1" d="M125.86,160.23h0c1.2-.09,2.53,1.38,3,3.33a5.48,5.48,0,0,1,0,3A2,2,0,0,1,127.6,168l-.22,0c-1.2.09-2.53-1.37-3-3.33a5.39,5.39,0,0,1,0-3,2.05,2.05,0,0,1,1.25-1.41l.23,0m0-.66a1.86,1.86,0,0,0-.34.06c-1.61.4-2.4,2.76-1.77,5.25.59,2.32,2.21,4,3.73,3.83l.33-.05c1.61-.41,2.4-2.77,1.77-5.26-.59-2.32-2.21-3.94-3.72-3.83Z"/><path class="cls-1" d="M134,159.64h.24c1.26.13,2.14,2.06,1.91,4.22-.21,2-1.31,3.64-2.5,3.73h-.24a2.07,2.07,0,0,1-1.45-1.22,5.5,5.5,0,0,1-.46-3c.21-2,1.31-3.64,2.5-3.73M134,159c-1.51.11-2.87,2-3.11,4.32-.27,2.56.85,4.78,2.5,4.95h.36c1.51-.11,2.87-1.95,3.11-4.32.27-2.56-.85-4.78-2.5-5Z"/><path class="cls-1" d="M220.12,77.82c1.23,1.21,1.11,2.58.92,4.64a21.79,21.79,0,0,0-.12,3.7c.18,2.77-.45,4.9-1.69,5.72a2,2,0,0,1-2.08.06,2.49,2.49,0,0,1-.51-.36A6.55,6.55,0,0,1,215.27,89a8.55,8.55,0,0,0-2-3.61l-.08-.07-.07-.07a8.68,8.68,0,0,0-3.73-1.72,6.6,6.6,0,0,1-2.72-1.17,1.91,1.91,0,0,1-.4-.49,2,2,0,0,1-.09-2.07c.72-1.3,2.8-2.09,5.57-2.11a22.47,22.47,0,0,0,3.68-.39c2.05-.34,3.4-.57,4.7.57m.56-.6c-2.4-2.12-5-.43-9-.4-5.82.05-7.58,3.14-6.17,5.43a3,3,0,0,0,.55.66c1.63,1.51,4.63,1.22,6.44,2.89l.07.06,0,0v0l.06,0c1.82,1.69,1.74,4.73,3.38,6.24a2.83,2.83,0,0,0,.69.48c2.39,1.25,5.34-.74,4.95-6.55-.26-4,1.23-6.66-1-8.89Z"/><path class="cls-1" d="M214.66,65.69h0a5.36,5.36,0,0,1,1.17,4.44,6.43,6.43,0,0,1-1.3,3.28,2.37,2.37,0,0,1-1.93,1,1.78,1.78,0,0,1-.95-.47,5.39,5.39,0,0,1-1.17-4.45,6.39,6.39,0,0,1,1.3-3.27,2.37,2.37,0,0,1,1.93-1,1.68,1.68,0,0,1,.95.47m.55-.6a2.43,2.43,0,0,0-1.41-.68c-1.92-.23-3.77,2-4.13,5a6.14,6.14,0,0,0,1.43,5.14,2.56,2.56,0,0,0,1.41.68c1.92.23,3.77-2,4.13-5a6.12,6.12,0,0,0-1.43-5.14Z"/><path class="cls-1" d="M232.61,82.36a1.68,1.68,0,0,1,.55.92c.28,1.43-1.56,3-4,3.53a5.4,5.4,0,0,1-4.51-.82,1.74,1.74,0,0,1-.55-.93c-.28-1.43,1.56-3,4-3.53a5.4,5.4,0,0,1,4.51.83m.55-.6a6.14,6.14,0,0,0-5.22-1c-2.95.58-5,2.59-4.66,4.49a2.53,2.53,0,0,0,.79,1.37,6.19,6.19,0,0,0,5.22,1c3-.58,5-2.59,4.67-4.49a2.45,2.45,0,0,0-.8-1.37Z"/><path class="cls-1" d="M225.62,64.47h0c1.09,1,.89,3.43-.46,5.52a6.81,6.81,0,0,1-2.76,2.53,2.52,2.52,0,0,1-2.33,0,1.84,1.84,0,0,1-.22-.17c-1.09-1-.89-3.43.46-5.53a6.78,6.78,0,0,1,2.76-2.52,2.5,2.5,0,0,1,2.33,0,1.18,1.18,0,0,1,.22.17m.56-.6a2.78,2.78,0,0,0-.34-.26c-1.72-1.11-4.5.16-6.22,2.82-1.59,2.48-1.7,5.3-.33,6.57a2.78,2.78,0,0,0,.34.26c1.72,1.1,4.5-.16,6.22-2.82,1.59-2.48,1.7-5.3.33-6.57Z"/><path class="cls-1" d="M233,71.34l.2.21c.94,1.25-.07,3.66-2.2,5.27s-4.38,1.88-5.47.88a2,2,0,0,1-.19-.22,2.52,2.52,0,0,1-.12-2.33,6.74,6.74,0,0,1,2.31-2.93c2-1.5,4.39-1.88,5.47-.88m.56-.6c-1.38-1.27-4.17-.95-6.52.82-2.53,1.91-3.59,4.78-2.35,6.41a1.81,1.81,0,0,0,.29.33c1.37,1.26,4.17.94,6.51-.83,2.54-1.91,3.59-4.78,2.36-6.41-.09-.11-.19-.22-.29-.32Z"/><path class="cls-1" d="M172,69.85c2.36.67,3.13,2.46,4.29,5.16a33.2,33.2,0,0,0,2.36,4.69c2.11,3.32,2.77,6.41,1.78,8.26a2.84,2.84,0,0,1-2.54,1.49,3.71,3.71,0,0,1-.88-.1,9.31,9.31,0,0,1-3.5-2.35,12.17,12.17,0,0,0-4.95-3.13l-.14,0-.15,0a12.24,12.24,0,0,0-5.8.38,9.46,9.46,0,0,1-4.18.4,3.37,3.37,0,0,1-.83-.34,2.8,2.8,0,0,1-1.52-2.52c0-2.1,2.07-4.5,5.51-6.4a33.23,33.23,0,0,0,4.32-3c2.31-1.81,3.84-3,6.23-2.48m.29-1.13c-4.42-1-6.48,2.85-11.41,5.58-7.21,4-7.31,9-4,11a4.52,4.52,0,0,0,1.13.45c3.05.77,6.59-1.63,10-.78l.12,0h.08l.09,0c3.41.86,5.38,4.7,8.45,5.47a4.15,4.15,0,0,0,1.18.14c3.82-.08,6.14-4.56,1.72-11.53-3-4.75-3-9.12-7.34-10.36Z"/><path class="cls-1" d="M156.94,58.45h0c1.74.44,3.49,2.3,4.46,4.74a9,9,0,0,1,.61,5,3.35,3.35,0,0,1-1.72,2.55,2.41,2.41,0,0,1-1.51.06c-1.74-.44-3.49-2.3-4.47-4.74a9,9,0,0,1-.6-5,3.37,3.37,0,0,1,1.72-2.55,2.48,2.48,0,0,1,1.51-.06m.28-1.12a3.57,3.57,0,0,0-2.22.11c-2.55,1-3.34,5.05-1.76,9,1.14,2.88,3.23,4.92,5.26,5.43a3.57,3.57,0,0,0,2.22-.1c2.55-1,3.34-5.06,1.76-9-1.15-2.87-3.23-4.92-5.26-5.43Z"/><path class="cls-1" d="M190.6,67a2.38,2.38,0,0,1,1.3.78c1.32,1.59.13,4.85-2.61,7.12-2,1.67-4.44,2.47-6.17,2a2.38,2.38,0,0,1-1.31-.78c-1.32-1.59-.13-4.85,2.61-7.12,2-1.67,4.44-2.47,6.18-2m.28-1.12c-2-.51-4.82.29-7.2,2.26-3.28,2.72-4.52,6.64-2.76,8.75a3.54,3.54,0,0,0,1.91,1.17c2,.51,4.83-.29,7.2-2.26,3.28-2.72,4.52-6.64,2.77-8.76a3.59,3.59,0,0,0-1.92-1.16Z"/><path class="cls-1" d="M169.75,49.49h0c2,.52,3.44,3.68,3.18,7.2a9.59,9.59,0,0,1-1.73,5,3.54,3.54,0,0,1-2.86,1.65l-.39-.06c-2-.52-3.43-3.68-3.18-7.2a9.59,9.59,0,0,1,1.73-5,3.54,3.54,0,0,1,2.86-1.65,2.44,2.44,0,0,1,.39.06m.29-1.12a3.83,3.83,0,0,0-.59-.1c-2.89-.21-5.5,3.25-5.83,7.73-.31,4.18,1.47,7.76,4,8.41a4,4,0,0,0,.59.1c2.89.21,5.5-3.25,5.83-7.74.31-4.17-1.47-7.75-4-8.4Z"/><path class="cls-1" d="M183.63,53a2.23,2.23,0,0,1,.39.13c2,.92,2.4,4.6.84,8.05-1.45,3.2-4.19,5.31-6.22,4.8a2.43,2.43,0,0,1-.38-.13,3.57,3.57,0,0,1-1.73-2.82,9.52,9.52,0,0,1,.89-5.23c1.45-3.2,4.18-5.31,6.21-4.8m.29-1.13c-2.57-.64-5.84,1.65-7.56,5.45-1.86,4.1-1.22,8.38,1.42,9.58a3.1,3.1,0,0,0,.58.21c2.57.64,5.83-1.65,7.56-5.45,1.85-4.1,1.22-8.39-1.42-9.58a3.1,3.1,0,0,0-.58-.21Z"/><path class="cls-1" d="M213,261.15c1.75-.18,2.74.8,4.23,2.28a23.6,23.6,0,0,0,2.83,2.49c2.29,1.64,3.55,3.51,3.39,5a2,2,0,0,1-1.29,1.66,2,2,0,0,1-.61.17,6.72,6.72,0,0,1-3-.62,8.69,8.69,0,0,0-4.12-.75l-.11,0h-.1a8.65,8.65,0,0,0-3.75,1.81,6.68,6.68,0,0,1-2.68,1.38,2.29,2.29,0,0,1-.64,0,2,2,0,0,1-1.68-1.26c-.56-1.4.17-3.55,1.94-5.73a23.62,23.62,0,0,0,2.06-3.15c1.05-1.82,1.75-3,3.48-3.32m-.11-.82c-3.21.52-3.54,3.63-6.08,6.76-3.72,4.6-2.43,8,.28,8.35a3.62,3.62,0,0,0,.87,0c2.23-.31,3.94-2.86,6.42-3.2h.21c2.5-.34,4.83,1.68,7.08,1.37a3.12,3.12,0,0,0,.82-.22c2.51-1.08,2.86-4.67-1.95-8.12-3.27-2.35-4.42-5.26-7.65-4.91Z"/><path class="cls-1" d="M200,257.62h0a5.42,5.42,0,0,1,4.23,1.95A6.41,6.41,0,0,1,206,262.7a2.37,2.37,0,0,1-.47,2.15,1.75,1.75,0,0,1-1,.45,5.45,5.45,0,0,1-4.24-2,6.48,6.48,0,0,1-1.73-3.12,2.42,2.42,0,0,1,.46-2.16,1.68,1.68,0,0,1,1-.44m-.12-.83a2.57,2.57,0,0,0-1.44.67c-1.42,1.36-.87,4.25,1.24,6.46a6.28,6.28,0,0,0,5,2.2,2.61,2.61,0,0,0,1.44-.67c1.42-1.36.86-4.25-1.25-6.46a6.25,6.25,0,0,0-5-2.2Z"/><path class="cls-1" d="M224.66,254.29a1.68,1.68,0,0,1,1.08.17c1.3.7,1.38,3.19.17,5.43a5.44,5.44,0,0,1-3.55,3,1.68,1.68,0,0,1-1.08-.17c-1.31-.7-1.39-3.19-.18-5.43a5.45,5.45,0,0,1,3.56-3m-.11-.82a6.22,6.22,0,0,0-4.18,3.43c-1.45,2.68-1.22,5.62.51,6.55a2.54,2.54,0,0,0,1.59.26,6.22,6.22,0,0,0,4.17-3.43c1.45-2.69,1.22-5.62-.51-6.55a2.52,2.52,0,0,0-1.58-.26Z"/><path class="cls-1" d="M206.12,248.23h0c1.49-.21,3.26,1.52,4,3.93a6.81,6.81,0,0,1,.2,3.79,2.53,2.53,0,0,1-1.46,1.86l-.27.06c-1.5.21-3.27-1.52-4-3.92a6.85,6.85,0,0,1-.2-3.8,2.54,2.54,0,0,1,1.46-1.86,1.27,1.27,0,0,1,.28-.06m-.12-.82a2.71,2.71,0,0,0-.41.09c-2,.64-2.79,3.63-1.8,6.7.91,2.85,3.05,4.76,4.94,4.5a2.13,2.13,0,0,0,.42-.1c2-.63,2.78-3.63,1.79-6.7-.91-2.85-3.05-4.75-4.94-4.49Z"/><path class="cls-1" d="M216.28,246.86a1.51,1.51,0,0,1,.3,0c1.58.07,2.82,2.41,2.71,5.12-.11,2.52-1.36,4.65-2.84,4.86a1.51,1.51,0,0,1-.3,0,2.57,2.57,0,0,1-1.9-1.41,6.86,6.86,0,0,1-.81-3.71c.11-2.51,1.35-4.65,2.84-4.85m-.11-.83c-1.88.26-3.43,2.66-3.56,5.65-.13,3.22,1.44,5.89,3.51,6a2.13,2.13,0,0,0,.44,0c1.88-.26,3.43-2.66,3.56-5.64.13-3.22-1.44-5.9-3.51-6a3.17,3.17,0,0,0-.44,0Z"/><path class="cls-1" d="M51,76.57c2-.39,3.21.63,5.08,2.17a26.44,26.44,0,0,0,3.48,2.54c2.79,1.64,4.43,3.65,4.4,5.38a2.3,2.3,0,0,1-1.3,2,2.52,2.52,0,0,1-.68.26,7.66,7.66,0,0,1-3.44-.41,10,10,0,0,0-4.79-.42l-.12,0-.12,0a10.1,10.1,0,0,0-4.1,2.46,7.72,7.72,0,0,1-2.91,1.86,3.09,3.09,0,0,1-.74.07,2.35,2.35,0,0,1-2.06-1.28c-.78-1.54-.17-4.07,1.63-6.75a26.66,26.66,0,0,0,2-3.81c1-2.2,1.69-3.65,3.64-4.16m-.22-.93c-3.61.93-3.67,4.52-6.25,8.37-3.77,5.64-1.95,9.37,1.19,9.51a4.06,4.06,0,0,0,1-.09c2.52-.59,4.21-3.67,7-4.32l.11,0h.13c2.82-.66,5.7,1.41,8.24.83a3.49,3.49,0,0,0,.91-.35c2.77-1.49,2.79-5.64-3.06-9.08-4-2.35-5.61-5.56-9.27-4.82Z"/><path class="cls-1" d="M35.67,73.88h0c1.44-.34,3.42.37,5,1.79A7.43,7.43,0,0,1,43,79.07a2.76,2.76,0,0,1-.31,2.51,2,2,0,0,1-1.07.61c-1.44.33-3.43-.37-5-1.79A7.4,7.4,0,0,1,34.29,77a2.75,2.75,0,0,1,.3-2.51,2,2,0,0,1,1.08-.61M35.46,73a2.9,2.9,0,0,0-1.58.91c-1.49,1.7-.55,5,2.09,7.26,1.92,1.67,4.21,2.39,5.89,2a3,3,0,0,0,1.58-.91c1.49-1.71.55-5-2.09-7.26-1.92-1.68-4.21-2.39-5.89-2Z"/><path class="cls-1" d="M63.52,67.51a2,2,0,0,1,1.25.08c1.57.67,1.92,3.51.77,6.19-.85,2-2.32,3.48-3.76,3.81a2,2,0,0,1-1.25-.08c-1.56-.67-1.91-3.51-.76-6.19.84-2,2.32-3.48,3.75-3.81m-.21-.93c-1.68.39-3.42,2-4.42,4.36-1.38,3.22-.81,6.56,1.27,7.45a3,3,0,0,0,1.84.13c1.67-.39,3.42-2,4.41-4.36,1.38-3.22.82-6.56-1.26-7.45a3,3,0,0,0-1.84-.13Z"/><path class="cls-1" d="M41.69,62.51h0c1.68-.39,3.89,1.4,5,4.07a7.81,7.81,0,0,1,.62,4.32,2.93,2.93,0,0,1-1.47,2.28l-.32.1c-1.68.39-3.89-1.4-5-4.08a7.79,7.79,0,0,1-.62-4.31,2.91,2.91,0,0,1,1.48-2.28,1.12,1.12,0,0,1,.31-.1m-.22-.93a2.14,2.14,0,0,0-.47.15c-2.19.93-2.8,4.44-1.36,7.85,1.34,3.16,4,5.12,6.12,4.63a2.6,2.6,0,0,0,.47-.16c2.19-.93,2.8-4.44,1.36-7.84-1.34-3.17-4-5.13-6.12-4.63Z"/><path class="cls-1" d="M53.17,59.88a1.86,1.86,0,0,1,.33,0c1.82-.09,3.49,2.46,3.64,5.57.14,2.89-1.07,5.46-2.75,5.85a1.86,1.86,0,0,1-.33,0,2.91,2.91,0,0,1-2.32-1.41,7.9,7.9,0,0,1-1.32-4.16c-.14-2.89,1.07-5.46,2.75-5.85M53,59c-2.13.49-3.65,3.4-3.49,6.83.18,3.69,2.26,6.59,4.64,6.47a2.15,2.15,0,0,0,.5-.07c2.12-.49,3.65-3.39,3.48-6.82-.18-3.69-2.25-6.59-4.63-6.48A2.74,2.74,0,0,0,53,59Z"/><path class="cls-1" d="M176.39,235c1.53,0,2.28,1,3.42,2.41a21.13,21.13,0,0,0,2.19,2.43c1.81,1.66,2.71,3.41,2.42,4.69a1.77,1.77,0,0,1-1.29,1.31,2,2,0,0,1-.54.08,5.77,5.77,0,0,1-2.49-.85,7.69,7.69,0,0,0-3.49-1.07h-.19a7.62,7.62,0,0,0-3.43,1.17,5.72,5.72,0,0,1-2.45.92A2,2,0,0,1,170,246a1.76,1.76,0,0,1-1.33-1.27c-.34-1.27.51-3,2.27-4.76a20,20,0,0,0,2.11-2.5c1.1-1.47,1.82-2.44,3.35-2.51m0-.72c-2.83.11-3.44,2.77-5.95,5.22-3.69,3.59-2.93,6.64-.63,7.24a3.33,3.33,0,0,0,.75.09c2,0,3.71-2.06,5.89-2.1h.18c2.2,0,4,1.95,6,1.91a2.64,2.64,0,0,0,.73-.11c2.29-.67,3-3.74-.84-7.22-2.59-2.37-3.28-5-6.11-5Z"/><path class="cls-1" d="M165.49,230.58h0a4.76,4.76,0,0,1,3.46,2.13,5.63,5.63,0,0,1,1.17,2.88,2.07,2.07,0,0,1-.62,1.82,1.52,1.52,0,0,1-.89.28,4.76,4.76,0,0,1-3.47-2.12,5.66,5.66,0,0,1-1.17-2.89,2.07,2.07,0,0,1,.62-1.81,1.53,1.53,0,0,1,.9-.29m0-.72a2.21,2.21,0,0,0-1.31.43c-1.37,1-1.19,3.59.41,5.71a5.38,5.38,0,0,0,4.05,2.41,2.25,2.25,0,0,0,1.32-.42c1.37-1,1.18-3.59-.41-5.72a5.45,5.45,0,0,0-4.06-2.41Z"/><path class="cls-1" d="M187.14,230.25a1.54,1.54,0,0,1,.92.26c1.05.74.87,2.9-.41,4.71a4.75,4.75,0,0,1-3.39,2.23,1.52,1.52,0,0,1-.91-.25c-1-.75-.87-2.91.41-4.72a4.78,4.78,0,0,1,3.38-2.23m0-.72a5.42,5.42,0,0,0-4,2.54c-1.53,2.17-1.64,4.73-.24,5.72a2.25,2.25,0,0,0,1.35.38,5.44,5.44,0,0,0,4-2.53c1.53-2.17,1.64-4.74.24-5.72a2.25,2.25,0,0,0-1.35-.39Z"/><path class="cls-1" d="M171.74,223.1h0c1.31,0,2.66,1.65,3.08,3.81a5.92,5.92,0,0,1-.22,3.3,2.21,2.21,0,0,1-1.45,1.46,1.9,1.9,0,0,1-.25,0c-1.31,0-2.66-1.66-3.08-3.82a5.94,5.94,0,0,1,.22-3.3,2.2,2.2,0,0,1,1.45-1.45,1.07,1.07,0,0,1,.25,0m0-.72a1.64,1.64,0,0,0-.38,0c-1.77.34-2.77,2.85-2.24,5.6.5,2.56,2.15,4.43,3.81,4.4a2.46,2.46,0,0,0,.37,0c1.77-.34,2.78-2.85,2.24-5.61-.49-2.56-2.15-4.42-3.8-4.39Z"/><path class="cls-1" d="M180.67,223l.25,0c1.37.22,2.2,2.38,1.82,4.71-.35,2.16-1.65,3.88-3,3.9a1.06,1.06,0,0,1-.25,0,2.22,2.22,0,0,1-1.5-1.41,6,6,0,0,1-.32-3.29c.35-2.17,1.65-3.88,3-3.91m0-.72c-1.66,0-3.25,1.94-3.66,4.51-.45,2.77.63,5.25,2.41,5.54a1.7,1.7,0,0,0,.39,0c1.65,0,3.24-1.94,3.66-4.51.44-2.77-.64-5.24-2.42-5.53l-.38,0Z"/><path class="cls-1" d="M352.28,211.52c1.22.37,1.61,1.31,2.2,2.72a17.14,17.14,0,0,0,1.2,2.46c1.08,1.74,1.4,3.35.87,4.31a1.44,1.44,0,0,1-1.33.76,1.74,1.74,0,0,1-.45-.06,4.82,4.82,0,0,1-1.81-1.24,6.35,6.35,0,0,0-2.56-1.66l-.07,0-.08,0a6.28,6.28,0,0,0-3,.16,4.94,4.94,0,0,1-2.18.18,1.78,1.78,0,0,1-.43-.18,1.47,1.47,0,0,1-.77-1.33c0-1.09,1.1-2.33,2.91-3.3a16.24,16.24,0,0,0,2.27-1.53c1.21-.93,2-1.54,3.26-1.25m.16-.58c-2.3-.55-3.4,1.44-6,2.83-3.79,2-3.87,4.67-2.15,5.68a2.09,2.09,0,0,0,.58.24c1.58.42,3.44-.81,5.2-.34l.07,0h.08c1.78.47,2.78,2.48,4.37,2.91a2.11,2.11,0,0,0,.62.07c2,0,3.23-2.33,1-6-1.54-2.5-1.5-4.77-3.76-5.44Z"/><path class="cls-1" d="M344.52,205.49h0a4,4,0,0,1,2.3,2.5,4.63,4.63,0,0,1,.29,2.58,1.74,1.74,0,0,1-.92,1.32,1.22,1.22,0,0,1-.78,0,4,4,0,0,1-2.3-2.5,4.72,4.72,0,0,1-.28-2.58,1.74,1.74,0,0,1,.91-1.32,1.22,1.22,0,0,1,.78,0m.16-.58a1.84,1.84,0,0,0-1.16,0c-1.33.51-1.77,2.61-1,4.68a4.54,4.54,0,0,0,2.7,2.87,1.91,1.91,0,0,0,1.16-.05c1.34-.51,1.77-2.61,1-4.68a4.51,4.51,0,0,0-2.71-2.86Z"/><path class="cls-1" d="M362,210.17a1.29,1.29,0,0,1,.67.42c.68.84,0,2.53-1.4,3.69a4,4,0,0,1-3.23,1,1.33,1.33,0,0,1-.68-.41c-.68-.84,0-2.53,1.41-3.7a4,4,0,0,1,3.23-1m.15-.58a4.54,4.54,0,0,0-3.76,1.13c-1.73,1.4-2.4,3.43-1.5,4.54a1.81,1.81,0,0,0,1,.62,4.56,4.56,0,0,0,3.77-1.13c1.72-1.4,2.39-3.43,1.49-4.54a1.87,1.87,0,0,0-1-.62Z"/><path class="cls-1" d="M351.26,200.9h0c1.06.28,1.76,1.94,1.61,3.77a5,5,0,0,1-.93,2.6,1.86,1.86,0,0,1-1.5.84l-.21,0c-1.06-.28-1.76-1.94-1.61-3.77a5,5,0,0,1,.93-2.6,1.88,1.88,0,0,1,1.51-.84.69.69,0,0,1,.2,0m.16-.58a1.7,1.7,0,0,0-.31-.06c-1.51-.12-2.89,1.66-3.09,4-.18,2.17.72,4.05,2.06,4.4a1,1,0,0,0,.3.05c1.51.13,2.89-1.65,3.09-4,.19-2.17-.72-4.05-2.05-4.4Z"/><path class="cls-1" d="M358.47,202.83l.2.08c1,.49,1.22,2.41.39,4.19s-2.22,2.75-3.27,2.47l-.21-.08a1.86,1.86,0,0,1-.88-1.48,5,5,0,0,1,.5-2.71c.78-1.66,2.21-2.75,3.27-2.47m.15-.58c-1.33-.35-3.05.82-4,2.79-1,2.12-.69,4.36.68,5a1.82,1.82,0,0,0,.3.11c1.34.35,3.05-.82,4-2.79,1-2.12.69-4.36-.67-5a1.63,1.63,0,0,0-.31-.11Z"/><path class="cls-1" d="M402,260.82c1.35-.82,2.53-.4,4.32.22a19.9,19.9,0,0,0,3.25.93c2.49.46,4.24,1.49,4.69,2.77a1.82,1.82,0,0,1-.41,1.86,2.54,2.54,0,0,1-.43.37,6,6,0,0,1-2.64.63,7.74,7.74,0,0,0-3.64,1l-.08.05-.08.05a7.71,7.71,0,0,0-2.35,2.92,6.11,6.11,0,0,1-1.64,2.15,2.14,2.14,0,0,1-.53.25,1.8,1.8,0,0,1-1.85-.39c-1-.92-1.23-2.94-.63-5.4a20.78,20.78,0,0,0,.47-3.35c.15-1.89.25-3.14,1.55-4m-.41-.63c-2.4,1.66-1.48,4.32-2.34,7.84-1.25,5.17,1.09,7.42,3.44,6.68a2.68,2.68,0,0,0,.7-.34c1.7-1.11,2.11-3.83,4-5.06l.07-.05h0l.05,0c1.9-1.24,4.57-.49,6.28-1.61a3,3,0,0,0,.58-.5c1.63-1.84.53-4.9-4.71-5.85-3.56-.65-5.62-2.57-8.11-1.05Z"/><path class="cls-1" d="M390.05,263h0a4.9,4.9,0,0,1,4.2,0,5.87,5.87,0,0,1,2.61,1.87,2.14,2.14,0,0,1,.45,1.93,1.53,1.53,0,0,1-.63.74,4.91,4.91,0,0,1-4.19.05,5.77,5.77,0,0,1-2.61-1.88,2.14,2.14,0,0,1-.46-1.93,1.53,1.53,0,0,1,.63-.74m-.41-.62a2.32,2.32,0,0,0-.92,1.09c-.63,1.66.94,3.79,3.5,4.77a5.58,5.58,0,0,0,4.87-.11A2.28,2.28,0,0,0,398,267c.63-1.65-.93-3.79-3.5-4.77a5.58,5.58,0,0,0-4.87.12Z"/><path class="cls-1" d="M408.81,250.77a1.49,1.49,0,0,1,.94-.28c1.33.07,2.36,2.06,2.24,4.35a4.93,4.93,0,0,1-1.74,3.81,1.61,1.61,0,0,1-.94.28c-1.33-.07-2.35-2.07-2.23-4.35a4.92,4.92,0,0,1,1.73-3.81m-.41-.63a5.66,5.66,0,0,0-2.07,4.4c-.14,2.74,1.17,5,2.94,5.13a2.28,2.28,0,0,0,1.39-.4,5.6,5.6,0,0,0,2.07-4.4c.15-2.74-1.17-5-2.94-5.13a2.36,2.36,0,0,0-1.39.4Z"/><path class="cls-1" d="M391.4,253h0c1.14-.74,3.24,0,4.8,1.64a6.19,6.19,0,0,1,1.62,3,2.32,2.32,0,0,1-.47,2.08,1.56,1.56,0,0,1-.2.16c-1.14.74-3.24,0-4.8-1.64a6.22,6.22,0,0,1-1.62-3,2.32,2.32,0,0,1,.47-2.08c.07,0,.13-.11.2-.15m-.4-.63a2.34,2.34,0,0,0-.31.24c-1.36,1.27-.86,4,1.12,6.14,1.84,2,4.31,2.69,5.75,1.75a2.25,2.25,0,0,0,.3-.24c1.36-1.27.86-4-1.12-6.13s-4.31-2.7-5.74-1.76Z"/><path class="cls-1" d="M399.14,248l.23-.13c1.32-.55,3.23.87,4.18,3.12.88,2.09.69,4.3-.44,5a1.71,1.71,0,0,1-.23.13,2.32,2.32,0,0,1-2.09-.42,6.11,6.11,0,0,1-2.09-2.7c-.88-2.09-.69-4.3.44-5m-.41-.63c-1.43.94-1.76,3.49-.72,6,1.13,2.67,3.44,4.24,5.16,3.51a2.31,2.31,0,0,0,.35-.18c1.43-.94,1.77-3.49.72-6-1.13-2.67-3.44-4.24-5.16-3.51a2.31,2.31,0,0,0-.35.18Z"/><path class="cls-1" d="M249.89,115.42c1.85-.83,3.3-.12,5.48,1a26.41,26.41,0,0,0,4,1.7c3.11,1,5.18,2.58,5.54,4.28a2.35,2.35,0,0,1-.81,2.3,3.1,3.1,0,0,1-.61.41,7.77,7.77,0,0,1-3.47.38,10.09,10.09,0,0,0-4.8.67l-.11.06-.11,0a10.05,10.05,0,0,0-3.47,3.35,7.79,7.79,0,0,1-2.43,2.48,3,3,0,0,1-.71.24,2.32,2.32,0,0,1-2.31-.79c-1.12-1.33-1.1-4,.06-7a26.07,26.07,0,0,0,1.13-4.2c.5-2.38.82-4,2.62-4.9m-.42-.87c-3.33,1.73-2.58,5.27-4.23,9.63-2.42,6.4.21,9.64,3.32,9.07a3.39,3.39,0,0,0,1-.32c2.34-1.14,3.3-4.55,5.9-5.83l.09,0,0,0h0l.07,0c2.62-1.28,5.92.1,8.27-1a3.37,3.37,0,0,0,.82-.55c2.38-2.09,1.46-6.17-5.07-8.21-4.45-1.4-6.77-4.18-10.19-2.63Z"/><path class="cls-1" d="M234.29,116.25h0c1.33-.66,3.44-.42,5.36.61a7.44,7.44,0,0,1,3,2.81,2.76,2.76,0,0,1,.27,2.53,2,2,0,0,1-.92.85c-1.34.65-3.44.41-5.36-.61a7.51,7.51,0,0,1-3-2.81,2.75,2.75,0,0,1-.27-2.54,2,2,0,0,1,.92-.84m-.43-.87a3,3,0,0,0-1.34,1.26c-1.07,2,.59,5,3.7,6.64,2.27,1.21,4.68,1.39,6.24.63a3,3,0,0,0,1.35-1.26c1.07-2-.59-5-3.71-6.64-2.26-1.21-4.68-1.39-6.24-.63Z"/><path class="cls-1" d="M260.17,103.67a2,2,0,0,1,1.25-.21c1.68.3,2.67,3,2.16,5.9-.38,2.14-1.49,3.94-2.83,4.59a2,2,0,0,1-1.24.21c-1.69-.3-2.68-3-2.16-5.91.38-2.13,1.49-3.93,2.82-4.58m-.42-.87a7.22,7.22,0,0,0-3.34,5.29c-.62,3.47.69,6.61,2.93,7a3,3,0,0,0,1.84-.29c1.55-.76,2.89-2.76,3.34-5.28.62-3.47-.69-6.62-2.93-7a3,3,0,0,0-1.84.29Z"/><path class="cls-1" d="M237.6,103.72h0c1.57-.77,4.14.49,5.86,2.86a7.86,7.86,0,0,1,1.59,4.09,2.94,2.94,0,0,1-.93,2.57,1.17,1.17,0,0,1-.28.17c-1.56.77-4.14-.49-5.86-2.85a8,8,0,0,1-1.59-4.1,2.94,2.94,0,0,1,.93-2.57,2.61,2.61,0,0,1,.28-.17m-.42-.86a2.22,2.22,0,0,0-.42.25c-1.95,1.41-1.74,5,.45,8,2,2.81,5.07,4.12,7,3.16a3.78,3.78,0,0,0,.43-.26c1.94-1.41,1.74-5-.45-8-2-2.8-5.08-4.12-7.06-3.15Z"/><path class="cls-1" d="M248.28,98.53a2,2,0,0,1,.31-.12c1.77-.5,4,1.63,4.84,4.64.79,2.81.19,5.6-1.37,6.37a1.66,1.66,0,0,1-.31.12,3,3,0,0,1-2.6-.86,7.9,7.9,0,0,1-2.24-3.78c-.79-2.81-.19-5.6,1.37-6.37m-.42-.86c-2,1-2.81,4.16-1.87,7.49,1,3.58,3.71,6,6,5.3a3.12,3.12,0,0,0,.48-.18c2-1,2.81-4.16,1.86-7.49-1-3.58-3.71-6-6-5.3a2.68,2.68,0,0,0-.47.18Z"/><path class="cls-1" d="M135.4,110.52c1.75,1.69,1.59,3.62,1.35,6.53a33.64,33.64,0,0,0-.12,5.22c.3,3.89-.56,6.91-2.3,8.07a2.78,2.78,0,0,1-2.92.12,3.57,3.57,0,0,1-.72-.5,9.28,9.28,0,0,1-2-3.7,12,12,0,0,0-2.88-5l-.11-.1-.11-.1a12.17,12.17,0,0,0-5.27-2.38,9.24,9.24,0,0,1-3.85-1.6,3.17,3.17,0,0,1-.58-.69,2.8,2.8,0,0,1-.15-2.92c1-1.84,3.92-3,7.82-3a32.2,32.2,0,0,0,5.18-.61c2.88-.51,4.78-.84,6.63.74m.78-.85c-3.41-3-7-.53-12.61-.43-8.2.14-10.65,4.52-8.62,7.73a4.32,4.32,0,0,0,.77.92c2.32,2.1,6.55,1.65,9.12,4l.1.09,0,0,0,0,.07.06c2.59,2.35,2.53,6.63,4.86,8.74a4,4,0,0,0,1,.67c3.38,1.72,7.51-1.12,6.89-9.3-.42-5.58,1.65-9.39-1.6-12.51Z"/><path class="cls-1" d="M127.54,93.51h0c1.32,1.2,2,3.65,1.7,6.24a8.91,8.91,0,0,1-1.78,4.63,3.27,3.27,0,0,1-2.7,1.43,2.42,2.42,0,0,1-1.35-.64c-1.32-1.2-2-3.65-1.7-6.25a8.94,8.94,0,0,1,1.78-4.63,3.32,3.32,0,0,1,2.7-1.43,2.37,2.37,0,0,1,1.35.65m.77-.85a3.49,3.49,0,0,0-2-.94c-2.72-.3-5.29,2.87-5.76,7.08-.33,3.06.54,5.82,2.08,7.22a3.48,3.48,0,0,0,2,.94c2.71.3,5.29-2.87,5.75-7.08.34-3.06-.53-5.83-2.08-7.22Z"/><path class="cls-1" d="M153.06,116.75a2.42,2.42,0,0,1,.78,1.29c.42,2-2.16,4.32-5.61,5-2.55.53-5,.09-6.37-1.1a2.41,2.41,0,0,1-.78-1.3c-.42-2,2.16-4.31,5.61-5,2.55-.53,5.05-.1,6.37,1.1m.77-.85c-1.54-1.4-4.36-2-7.37-1.38-4.15.85-7.06,3.71-6.51,6.39a3.52,3.52,0,0,0,1.14,1.91c1.54,1.4,4.36,2,7.37,1.38,4.15-.85,7.06-3.72,6.51-6.39a3.49,3.49,0,0,0-1.14-1.91Z"/><path class="cls-1" d="M143,91.63h0c1.55,1.41,1.29,4.83-.58,7.8a9.44,9.44,0,0,1-3.85,3.59,3.53,3.53,0,0,1-3.28.11,2.43,2.43,0,0,1-.32-.24c-1.55-1.4-1.29-4.83.58-7.79a9.47,9.47,0,0,1,3.85-3.6,3.56,3.56,0,0,1,3.28-.1l.32.23m.77-.85a4.17,4.17,0,0,0-.47-.36c-2.44-1.53-6.34.28-8.72,4.06-2.22,3.52-2.34,7.49-.38,9.26a2.67,2.67,0,0,0,.47.36c2.44,1.54,6.34-.28,8.73-4.06,2.21-3.51,2.33-7.49.37-9.26Z"/><path class="cls-1" d="M153.49,101.22a2.68,2.68,0,0,1,.28.3c1.34,1.74,0,5.15-3,7.44-2.78,2.14-6.16,2.71-7.7,1.31a2.68,2.68,0,0,1-.28-.3,3.55,3.55,0,0,1-.2-3.27,9.48,9.48,0,0,1,3.22-4.17c2.77-2.14,6.16-2.71,7.7-1.31m.77-.86c-1.95-1.76-5.88-1.27-9.17,1.25-3.54,2.73-5,6.78-3.23,9.07a4.47,4.47,0,0,0,.42.45c1.95,1.77,5.88,1.28,9.17-1.25,3.54-2.73,5-6.78,3.23-9.07a4.47,4.47,0,0,0-.42-.45Z"/></g></g></svg>