<svg xmlns="http://www.w3.org/2000/svg" viewBox="0 0 2849.71 2640.56"><defs><style>.cls-1{fill:#ff3829;}.cls-2{fill:#000072;}.cls-3{opacity:0.3;}.cls-4{opacity:0.55;}.cls-5{fill:#fff;}.cls-6{fill:#0b98f9;}.cls-7{fill:#ff960b;}.cls-8{fill:#ef9f21;}.cls-9{fill:#a09a9a;}.cls-10{fill:#ea5454;}</style></defs><g id="Camada_2" data-name="Camada 2"><g id="Layer_1" data-name="Layer 1"><polygon class="cls-1" points="2597.21 1309.33 2357.07 2616.29 510.12 2616.29 261.78 1264.75 356.49 1181.35 1406.6 256.67 2597.21 1309.33"/><path class="cls-2" d="M2359,2618.62H508.18l-.35-1.91L259.26,1263.87,355,1179.6l1051.65-926,1193.13,1054.9-.23,1.29ZM512.05,2614H2355.13L2594.68,1310.2,1406.59,259.77,264.31,1265.62Z"/><g class="cls-3"><polygon class="cls-2" points="629.16 2616.29 510.12 2616.29 261.78 1264.75 356.49 1181.35 629.16 2616.29"/></g><g class="cls-4"><polygon class="cls-5" points="2565.89 1479.71 2357.07 2616.29 2297.5 2616.29 2514.37 1436.11 2565.89 1479.71"/></g><polygon class="cls-6" points="2833.44 1277.27 2723.98 1421.4 2597.21 1309.33 1406.6 256.67 261.78 1264.75 147.44 1365.41 16.29 1240.5 1406.55 16.29 2833.44 1277.27"/><g class="cls-4"><path class="cls-5" d="M1403.2,259.64h0L261.78,1264.75,147.44,1365.41l-37-35.27,109.51-96.43,1133.45-976.8A36,36,0,0,1,1403.2,259.64Z"/></g><g class="cls-4"><path class="cls-5" d="M2833.44,1277.27,2724,1421.4l27-40.69,19.81-64.66a43.07,43.07,0,0,0-9.33-53.84L1362.8,54.92,16.34,1240.55l-.05,0L1406.55,16.29Z"/></g><g class="cls-3"><path class="cls-2" d="M1402.85,2446.45h-235a14,14,0,1,1,0-27.92h235a14,14,0,1,1,0,27.92Z"/></g><g class="cls-3"><path class="cls-2" d="M1651.51,487.16H1160.69a14,14,0,0,1,0-27.92h490.82a14,14,0,1,1,0,27.92Z"/></g><g class="cls-3"><path class="cls-2" d="M1953.29,754H857.68a14,14,0,1,1,0-27.92H1953.29a14,14,0,1,1,0,27.92Z"/></g><g class="cls-3"><path class="cls-2" d="M2304.66,1064.63H1827.78a14,14,0,1,1,0-27.92h476.88a14,14,0,1,1,0,27.92Z"/></g><g class="cls-3"><path class="cls-2" d="M977.93,1064.63H504.86a14,14,0,1,1,0-27.92H977.93a14,14,0,0,1,0,27.92Z"/></g><g class="cls-3"><path class="cls-2" d="M1939.19,1386a14,14,0,0,1-.42-27.91l650.11-19.46a14,14,0,1,1,.83,27.91L1939.61,1386Z"/></g><g class="cls-3"><path class="cls-2" d="M290.54,1435.36a14,14,0,0,1-.41-27.91l576.52-17.27a14,14,0,1,1,.84,27.91L291,1435.36Z"/></g><g class="cls-3"><path class="cls-2" d="M341.59,1713.2a14,14,0,0,1-.41-27.92l618.27-18.52a14,14,0,0,1,.84,27.91L342,1713.19Z"/></g><g class="cls-3"><path class="cls-2" d="M1863.14,1667.59a14,14,0,0,1-.41-27.92l674.49-20.19a14,14,0,1,1,.83,27.91l-674.48,20.19Z"/></g><g class="cls-3"><path class="cls-2" d="M398.36,2022.08a14,14,0,0,1-.65-27.91L2475.91,1895a14,14,0,1,1,1.33,27.89L399,2022.06Z"/></g><g class="cls-3"><path class="cls-2" d="M446.38,2283.42a14,14,0,0,1-.63-27.91l1991-90.21a14,14,0,1,1,1.06,27.9L447,2283.4Z"/></g><circle class="cls-6" cx="1402.85" cy="1378.09" r="536.44"/><g class="cls-4"><path class="cls-5" d="M1804.65,1733.49a534.07,534.07,0,0,0,105.18-319.07c0-296.27-240.19-536.46-536.46-536.46-159.68,0-303.11,69.81-401.35,180.53,97.73-131.57,254.29-216.83,430.81-216.83,296.31,0,536.45,240.14,536.45,536.41A534.42,534.42,0,0,1,1804.65,1733.49Z"/></g><path class="cls-2" d="M1402.85,1930.82c-304.78,0-552.73-248-552.73-552.73s247.95-552.73,552.73-552.73,552.73,247.95,552.73,552.73S1707.63,1930.82,1402.85,1930.82Zm0-1072.88c-286.81,0-520.15,233.34-520.15,520.15s233.34,520.15,520.15,520.15S1923,1664.9,1923,1378.09,1689.66,857.94,1402.85,857.94Z"/><circle class="cls-2" cx="1402.85" cy="1378.09" r="412.27"/><path class="cls-2" d="M2357.07,2632.57h-1847a16.28,16.28,0,0,1-16-13.34L245.75,1267.7a16.29,16.29,0,1,1,32-5.88L523.69,2600H2343.5l237.71-1293.58a16.29,16.29,0,1,1,32,5.88L2373.09,2619.23A16.28,16.28,0,0,1,2357.07,2632.57Z"/><path class="cls-2" d="M2724,1437.7a16.3,16.3,0,0,1-10.79-4.08L1406.58,278.39,158.22,1377.64a16.3,16.3,0,0,1-22-.43L5.06,1252.3a16.27,16.27,0,0,1,.47-24L1395.79,4.07a16.28,16.28,0,0,1,21.55,0l1426.87,1261a16.28,16.28,0,0,1,2.18,22L2737,1431.26a16.29,16.29,0,0,1-11.36,6.37C2725.05,1437.68,2724.51,1437.7,2724,1437.7ZM1406.6,240.37a16.3,16.3,0,0,1,10.79,4.09L2721.62,1397.59l89.68-118.15L1406.53,38,40.4,1241l107.49,102.36L1395.83,244.44A16.26,16.26,0,0,1,1406.6,240.37Z"/><g class="cls-3"><polygon class="cls-2" points="2565.91 1479.77 1266.54 380 1406.6 256.67 2597.21 1309.46 2565.91 1479.77"/></g><g class="cls-3"><polygon class="cls-2" points="2597.21 1309.47 2565.93 1479.76 2565.89 1479.71 2597.21 1309.47"/></g><path class="cls-7" d="M2464.67,2600.54c-32.72,16.85-72.37,15.78-102.8-4.93a91.18,91.18,0,0,1-8.38-6.47c-15.55-13.36-28.06-33.37-30.62-63.29l6.6-61.76c75.21-20.2,125-70,151.63-146.83q4.89-14,8.7-29.09c7.12-28.11,45-33.92,59.57-8.84C2605.92,2376.6,2604.85,2528.22,2464.67,2600.54Z"/><g class="cls-4"><path class="cls-5" d="M2481.15,2591.28c91-78.88,85.39-204.26,36.3-288.68a31.41,31.41,0,0,0-27.18-15.92c8-26.8,44.81-32,59.1-7.35C2603.59,2372.64,2604.85,2515.93,2481.15,2591.28Z"/></g><path class="cls-2" d="M2416.72,2628.6a113.44,113.44,0,0,1-64-19.52c-27.14-18.5-43.07-46.8-46.09-81.84a16.29,16.29,0,0,1,32.46-2.8c2.21,25.68,12.67,44.55,32,57.72,24.9,17,57.9,18.47,86.13,3.91,52.32-27,87.89-68.35,102.85-119.62,16.59-56.85,7.34-123.74-24.75-178.93-4.91-8.46-13.41-8-15.9-7.63a16.26,16.26,0,0,0-13.79,12.29c-25.5,100.73-83.34,163.87-171.93,187.64a16.29,16.29,0,0,1-8.44-31.47c77.42-20.77,126.09-74.47,148.78-164.16a49,49,0,0,1,40.86-36.56,47.63,47.63,0,0,1,48.59,23.51c36.48,62.77,46.9,139.19,27.85,204.44-17.52,60-58.74,108.27-119.19,139.45A120.91,120.91,0,0,1,2416.72,2628.6Z"/><g class="cls-3"><path class="cls-2" d="M2353.49,2589.14c-15.55-13.36-28.06-33.37-30.62-63.29l6.6-61.76c75.21-20.2,125-70,151.63-146.83h.05S2557.61,2555.4,2353.49,2589.14Z"/></g><path class="cls-8" d="M1348,2464.09c-60.31-88-4.06-191.55-4.06-191.55l90.75,82.09Z"/><path class="cls-2" d="M1347.84,2468l-1.78-2.61c-60.43-88.19-4.77-192.93-4.19-194l1.41-2.6,94.56,85.54Zm-3.23-191.7c-8,16.49-47.31,106.34,3.52,183.83l83.35-105.25Z"/><g class="cls-3"><path class="cls-2" d="M1348,2464.09c-60.31-88-4.06-191.55-4.06-191.55l90.75,82.09Z"/></g><path class="cls-7" d="M2327.05,2556.94a73.45,73.45,0,0,1-71.76,58.4h-781l-39.65-260.71c-1.81-1.4-3.63-2.75-5.44-4.14-150.19-115.79-235.45-284.91-219.48-471.63l55.38-43,53.57-41.56,640,204.07C2209.44,2043.19,2391.69,2252.66,2327.05,2556.94Z"/><g class="cls-4"><path class="cls-5" d="M2327.05,2556.94a73.64,73.64,0,0,1-30.9,45.88c.37-1.3.69-2.65,1-4,64.65-304.27-117.6-513.74-368.4-558.56l-640-204.08-80.33,62.37c.33-6.52.75-13.08,1.31-19.69l109-84.56,640,204.07C2209.44,2043.19,2391.69,2252.66,2327.05,2556.94Z"/></g><path class="cls-5" d="M1220.5,2035.92s82.14-73.29,162.89,33.75,120.53,132.77,120.53,132.77L1716,2401.22s62.62,53.45,95.42,44.78L1783,2480.56l-44.53,63.81-320.1-204.77S1234.38,2169.71,1220.5,2035.92Z"/><path class="cls-7" d="M1744.05,2334.15c-49.42,132.64-117.18,229.95-213,273.09a55.52,55.52,0,0,1-16.56,4.47q-21,2.45-40.17,3.63c-98.29,5.91-158.79-15.17-155.48-81.67,1.48-30.35,16.19-58.27,38.25-79.07,72.74-68.74,129-182.25,172.2-331.18.69-2.37,1.39-4.79,2.09-7.21Z"/><g class="cls-4"><path class="cls-5" d="M1744.05,2334.15c-49.42,132.64-117.18,229.95-213,273.09a55.52,55.52,0,0,1-16.56,4.47q-21,2.45-40.17,3.63c-2.93-11.63-2.23-23.83-.42-34.06,5-.47,10.06-1,15.17-1.63a55,55,0,0,0,16.57-4.47c85.91-38.72,149.3-121,197.14-233.21A25.21,25.21,0,0,1,1744.05,2334.15Z"/></g><path class="cls-7" d="M2331.33,1573.24c-62.74,172.84-154.32,234.14-224.55,211.1a.33.33,0,0,1-.14,0,98.9,98.9,0,0,1-22.76-10.93c0,.18,0,.42,0,.6,6,85.77-12,142.88-49.61,180.25v0c-24.39,24.25-57,40.17-96.57,50.22-65.25,16.57-149.53,17.08-247.12,12.47-48.27-5.07-95.27-12.75-140.23-24h-.09c-187.55-46.82-339.32-154.6-398.61-384.14q-7.53-29-13-60.78l86-264.11,2.88-8.88c-103.83-18.57-122-96.34-45.37-239.68q10.05-18.15,20.19-34.11c58.41-91.78,120.08-127,187.88-57.43,1.35,1.39,2.7,2.79,4,4.28,85.87-60.22,155.81-9.77,217.2,100.85,172.1,12.42,347.51,83.77,472.37,193.88,67.48-43.28,136.59-3.07,169.87,60.5C2363.72,1299.82,2379.4,1438.28,2331.33,1573.24Z"/><g class="cls-4"><path class="cls-5" d="M2034.32,1954.21v0c-24.39,24.25-57,40.17-96.57,50.22,4.09-6.1,11.91-11.87,24.34-17,100.85-41.89,86.75-260.86,86.75-260.86,4.88,23.93,21.08,38.77,35.09,47.38C2089.93,1859.73,2071.92,1916.84,2034.32,1954.21Z"/></g><g class="cls-4"><path class="cls-5" d="M2005.25,1218.38c-119.73-91.4-266.07-124.32-424.77-135.78-36.34-65.48-98.21-143.55-142-156.35,66.23-18.66,122.54,31.65,173.08,122.68,163.91,11.82,330.85,77.11,454.22,178.52-1.17.28-2.29.57-3.38.9C2042.67,1234.14,2021.56,1230.83,2005.25,1218.38Z"/></g><g class="cls-4"><path class="cls-5" d="M1390.26,943.8l-17.59,27.87s-76.23-84.23-170.29,29.56C1260.79,909.45,1322.46,874.27,1390.26,943.8Z"/></g><g class="cls-4"><path class="cls-5" d="M2331.33,1573.24c-61.85,170.52-151.86,232.46-221.67,212,58.18-15.87,121.24-82.74,168.15-212,48.07-135,32.39-273.42-77.58-269.93-19-36.3-49.66-65-85-74.79,56.73-16,110.44,21.09,138.55,74.79C2363.72,1299.82,2379.4,1438.28,2331.33,1573.24Z"/></g><path class="cls-5" d="M2034.32,1954.21v0c-64.6,64.27-186.9,70.09-343.69,62.69-249.78-26.15-465.4-123.61-538.93-408.15,66,99.55,263.55,54.46,263.55,54.46l38-15.69q140.39-51.37,218.73,73.86C1762.85,1872.86,1871.57,1980.27,2034.32,1954.21Z"/><path class="cls-2" d="M1783,2035.68c-29.12,0-60.15-.93-93.11-2.48l-.93-.07c-153.39-16.06-272-56.5-362.54-123.64-107.89-80-176.45-200.68-203.77-358.69a16.34,16.34,0,0,1,.56-7.82l83.35-256c-37.73-10.17-63.62-29.36-77.11-57.2-22.3-46-9.74-112.14,38.4-202.15,47.61-86,93.6-130.48,140.71-136.15,29.93-3.62,59.49,8.39,88.07,35.65,31.7-19.12,63.09-25.27,93.49-18.27,46.49,10.69,89.51,51.43,131.34,124.46,168.81,14.16,340.86,84.44,464.32,189.54,27.54-14.51,57-18.17,85.8-10.54,36.39,9.65,69.41,36.65,91.81,74.74,34.08,1.41,62,15.82,81.09,42,37.77,51.78,38.62,147.42,2.21,249.6-43.24,119.15-104.22,197.24-171.73,220-25.32,8.52-50.33,8.82-73.61,1,.93,72.46-16.75,126.39-53.76,164.3C1993.6,2019.32,1905.21,2035.68,1783,2035.68Zm-91.11-35c157.52,7.38,274.33.08,332.39-59.4,34.67-35.52,48.86-90.07,43.38-166.77a16.29,16.29,0,0,1,25.08-14.85c21.56,13.9,46.39,16.72,71.82,8.16,57.09-19.23,112.29-92.17,151.47-200.12,32.32-90.69,33.17-176.84,2.14-219.38-14.56-19.94-36.08-29.62-63.87-28.71a16.25,16.25,0,0,1-15-8.73c-17.82-34.07-46.27-59.13-76.11-67-23.83-6.31-47.56-2-70.52,12.69a16.26,16.26,0,0,1-19.57-1.49c-121-106.67-294-177.65-462.78-189.88a16.3,16.3,0,0,1-13.06-8.34c-37.93-68.34-76.44-107.43-114.48-116.18-25.08-5.78-51,1-79.11,20.77a16.29,16.29,0,0,1-21.33-2.29c-24.41-26.46-47.28-38-69.92-35.27-35.48,4.27-74.51,44.44-116,119.38-42.17,78.84-54.89,136.91-37.71,172.37,10.91,22.5,34.36,36.7,71.7,43.38a16.29,16.29,0,0,1,12.62,21.08l-87.64,269.15C1204.29,1823.88,1374.86,1967.38,1691.86,2000.68Z"/><path class="cls-2" d="M2072.32,1784.82a245.14,245.14,0,0,1-50.38-82.53c-10.92-30.19-16.21-61.66-18.1-92.82a521.85,521.85,0,0,1,3.3-92.88,890.3,890.3,0,0,1,16.39-90.6,7,7,0,0,1,13.68,2.77l0,.11a875.71,875.71,0,0,0-11.52,89.46,502.24,502.24,0,0,0,1.35,89.16c3.28,29.31,9.76,58.1,20.92,84.6a214.68,214.68,0,0,0,47.51,69.79l.12.12a16.3,16.3,0,0,1-22.69,23.4Z"/><path class="cls-2" d="M2270,1302c1.72,39.79.48,79.77-4.8,119.21a554.2,554.2,0,0,1-28,115.41,7,7,0,0,1-13.3-4.24A536,536,0,0,0,2242,1419c2-38.18.17-76.43-4.49-114.31v0a16.3,16.3,0,0,1,32.36-4C2269.93,1301.09,2270,1301.55,2270,1302Z"/><path class="cls-2" d="M1221.4,1269.9l53.6-8.64-8.44,4.1,154.06-129.28a7,7,0,0,1,9.46,10.27l-141.45,143a13.91,13.91,0,0,1-7.75,4l-.7.11-53.6,8.65a16.29,16.29,0,0,1-5.18-32.17Z"/><path class="cls-2" d="M1405.78,959.66c-26.71,24.4-49.68,53.86-70,85.21s-38,64.85-54.13,99.06a7,7,0,0,1-12.87-5.43c13.5-35.84,28.65-71.24,47-105.44s39.82-67.2,67.09-96.56a16.31,16.31,0,0,1,23.9,22.19c-.3.32-.61.62-.93.92Z"/><path class="cls-2" d="M1561.66,1701.41c34.64,19,54.32,49.68,44,68.57s-55.18,23.88-89.81,4.9-46-54.71-35.61-73.61S1527,1682.44,1561.66,1701.41Z"/><path class="cls-2" d="M1632.26,1857.64c-11.1,7.65-23.93,14.22-38.8,16.19s-30.76-2.29-43.31-10c-12.73-7.67-22.84-17.9-31.61-28.54a279.56,279.56,0,0,1-23.11-33.53h0l21.38,7.28c-13.44,5.19-27.46,9.6-42.48,11.41s-31.27.58-45.83-6-26.26-17.52-34.25-29.67-13.36-25.38-17.41-38.57a7,7,0,0,1,13.08-4.86l0,.07c5.16,11.79,11.41,23,19.21,32.23s17.34,16,27.69,19.09,21.61,2.87,32.87.12,22.42-7.67,33.28-13.38a15.41,15.41,0,0,1,20.23,5.45l1.14,1.83h0a250.47,250.47,0,0,0,16.69,32c6.3,9.94,13.54,19.05,22.06,25.72s18.24,10.8,29,10.71,22.08-3.86,32.75-9.48l.15-.08a7,7,0,0,1,7.22,11.94Z"/><path class="cls-2" d="M1509.88,1810.61a16.3,16.3,0,0,1-14.43-23.82l19.39-37.23a16.29,16.29,0,0,1,28.9,15l-19.4,37.23A16.27,16.27,0,0,1,1509.88,1810.61Z"/><path class="cls-2" d="M1448.44,1868.36A163.83,163.83,0,0,0,1462.9,1881a97.13,97.13,0,0,0,15.47,9.47,72.35,72.35,0,0,0,8.42,3.72c2.84,1.31,5.86,2.23,8.89,3.32,6.11,2.06,12.5,3.89,19.19,6.21l.23.08a7.21,7.21,0,0,1-.87,13.87,67.82,67.82,0,0,1-23.24.65,42.48,42.48,0,0,1-5.87-1c-1.95-.4-3.89-.9-5.83-1.48s-3.83-1.29-5.72-2.07a45.59,45.59,0,0,1-5.59-2.49,66.64,66.64,0,0,1-19.58-14.91,55.48,55.48,0,0,1-12-20.89,7.19,7.19,0,0,1,11.83-7.27Z"/><g class="cls-3"><path class="cls-2" d="M2183.16,1777.85c-102.66-69.35-128.94-207.44-96.83-398,3-17.74-13.51-32.76-30.83-27.91-40.49,11.34-101.68,46.5-116.21,155-22.17,165.65,79.57,239.87,134.57,255.57C2073.86,1762.46,2131.18,1791.63,2183.16,1777.85Z"/></g><g class="cls-3"><path class="cls-2" d="M1371.06,971.35c-41.28,56.23-80.25,131.53-104.2,193-5.15,13.21-23.95,13.05-28.88-.25C1208.2,1083.82,1297.85,941.59,1371.06,971.35Z"/></g><g class="cls-3"><path class="cls-2" d="M1608.39,1998.37s-22.62-1.86-58-5.44h-.09c-187.55-46.82-339.32-154.6-398.61-384.14q-7.53-29-13-60.78l86-264.11,52.91-6.56,125.61-115.69C1245.53,1610.42,1299.6,1900.08,1608.39,1998.37Z"/></g><path class="cls-2" d="M1961.51,1982.35c57.58,10.42,113.85,29.6,165.26,58.26s97.78,66.84,134.61,113.14c37,46.16,63.75,100.38,78.89,157.38a483.24,483.24,0,0,1,14.7,87c2.36,29.32,1.61,58.73-.87,87.87-.78,7.26-1.14,14.59-2.28,21.8l-3.08,21.7c-1.19,7.19-2.66,14.33-4,21.51-.74,3.69-1.2,6.92-2.19,11-.54,2.1-1.05,4.2-1.65,6.28l-2.16,6.14a90.32,90.32,0,0,1-31.53,40.52,88.84,88.84,0,0,1-48.66,16.58l-171.23.13h-341.4a16.2,16.2,0,0,1-16.08-14.82v0c-1.39-15.68-2.47-31.7-1.91-48.28s2.93-33.88,9.37-50.52a123.68,123.68,0,0,1,29.09-44c12.41-12.24,26.47-21.75,40.8-29.91l-7.6,19.23v0c-11.7-39.17-17.52-80.35-14.93-121.48a269,269,0,0,1,10.75-60.83,223.16,223.16,0,0,1,26-56.33,200.59,200.59,0,0,1,41.3-46.24,207,207,0,0,1,53-31.34c38-15.56,78.91-20.11,118.72-19.17a7,7,0,0,1,0,14h-.12c-38.39.61-76.91,6.63-111.17,22.3-34.27,15.42-63.19,40.95-81.88,72.78-19,31.74-27.83,68.93-28.62,106.14s5.9,74.76,18,110.24h0l.06.19a16.51,16.51,0,0,1-7.65,19c-12.47,7.1-24.12,15.11-33.69,24.57a90.77,90.77,0,0,0-21.57,32.5c-4.75,12.19-6.81,25.82-7.26,40.1s.45,29.11,1.8,44.16v0l-16.22-14.82h341.25l170-.1a56.22,56.22,0,0,0,30.9-10.53,57.57,57.57,0,0,0,20.12-25.86l1.39-3.92,1.05-4c.71-2.83,1.3-6.65,2-9.93,1.25-6.81,2.66-13.6,3.78-20.43l2.92-20.54c1.09-6.84,1.4-13.74,2.15-20.61,2.34-27.49,3-55.14.83-82.55a450.74,450.74,0,0,0-13.68-81c-14.05-52.88-38.72-102.86-72.91-145.53-34-42.77-77-78.29-125-105s-100.8-44.8-155.12-54.64h-.07a16.29,16.29,0,0,1,5.8-32.06Z"/><path class="cls-2" d="M1538.09,2118.13c-20.95,88.74-50,176.77-97.18,257.53a401.65,401.65,0,0,1-40.93,57.19c-3.66,4.61-7.85,8.83-11.78,13.24l-6,6.54-6.33,6.26L1364,2470.63a115.48,115.48,0,0,0-9.58,11.41c-11.73,15.94-18.86,34.91-19.38,54-.31,9.59,1,18.58,4.41,26.15a45.71,45.71,0,0,0,16.1,19c14.78,10.23,35.66,15.08,56.69,17.23,21.22,2.13,43.24,1.84,65.28.35q16.54-1.14,33.15-3l2-.23,1.55-.21c1-.16,2-.36,3-.58a37.86,37.86,0,0,0,5.7-1.78l1.33-.56,1.8-.89,3.59-1.78,7.18-3.55c19-9.81,36.32-22.56,53.07-36.09s32.22-29,46.51-45.68c7.29-8.2,13.82-17.1,20.57-25.84,6.29-9.09,12.85-18,18.72-27.48,6.2-9.24,11.67-19,17.4-28.56,5.29-9.83,10.94-19.51,15.82-29.62,10.46-19.86,19.53-40.49,28.51-61.19l0-.11a7,7,0,0,1,13,5c-14.44,43.39-31.31,86.36-53.91,126.94-5.39,10.28-11.64,20.11-17.71,30-6.55,9.67-12.9,19.49-20.15,28.75-14.2,18.66-29.68,36.72-47.56,52.57s-38.13,29.06-59.39,40.21l-8.09,4-4,2-2,1-2.59,1.1a70.12,70.12,0,0,1-10.54,3.29c-1.77.41-3.55.74-5.32,1l-2.67.36-2.2.25q-17.25,2-34.68,3.18c-23.25,1.55-46.81,1.94-70.8-.45a215.29,215.29,0,0,1-36.24-6.65c-12.11-3.44-24.39-8.44-35.76-16.29a84.72,84.72,0,0,1-15.7-14.15,76.57,76.57,0,0,1-11.51-18.3c-5.9-13.25-7.62-27.32-7.2-40.38.72-26.37,10.52-51.76,25.67-72.32a147.69,147.69,0,0,1,12.31-14.65l12.26-12.33,5.72-5.77,5.45-6.07c3.6-4.08,7.33-8,10.65-12.38,13.89-16.81,26.49-34.83,38.58-53.28,24.54-36.73,44.73-76.79,63-117.75,9-20.56,17.68-41.33,25.51-62.48,8.23-21,15.52-42.4,23-63.76l0-.09a7,7,0,0,1,13.4,3.92Z"/><path class="cls-2" d="M1434.65,2370.9a16.25,16.25,0,0,1-9.8-3.28c-163.11-123-247.44-301.69-231.36-490.15a16.29,16.29,0,0,1,32.46,2.78c-15.1,177.05,64.54,345.21,218.52,461.36a16.29,16.29,0,0,1-9.82,29.29Z"/><path class="cls-2" d="M1348,2480.37a16.25,16.25,0,0,1-13.45-7.08c-65.21-95.17-7.43-203.95-4.94-208.54a16.29,16.29,0,0,1,28.63,15.54c-.77,1.44-50.47,96.27,3.18,174.59a16.28,16.28,0,0,1-13.42,25.49Z"/><path class="cls-2" d="M1746.08,2631.63H1474.32a16.29,16.29,0,1,1,0-32.58h271.76a16.29,16.29,0,0,1,0,32.58Z"/><rect class="cls-2" x="1687.33" y="2477.74" width="32.58" height="96.19" transform="translate(-1326.35 2844.34) rotate(-62)"/><path class="cls-2" d="M1809.45,2443c5.46-1.69,9.88-2.76,14.75-3.83s9.52-1.92,14.28-2.69,9.54-1.29,14.29-1.94c4.78-.48,9.57-.8,14.34-1.19a262.7,262.7,0,0,1,57.22,3c9.48,1.28,18.73,3.86,28,6.18,4.56,1.41,9.06,3.07,13.56,4.59,2.24.81,4.52,1.5,6.72,2.4l6.52,2.94c17.67,7.19,33.45,18.06,48.46,29.29a7,7,0,0,1-7.82,11.52l-.52-.32c-15-9.26-30.21-18-46.91-23.15l-6.13-2.18c-2.07-.65-4.21-1.09-6.31-1.65-4.22-1-8.39-2.19-12.61-3.12-8.59-1.35-17.06-3-25.74-3.41a237.76,237.76,0,0,0-51.7,1.69l-12.75,2.16c-4.19,1-8.44,1.7-12.57,2.82s-8.28,2.16-12.32,3.44-8.25,2.7-11.38,4l-.35.14a16.31,16.31,0,0,1-12.32-30.2C1808.55,2443.3,1809,2443.14,1809.45,2443Z"/><path class="cls-2" d="M1392.6,2547.89a87.87,87.87,0,0,0-4.51,15.07,73.87,73.87,0,0,0-1.53,15.25,47,47,0,0,0,2.34,13.66,34.2,34.2,0,0,0,6.26,10.49l.12.13a14,14,0,0,1-21.61,17.93,15.15,15.15,0,0,1-1.52-2.26,60.46,60.46,0,0,1-7.15-21.22,70.76,70.76,0,0,1,.72-20.8,92.46,92.46,0,0,1,5.77-18.54,100.58,100.58,0,0,1,9-16.75,7,7,0,0,1,12.27,6.52Z"/><path class="cls-2" d="M1491.11,2551.93a88.25,88.25,0,0,0-4.51,15.08,73.87,73.87,0,0,0-1.54,15.24,47.39,47.39,0,0,0,2.35,13.67,33.65,33.65,0,0,0,6.26,10.48l.11.14a14,14,0,0,1-21.6,17.93,15,15,0,0,1-1.53-2.26,60.36,60.36,0,0,1-7.14-21.23,70.37,70.37,0,0,1,.71-20.79,94.07,94.07,0,0,1,5.77-18.55,101.69,101.69,0,0,1,9.06-16.74,7,7,0,0,1,12.26,6.52Z"/><path class="cls-2" d="M1854,2535.14a78.54,78.54,0,0,0-11.81,17.23,62,62,0,0,0-6.15,19.23,58.71,58.71,0,0,0-.51,9.59c.48,3.15.53,6.27,1.56,9.27,1.29,6.08,4.51,11.71,7.73,17.15l.49.84a14,14,0,0,1-24.13,14.28,17.39,17.39,0,0,1-.86-1.73c-3.56-8.48-6.71-17.29-7.36-26.72-.7-4.62-.26-9.35-.1-14a78.85,78.85,0,0,1,2.78-13.45,81.35,81.35,0,0,1,11.67-23.63,92.66,92.66,0,0,1,17.64-18.74,7,7,0,0,1,9.49,10.15Z"/><path class="cls-2" d="M1946.28,2543.58a67.57,67.57,0,0,0-7.11,16,61.23,61.23,0,0,0-2.64,17.16,53.71,53.71,0,0,0,2.21,16.53c1.35,5.32,3.93,10.3,6.56,15.11l.3.55a14,14,0,0,1-24.64,13.45,15.47,15.47,0,0,1-.94-2.14c-2.56-7.4-4.74-14.94-5.35-22.8a76.57,76.57,0,0,1,1.06-23.14A80.53,80.53,0,0,1,1923,2553a89.74,89.74,0,0,1,5.6-9.53,74,74,0,0,1,7-8.93,7,7,0,0,1,11,8.38Z"/><g class="cls-3"><path class="cls-2" d="M1999.57,2136.14S1805,2257.65,1919.25,2446c0,0-147.91,41.1-91.7,116.85l13.3-23.8s30.77,57.22,85.71,33l-1,44.22-179.5-6c-8.43-71.86,11.68-126.41,69-158.4C1768.92,2300.12,1804.83,2183.82,1999.57,2136.14Z"/></g><g class="cls-3"><path class="cls-2" d="M1472,2186.07l53.53-49.94s-47.42,151-96.33,214.36c-150.19-115.79-235.45-284.91-219.48-471.63l55.38-43c82.61,119.84,234,170.66,425.51,181.08,0,0-191.14,59.06-369.38-18.57,0,1.64.32,100.63,78.46,185.39C1418.84,2204.51,1451.39,2205.32,1472,2186.07Z"/></g><g class="cls-3"><path class="cls-2" d="M1736.17,2354.61s32,36.18,53,8.26l22.28,97.51s-51,49.3-69.23,78.67l3.91,71.22-214.72,5.07C1631.33,2545.09,1707.22,2462.19,1736.17,2354.61Z"/></g><g class="cls-3"><path class="cls-2" d="M1411.9,2494.71c-42.39,43.47-36.48,45.38-30.71,61.48v7.59s33.51,22,100.06-7.54c-.65,1.49-13.83,31.78-6.94,59.1-98.29,5.91-158.79-15.17-155.48-81.67,1.48-30.35,16.19-58.27,38.25-79.07,72.74-68.74,129-182.25,172.2-331.18,0,0,59,71.21,20.19,149.12S1454.3,2451.29,1411.9,2494.71Z"/></g><g class="cls-3"><path class="cls-2" d="M1322.59,2563.78a59.19,59.19,0,0,0,4.38,9.86A54.11,54.11,0,0,1,1322.59,2563.78Z"/></g><ellipse class="cls-2" cx="1458.17" cy="1511.28" rx="94.12" ry="71.67" transform="translate(-553.36 2114.59) rotate(-62.72)"/><ellipse class="cls-5" cx="1481.71" cy="1503.92" rx="27.49" ry="20.93" transform="translate(-534.07 2131.5) rotate(-62.72)"/><path class="cls-9" d="M1237.15,2583.88c-3.58,18.48-20.34,31.46-39.14,31.46h-96a20.08,20.08,0,0,1-20.11-20.1l-86.89-196.3-11.82-26.76,215.38-92.52,2.19,225.15C1229.52,2524.78,1242.36,2557.17,1237.15,2583.88Z"/><path class="cls-2" d="M1198,2617.36h-96a22.16,22.16,0,0,1-22.13-21.69l-99.36-224.54,220-94.52,2.21,227.15c27.37,19.48,41.94,51.7,36.32,80.51C1235.41,2603.44,1218.12,2617.36,1198,2617.36ZM985.9,2373.23l98.06,222a18.1,18.1,0,0,0,18.09,18.08h96c18.18,0,33.8-12.54,37.16-29.83h0c5.38-27.55-8.9-58.51-35.52-77l-.86-.59-2.17-223.17Z"/><g class="cls-4"><path class="cls-5" d="M1237.15,2583.88c-3.58,18.48-20.34,31.46-39.14,31.46h-14.47a38.86,38.86,0,0,0,20-26.62c5.17-26.67-7.68-59.1-36.39-79.07l-2.1-215.57,33.6-14.42,2.19,225.15C1229.52,2524.78,1242.36,2557.17,1237.15,2583.88Z"/></g><g class="cls-3"><path class="cls-2" d="M1119,2606.41c-2.94,3.11-5.77,6.09-8.57,8.93h-8.37a20.08,20.08,0,0,1-20.11-20.1l-86.89-196.3c3-6.66,7.36-11.64,13.78-14.34l106.34,29.27v89.41S1160.87,2562.19,1119,2606.41Z"/></g><path class="cls-9" d="M448,2481.4c-247.4,20.53-362.4-178.1-286-402.7v0q7.55-22.2,17.59-44.67c62.32-115.23,139.76-90.06,162.24-22.58v0c10.56,31.6,9.07,72.46-11.73,112.53a337.25,337.25,0,0,0-17.36,43.94c-29.09,92.52-3.77,168.37,64.27,200.39h.05c15.4,7.31,33.09,12.29,52.77,14.71Z"/><path class="cls-2" d="M413.88,2484.87c-94.22,0-172-33.88-221.41-97.17-60.88-78-72.7-190.74-32.44-309.33l.11-.37c5-14.78,11-29.88,17.66-44.85,40.32-74.56,81.51-82.56,102.51-80.77,28,2.44,52.3,24.82,63.48,58.39l.1.35c11.67,35.22,7.32,76.67-11.95,113.8a335.3,335.3,0,0,0-17.22,43.59c-28.36,90.21-4.3,165.95,62.79,197.78l.46.2c15.33,7.27,32.87,12.16,52.16,14.52l1.47.19,18.82,102-2.22.19Q430.71,2484.86,413.88,2484.87ZM164.07,2079l-.11.37c-39.94,117.41-28.39,228.89,31.69,305.86,54,69.24,142.77,102.73,250,94.36l-17.48-94.73c-19-2.47-36.29-7.35-51.52-14.51l-.44-.19c-69.37-32.65-94.41-110.37-65.34-202.83a341,341,0,0,1,17.47-44.2c18.85-36.32,23.08-76.77,11.63-111l-.1-.36c-10.72-31.84-33.64-53-59.9-55.33-34.51-3-69.52,24.88-98.54,78.54C174.89,2049.55,169,2064.42,164.07,2079Z"/><path class="cls-5" d="M330.15,2124a337.25,337.25,0,0,0-17.36,43.94q-131.94,77.68-150.74-89.22v0q7.55-22.2,17.59-44.67C271.18,1864.71,395.3,1998.37,330.15,2124Z"/><path class="cls-9" d="M1045.13,2473.68c-.47.28-.93.6-1.4.88l5.45,21.74c55.43,14,82.19,92.28-5.45,119H951.45c-40.73-5.21-68.6-39.6-82.43-82.88l-3.44,1.58-2.09.93c.83,1.26,1.58,2.51,2.28,3.77,18.57,33.6-2.84,76.6-36.12,76.6H635.72l-1.76-.14c-107.6-7.68-197.94-96.71-204-211-2.79-52.63,14.05-104.34,45-147.06,43.6-60.31,94.33-109.13,154.74-142.46L751.51,1988.6l6.43-6.61,447.52-52.26c19.26,48.31,28.8,98.85,30.25,149.11C1240.31,2241,1159.94,2400.38,1045.13,2473.68Z"/><path class="cls-2" d="M1044,2617.36H951.45c-37.57-4.79-67.88-34.67-83.64-82.12l-1.37.62c.38.64.74,1.27,1.09,1.9a57.56,57.56,0,0,1-.75,56.87c-8.53,14.45-22.06,22.73-37.13,22.73l-195.84-.14c-111.33-7.95-199.85-99.48-205.9-212.92-2.73-51.48,13.37-104.16,45.34-148.35,46.31-64.06,97.06-110.8,155.13-142.89l128.61-133,449.77-52.53.57,1.44c18.66,46.78,28.88,97.18,30.4,149.8,4.5,158.65-74.25,321.74-191.51,396.6l-.17.11,4.8,19.15c29.27,7.89,50.87,33.16,51.55,60.52.69,28-20.48,50.63-58.08,62.11Zm-173.79-87.69.7,2.17c15.06,47.15,44.49,76.86,80.75,81.5l91.73,0c35.56-10.94,55.57-32.09,54.93-58.07s-21.53-49.91-49.68-57l-1.17-.29-6.1-24.36L1044,2472c116.13-74.13,194.12-235.77,189.65-393.07-1.48-51.61-11.42-101.05-29.54-147l-445.27,52L753,1990,630.6,2116.44c-57.65,31.81-108.05,78.21-154.08,141.87-31.42,43.45-47.26,95.22-44.58,145.78,5.95,111.4,92.86,201.29,202.16,209.1l1.77.13H829.65c13.61,0,25.87-7.56,33.65-20.74a53.54,53.54,0,0,0,.7-52.86c-.67-1.21-1.39-2.42-2.19-3.63l-1.33-2Z"/><path class="cls-9" d="M1022.67,1307.46c60-54,123.39-96.3,192.25-120.06a48.77,48.77,0,0,1,61.46,27.94c21.55,54.37,55.35,155.93,54.63,256.57"/><path class="cls-2" d="M1333,1471.93l-4,0c.72-101.13-33.83-203.68-54.49-255.81a46.75,46.75,0,0,0-58.92-26.78C1151.63,1211.38,1089,1250.52,1024,1309l-2.7-3c65.36-58.82,128.47-98.22,192.94-120.47a50.77,50.77,0,0,1,64,29.11C1299,1267,1333.76,1370.11,1333,1471.93Z"/><g class="cls-4"><path class="cls-5" d="M608.31,2287.8c100.87,18.58,162.94,79.48,161.05,210.16a37.39,37.39,0,0,0,3.78,16.71l.5,1a21.24,21.24,0,0,0,17.12,12c24.13,2.28,77.45,11.21,81.94,45.78,13.65-7.4-18.46-78.53-71.76-72.51C801.61,2361.11,718.49,2278.09,608.31,2287.8Z"/></g><g class="cls-4"><path class="cls-5" d="M1331,1471.92l-32.86-17.54c-5-90.57-34.44-178-53.89-227a48.7,48.7,0,0,0-57.38-29.18c9.21-4,18.57-7.59,28-10.85a48.83,48.83,0,0,1,61.48,28C1297.93,1269.71,1331.72,1371.26,1331,1471.92Z"/></g><g class="cls-4"><path class="cls-5" d="M1045.13,2473.68c-.47.28-.93.6-1.4.88l5.45,21.74c55.43,14,82.19,92.28-5.45,119H1014.6c74.93-29.6,48.12-102.06-5-115.41l-5.45-21.74L969,2135.88c-.51-5,6.59-6.38,8-1.61l19.42,64.27,39.65,256.61c98.24-80.23,164.24-225.34,160.05-372.68-1.44-49.94-10.85-100.15-29.88-148.18l39.19-4.56c19.26,48.31,28.8,98.85,30.25,149.11C1240.31,2241,1159.94,2400.38,1045.13,2473.68Z"/></g><path class="cls-5" d="M1045.13,2473.68l-31.51-175c38-25,70.28-61,90.89-118.81,26.81-66.6,68.69-103.83,131.2-101C1240.31,2241,1159.94,2400.38,1045.13,2473.68Z"/><path class="cls-9" d="M1398.13,1753.21c-23.74,66.36-63,103-122,139-1.4.84-2.79,1.72-4.24,2.51a717.29,717.29,0,0,1-185.73,77.82c-405.69,106.8-669.61-119.14-513.28-471.4-30.91-46-45.1-95.36-47.61-154.27a43.13,43.13,0,0,1,39.18-44.68c111.18-10.71,225.25-8.66,300.88,16.71C1170.46,1238.25,1481.67,1519.58,1398.13,1753.21Z"/><path class="cls-2" d="M893.23,2001.14c-129.24,0-236.25-40.33-301.94-117.49-80.52-94.58-87.86-230.33-20.69-382.35-29.7-44.59-44.74-93.69-47.33-154.39a45.12,45.12,0,0,1,41-46.77c125.72-12.1,232.62-6.21,301.14,16.61,159.8-42,338,12.58,454.19,139.09C1403.89,1547.61,1434,1659,1400,1753.89h0c-24.75,69.2-67,106-122.83,140l-1.27.76c-1,.62-2,1.23-3,1.8a718.61,718.61,0,0,1-186.2,78C1018.66,1992.36,953.52,2001.14,893.23,2001.14ZM685.16,1298c-37.47,0-77.88,2-120.49,6.13a41.09,41.09,0,0,0-37.37,42.58c2.58,60.35,17.6,109,47.27,153.23l.62.93-.45,1c-67,150.94-60,285.57,19.62,379.11,95.31,112,279,145.42,491.3,89.52a715,715,0,0,0,185.22-77.6c1-.57,2-1.15,2.95-1.74l1.28-.77c55.08-33.54,96.76-69.83,121.12-137.91h0c33.4-93.42,3.65-203.31-79.59-294-115.31-125.57-292.25-179.64-450.78-137.76l-.58.16-.57-.2C819.81,1305.71,758.07,1298,685.16,1298Z"/><g class="cls-4"><path class="cls-5" d="M1398.13,1753.21c-9,25.08-20.15,45.88-33.74,64a261.77,261.77,0,0,0,13.35-31.13c83.54-233.63-227.67-515-532.78-434.35-75.62-25.36-189.69-27.41-300.87-16.71a43.45,43.45,0,0,0-18.71,6.28,43.26,43.26,0,0,1,39.09-39.18c111.18-10.71,225.25-8.66,300.88,16.71C1170.46,1238.25,1481.67,1519.58,1398.13,1753.21Z"/></g><path class="cls-2" d="M893.37,2015.36c-133.55,0-244.48-42.06-312.94-122.48-83-97.48-92.11-235.8-25.95-390.24-28.4-45.13-42.9-94.68-45.49-155.1a59.48,59.48,0,0,1,53.93-61.62c73-7,208.23-14.07,302.94,16,163.81-41.29,345.54,15,464.26,144.32,87.91,95.74,119.07,212.56,83.34,312.49-26.15,73.17-70.42,111.84-128.85,147.39a731.88,731.88,0,0,1-194.28,82.15C1021.18,2006.44,954.87,2015.36,893.37,2015.36Zm-208-703.08c-37,0-77,2-119.29,6.07a26.9,26.9,0,0,0-24.49,27.79c2.47,57.57,16.73,103.93,44.9,145.9a16.3,16.3,0,0,1,1.36,15.68c-64.64,145.63-58.44,274.92,17.43,364,91.67,107.67,269.91,139.43,476.8,85a699.37,699.37,0,0,0,185.65-78.48c54-32.87,92.1-66.16,115.11-130.53,31.58-88.34,2.92-192.81-76.67-279.48-111.77-121.72-283.17-174.17-436.63-133.65a16.29,16.29,0,0,1-9.33-.3C816.67,1319.72,756.55,1312.28,685.32,1312.28Z"/><path class="cls-2" d="M1331,1488.2h-.12a16.28,16.28,0,0,1-16.17-16.4c.71-98.72-33.21-199.29-53.48-250.46a32.53,32.53,0,0,0-41-18.55c-62.1,21.44-123.16,59.64-186.66,116.78a16.29,16.29,0,1,1-21.79-24.22c66.81-60.12,131.52-100.47,197.83-123.35a65,65,0,0,1,81.91,37.34c21.15,53.37,56.52,158.46,55.78,262.69A16.29,16.29,0,0,1,1331,1488.2Z"/><rect class="cls-2" x="1101.49" y="1680.47" width="23.27" height="17.93" transform="translate(-102.31 72.04) rotate(-3.54)"/><path class="cls-2" d="M1150.26,1778.8c-15.82,41-60.08,38-84.28,6.56v0a79,79,0,0,1-14.66-33.7l57.71-27.34,46.91,13.15C1156.54,1754.37,1154.36,1768.05,1150.26,1778.8Z"/><path class="cls-10" d="M1150.26,1778.8c-15.82,41-60.08,38-84.28,6.56v0c12.14-30.35,71-35,84.23-6.56Z"/><path class="cls-2" d="M1110,1811.61c-16.69,0-33.79-9.12-45.87-24.82l-.48-.63.17-1.71c7.19-18,28.88-26.49,47.19-27,19.26-.44,35,7.12,41.15,20l.75.8-.48,1.42c-6.93,18-19.73,29.15-36,31.51A45.45,45.45,0,0,1,1110,1811.61ZM1068.64,1785c12.58,15.71,30.51,24,47.09,21.55,14.28-2.06,25.6-11.86,32-27.62-6.57-12.91-23-17.13-36.58-16.8C1094.77,1762.56,1075.53,1769.81,1068.64,1785Z"/><path class="cls-2" d="M1105.78,1629.49s-44.6,1.94-43.82,27.53c.57,18.86,25.55,29.3,38.67,33.49A19.53,19.53,0,0,0,1116,1689c9.81-5.4,26.1-16.65,29.4-33.09a18.29,18.29,0,0,0-9.35-19.86C1130,1632.91,1120.43,1629.85,1105.78,1629.49Z"/><path class="cls-2" d="M1207.54,1698.64a64.78,64.78,0,0,1-5.63,17.91,63.5,63.5,0,0,1-11.33,15.82,58.61,58.61,0,0,1-35.92,16.94c-13.62,1.31-28.75-2.46-39.7-12.44a51.57,51.57,0,0,1-12.7-17.35,60,60,0,0,1-4.8-19.86v-.06l23.16-.15c-.43,3.66-1,7.34-1.63,11-1,3.57-2.25,7.12-3.53,10.62-1.62,3.35-3.54,6.57-5.37,9.82-2.16,3-4.51,5.89-6.82,8.79a73.08,73.08,0,0,1-37.54,21c-14,3-29.19,2.06-42.35-4a64.06,64.06,0,0,1-30.28-28.26,7,7,0,0,1,11.58-7.75l.16.2c7,8.58,15.75,14.89,25.47,17.89a51.72,51.72,0,0,0,29.93,0c9.64-3,18.67-8.25,25.07-15.67a48.78,48.78,0,0,0,12.14-25.85l.12-.76a11.62,11.62,0,0,1,23,.61v0c1.56,8.84,5,16.29,10.63,21.28s13.48,7.66,21.84,7.44a42.23,42.23,0,0,0,24.1-8.6c7.25-5.35,12.83-13.21,16.9-22.36l.1-.23a7,7,0,0,1,13.37,3.91Z"/><path class="cls-2" d="M1110,1820.91c-19.56,0-39.41-10.44-53.26-28.45-.19-.25-.38-.5-.55-.77a91.46,91.46,0,0,1-16.33-38l22.88-4.23a67.83,67.83,0,0,0,12.47,28.75l.42.58c10.39,13.16,25.52,20.38,38.75,18.49,11.25-1.63,19.9-9.48,25-22.72,3.77-9.88,5.43-22.27,4.91-36.76l23.26-.83c.63,17.61-1.54,33.07-6.44,45.92-8.09,21-23.91,34.6-43.4,37.42A53.82,53.82,0,0,1,1110,1820.91Z"/><path class="cls-2" d="M572.9,1515.08a14,14,0,0,1-11.44-21.94c26.83-38.54,54.66-67.9,84.58-89.16-83-53.8-107.85-42.84-110-41.65a14,14,0,0,1-21.9-17.25c7.33-10.51,40.89-38.17,165.22,47.59a14,14,0,0,1-.87,23.54c-33.45,19.59-64.23,50-94.11,92.89A14,14,0,0,1,572.9,1515.08Zm-35.9-154h0Zm0,0s0,0,0,0S537,1361.09,537,1361.08Zm0,0v0Zm0,0,0,0Z"/><g class="cls-3"><path class="cls-2" d="M671.42,1404.16c-37.28,21.83-69.58,55.43-98.52,96.94l-47.29-148S548.88,1319.6,671.42,1404.16Z"/></g><path class="cls-2" d="M679.92,1393.09l63.31,55.62A8.4,8.4,0,0,1,733,1462l-70.11-46.76A14,14,0,1,1,678.45,1392,13.64,13.64,0,0,1,679.92,1393.09Z"/><path class="cls-2" d="M1212.83,1386a14,14,0,0,1-13.52-10.5c-17.33-67.85-14-119.54,9.76-153.65,22.37-32.07,54.68-35.73,56-35.87a14,14,0,0,1,3,27.77c-1.14.14-21.75,3-36.49,24.63-18.32,26.83-20.12,71.85-5.21,130.2a14,14,0,0,1-10.08,17A13.8,13.8,0,0,1,1212.83,1386Z"/><path class="cls-2" d="M624.09,1752.79c-15.69-1.79-31.2-3.33-46.74-4.12s-31.05-1-46.58-.34-31,1.75-46.6,3.35-31.12,3.76-46.92,5.7h0a7,7,0,0,1-3.39-13.54,272.19,272.19,0,0,1,47.2-13.28,310.2,310.2,0,0,1,49-5.45,295.24,295.24,0,0,1,49.36,2.56,235.67,235.67,0,0,1,48,11.53,7,7,0,0,1-3.19,13.59Z"/><path class="cls-2" d="M635.71,1809.36c-15,1.7-29.68,3.88-44.22,6.94s-28.89,6.86-43.1,11.29-28.25,9.5-42.24,14.93c-14.07,5.28-28,11.07-42.37,16.4l0,0a7.05,7.05,0,0,1-6.64-12.28,262.44,262.44,0,0,1,40.4-24.09,293.62,293.62,0,0,1,44.14-17.07,268,268,0,0,1,46.57-9.72,209.57,209.57,0,0,1,47.56-.38,7,7,0,0,1,0,13.95Z"/><path class="cls-2" d="M671.55,1857.27c-10.28,7.1-20.32,13.82-29.81,21.27a328.83,328.83,0,0,0-27.36,23.53A342.44,342.44,0,0,0,589.76,1929c-7.86,9.42-15.24,19.35-22.81,29.39l0,0a7,7,0,0,1-12.14-6.88,206.89,206.89,0,0,1,43.36-65.74,166.93,166.93,0,0,1,31.11-25.3c11.42-7,23.68-12.75,36.66-16a7.09,7.09,0,0,1,5.73,12.71Z"/><path class="cls-2" d="M1381,1549.18l-45.42,33.59a7,7,0,0,1-9.2-10.5l39.3-40.6a11.67,11.67,0,1,1,16.77,16.24A12.32,12.32,0,0,1,1381,1549.18Z"/><path class="cls-2" d="M1341.93,1633.66l57.61-22a11.67,11.67,0,0,1,8.31,21.81,12,12,0,0,1-1.69.5l-60.27,13a7,7,0,0,1-4-13.38Z"/><path class="cls-2" d="M1360.92,1691.44l46.85.16a11.7,11.7,0,0,1-.08,23.39,12.57,12.57,0,0,1-2.31-.24l-45.9-9.42a7,7,0,0,1,1.44-13.89Z"/><path class="cls-2" d="M1220.59,1923.72c19.54,49.26,29.82,101.93,31.29,154.61a512.55,512.55,0,0,1-87,298.47c-29.72,43.54-67.14,82.66-112.5,111.54l7.11-17.73,5.43,21.72-11.82-11.85a87.34,87.34,0,0,1,44.52,27.41c11.58,13.35,19.58,31.2,18.94,50.55a65.23,65.23,0,0,1-7.1,27.66,74.92,74.92,0,0,1-17,21.57c-13.45,11.7-28.84,18.48-44,23.25a15,15,0,0,1-4.55.71H951.43a16.26,16.26,0,0,1-1.85-.1l-.23,0a99.59,99.59,0,0,1-53.73-24.71c-14.72-13-25.43-29-33.36-45.67a204.78,204.78,0,0,1-16.4-51.95c-.83-4.44-1.48-8.89-2.05-13.35-.52-4.22-1-8-1.62-11.9a225,225,0,0,0-4.63-22.64l-.07-.26a14,14,0,0,1-.3-1.4c-5.66-34.31-11.23-68.64-16-103.1-2.55-17.21-4.57-34.5-6.88-51.75-1.18-8.62-2.15-17.28-3.11-25.93s-2-17.31-2.77-26a9.81,9.81,0,0,1,19.26-3.35c2.17,8.45,4.16,16.93,6.14,25.41s4,17,5.82,25.46c3.63,17,7.56,34,11,51,7.09,34.07,13.41,68.27,19.65,102.48l-.38-1.66a208.58,208.58,0,0,1,5.83,26.47c.67,4.34,1.25,8.9,1.74,13,.48,3.84,1,7.67,1.73,11.47a179.36,179.36,0,0,0,13.45,43.67c6.29,13.59,14.64,26,25,35.26a66.49,66.49,0,0,0,35.92,17.1l-2.07-.14h92.3l-4.75.71c12.2-3.8,23.57-9.19,31.9-16.48s12.95-16.24,13.16-25.84c.41-9.59-3.82-20-11-28.23a54.76,54.76,0,0,0-27.84-17.14,16.22,16.22,0,0,1-11.81-11.79v-.05l-5.43-21.72a16.3,16.3,0,0,1,7-17.68l.08,0c40.76-25.93,75.34-61.83,103-102.33s48.52-85.94,62.3-133.26a475.41,475.41,0,0,0,19-145.93c-1.37-49.13-10.93-98-29-143.48v0a16.29,16.29,0,0,1,30.28-12Z"/><path class="cls-2" d="M1027.68,2477.31,986,2195.43a9.78,9.78,0,0,1,19.27-3.31l54.51,279.69a16.3,16.3,0,0,1-32,6.24C1027.76,2477.82,1027.71,2477.54,1027.68,2477.31Z"/><path class="cls-2" d="M593.42,2279.78c29.37-6.65,60.85-8.21,91.25-.51,30.4,7.34,58.61,25,79,49,20.55,24,33.55,53.23,40.61,83.06s8.52,60.66,6.51,90.83L798,2486.48a141.16,141.16,0,0,1,36.2,8.06c11.93,4.47,23.76,11.2,33.58,21.1a70.92,70.92,0,0,1,19.62,37.14,72,72,0,0,1-4.89,42c-5.74,13.1-15.91,25.22-30.37,32a55,55,0,0,1-23,4.94l-16.74,0-66.93.19-66.94.19-33.47.09-8.37,0c-2.77,0-6.17-.42-9.23-.62-3.21-.22-6.15-.64-9.12-1s-6-.77-8.91-1.35a230.76,230.76,0,0,1-67.93-23.06A241.79,241.79,0,0,1,417.1,2438.89c-9.36-46.9-3.68-97,15.29-140.62a251.78,251.78,0,0,1,16.21-31.77,327.94,327.94,0,0,1,19.88-28.95,590.4,590.4,0,0,1,44.34-52.44c31.66-33.25,68.17-62.51,108.84-84.91l-3.9,3,128.47-132.53a16.29,16.29,0,0,1,23.42,22.65L641.5,2126.14a16.6,16.6,0,0,1-3.77,2.92l-.13.06c-37.29,20.7-71,47.77-100.59,79a557.89,557.89,0,0,0-41.68,49.56,298.48,298.48,0,0,0-17.84,26.08,217.75,217.75,0,0,0-14,27.68,205.79,205.79,0,0,0-12.93,120.88,208,208,0,0,0,57.38,107.15c29.14,29,67,49.11,107.38,56.29,2.51.52,5.05.85,7.59,1.2s5.09.73,7.44.89,4.61.57,7.41.57l8.32,0,33.28.09,66.57.19,66.57.19,16.65.05a21.86,21.86,0,0,0,9.42-1.9c5.86-2.6,11.35-8.25,14.58-15.43a40.2,40.2,0,0,0,3.08-23.28,41,41,0,0,0-10.74-21.2c-5.72-6.11-13.46-11-22.24-14.55a123.54,123.54,0,0,0-28.59-7.25l-.51-.07a14.48,14.48,0,0,1-12.33-15.57c2.43-27.68,1.65-55.64-4.08-82.41s-16.59-52.21-33.51-72.81a128.63,128.63,0,0,0-65.43-43.34c-25.88-7.38-54-7.22-81.39-2.27h-.07a9.77,9.77,0,0,1-3.9-19.15Z"/><path class="cls-2" d="M731.92,2610.69l4.65-41.89a7,7,0,0,1,14,0l4.65,41.89a11.71,11.71,0,1,1-23.27,2.58A12.36,12.36,0,0,1,731.92,2610.69Z"/><path class="cls-2" d="M793.58,2610.69l4.66-41.89a7,7,0,0,1,14,0l4.65,41.89a11.71,11.71,0,1,1-23.27,2.58A13.08,13.08,0,0,1,793.58,2610.69Z"/><path class="cls-2" d="M1032.1,2610.69l4.65-41.89a7,7,0,0,1,14,0l4.66,41.89a11.71,11.71,0,1,1-23.27,0Z"/><path class="cls-2" d="M1133.32,2610.69l4.65-37.23a7,7,0,0,1,14,0l4.65,37.23a11.73,11.73,0,0,1-23.27,2.91A12.31,12.31,0,0,1,1133.32,2610.69Z"/><path class="cls-2" d="M1184.51,2610.69l4.66-37.23a7,7,0,0,1,14,0l4.65,37.23a11.73,11.73,0,1,1-23.27,2.91A12.31,12.31,0,0,1,1184.51,2610.69Z"/><path class="cls-2" d="M971.6,2610.69l4.65-41.89a7,7,0,0,1,14,0l4.66,41.89a11.71,11.71,0,1,1-23.27,0Z"/><path class="cls-2" d="M1198,2631.63h-96a36.43,36.43,0,0,1-36.39-36.38,16.29,16.29,0,0,1,32.58,0,3.81,3.81,0,0,0,3.81,3.8h96c11.37,0,21.12-7.69,23.18-18.28,4.24-21.77-8-47.5-29.66-62.58a16.28,16.28,0,0,1-7-13.22l-2.18-225.18a16.28,16.28,0,0,1,16.13-16.44h.16a16.3,16.3,0,0,1,16.29,16.13l2.1,217.18c28,23,42.37,58.29,36.14,90.33C1248.11,2612.86,1224.92,2631.63,1198,2631.63Z"/><path class="cls-2" d="M413.55,2499.16c-103.55,0-187.71-39.17-239.44-112.26-65.38-92.36-68.86-226.77-9.32-359.57.17-.37.35-.73.54-1.09,48.44-89.59,106.66-99.82,145-79.51,49.24,26.08,74.76,106.39,34.41,184.47-31.83,67.15-36.17,131-11.89,175.13,18.66,33.93,52.9,54.86,99,60.52a16.29,16.29,0,1,1-4,32.33c-56.13-6.88-100-34.28-123.6-77.16-29.84-54.29-25.89-127.11,11.13-205l.25-.51c31.19-60.11,14.18-122.53-20.6-140.95-31.2-16.53-69.79,8.63-100.8,65.69-54.52,122-52.13,244.15,6.43,326.87,50.65,71.56,138,106.08,246,97.1a16.29,16.29,0,1,1,2.69,32.47Q431.12,2499.17,413.55,2499.16Z"/><g class="cls-3"><path class="cls-2" d="M1275.26,1878.86l-3.35,15.82a717.29,717.29,0,0,1-185.73,77.82c-405.69,106.8-669.61-119.14-513.28-471.4l89.63-103,66,49.89C535.67,1666.74,741.41,2116.72,1275.26,1878.86Z"/></g><g class="cls-3"><path class="cls-2" d="M922.73,2519.56l-57.27-300.72a11.38,11.38,0,0,0-20.23-4.77l-42,55.16a26.22,26.22,0,0,1-38.7,3.31h0c-52.82-213.11,135.8-271,146.18-274-68.18,15.73-128,1-159.17-9.91L629.63,2114.67c-60.41,33.33-111.14,82.15-154.74,142.46-30.91,42.72-47.75,94.43-45,147.06,6.09,114.3,96.43,203.33,204,211l-4.8-4.51c-225.29-211.85-25.5-322.89-25.5-322.89C837.19,2269.74,796.28,2501,796.28,2501l69.49,37.79.65.32-.84-5-3.44-20.8c4.88,24.57,28,103.73,121.09,102.1v-34C957.87,2570.9,937.48,2550.79,922.73,2519.56ZM861,2506.39l1.17,6.75C861.39,2509.61,861.07,2507.19,861,2506.39Z"/></g><g class="cls-3"><path class="cls-2" d="M862.14,2513.14c-.75-3.53-1.07-5.95-1.17-6.75Z"/></g><g class="cls-3"><path class="cls-2" d="M862.14,2513.14c-.75-3.53-1.07-5.95-1.17-6.75Z"/></g><g class="cls-3"><path class="cls-2" d="M448,2481.4c-247.4,20.53-362.4-178.1-286-402.7v0q7.55-22.2,17.59-44.67c62.32-115.23,139.76-90.06,162.24-22.58v0c-112.58-22.85-245.4,384.23,35.18,356.86h.05c15.4,7.31,33.09,12.29,52.77,14.71Z"/></g><path class="cls-2" d="M1261.53,1535.15a190.34,190.34,0,0,0-23.88,14.25,137.6,137.6,0,0,0-20.14,17.53,111.82,111.82,0,0,0-15.65,20.63,108,108,0,0,0-6.08,11.46c-1.87,3.92-3.21,8.13-4.89,12.18l-20.09-14a52.64,52.64,0,0,1,6.29-3.79c2-1.07,4-2,6-2.88a91.31,91.31,0,0,1,12.3-4.26,84.6,84.6,0,0,1,25.53-2.93c8.51.54,17,1.71,24.77,4.75,7.9,2.58,15,6.8,21.57,11.4a4.44,4.44,0,0,1-3.4,8l-.51-.1c-3.68-.71-7.16-1.73-10.69-2.38-3.58-.45-7-1.28-10.5-1.41a83.72,83.72,0,0,0-20.36.49,80.9,80.9,0,0,0-19.12,5,91.43,91.43,0,0,0-8.87,4c-1.39.79-2.81,1.53-4.11,2.38s-2.77,1.86-3.34,2.27l-.23.17a12.83,12.83,0,0,1-19.85-14.18c3.25-10.33,7.12-20.68,13.18-29.94A97.82,97.82,0,0,1,1201,1549a95.64,95.64,0,0,1,27.84-16.39,83.58,83.58,0,0,1,31.22-6.14,4.45,4.45,0,0,1,2,8.42Z"/><ellipse class="cls-2" cx="906.44" cy="1644.13" rx="66.72" ry="87.62" transform="translate(-524.27 428.45) rotate(-20.78)"/><ellipse class="cls-5" cx="915.98" cy="1623.25" rx="19.49" ry="25.59" transform="translate(-516.25 430.49) rotate(-20.78)"/><path class="cls-7" d="M679,2150.05c39.21,9.26,79.86-.49,113.58-27.21,29.5-23.36,25.82-69.34-6.45-88.69L708,1987.27c-24.29-14.57-56.38-8.87-72.57,14.37-15.61,22.42-20.21,50.91-16.74,79.57C622.67,2114.51,646.36,2142.35,679,2150.05Z"/><g class="cls-3"><path class="cls-2" d="M802.58,2072.84c-33.72,26.72-74.37,36.47-113.58,27.21-32.64-7.71-56.33-35.54-60.36-68.84a146.28,146.28,0,0,1-1-15.86c-9.24,19.8-11.82,42.75-9,65.86,4,33.3,27.72,61.13,60.36,68.84,39.21,9.26,79.86-.49,113.58-27.21,18.24-14.44,23.76-37.53,17.72-57.62A53,53,0,0,1,802.58,2072.84Z"/></g><g class="cls-4"><path class="cls-5" d="M625.38,2036.64c16.19-23.24,48.28-28.94,72.57-14.37l78.18,46.88a54.45,54.45,0,0,1,26.4,43.32c18-24.72,11.6-61.53-16.4-78.32L708,1987.27c-24.29-14.57-56.38-8.87-72.57,14.37-9.66,13.87-15.08,30.08-17,47.21A91.36,91.36,0,0,1,625.38,2036.64Z"/></g><path class="cls-2" d="M708.46,2169.8a144.77,144.77,0,0,1-33.2-3.89h0c-38.65-9.13-67.9-42.38-72.78-82.74-4-33.05,1.87-63.14,17-87,20.49-32.34,64.18-42.47,97.36-22.57l77.68,46.58a71,71,0,0,1,34.3,56.32,68.69,68.69,0,0,1-26.11,59.11C774.27,2158.12,741.68,2169.8,708.46,2169.8Zm-25.72-35.6c34.41,8.13,69.84-.45,99.73-24.12a36.54,36.54,0,0,0,13.83-31.47,38,38,0,0,0-18.55-30.49l-77.67-46.58c-18.16-10.87-42-5.47-53.1,12.07-14,22-14.33,47.86-12.17,65.65,3.25,26.86,22.51,48.94,47.93,54.94Z"/><path class="cls-2" d="M1866.36,1637.87a355.62,355.62,0,0,0-39.56-6,244.56,244.56,0,0,0-38.6-.45c-6.33.3-12.51,1.3-18.68,2.11-3.06.55-6.08,1.28-9.11,1.89-1.51.35-3,.58-4.54,1l-4.43,1.31c-12,3-23.14,8.33-34.22,13.84l-7.71-32.48c1.26.11,2,.23,2.88.34s1.67.23,2.45.37c1.58.27,3.16.56,4.67.9,3.07.63,6,1.43,9,2.22a149.84,149.84,0,0,1,17.21,6,139.36,139.36,0,0,1,31.25,18.14,124.24,124.24,0,0,1,25.15,25.39c7.37,9.27,12.62,19.94,16.87,30.57a6,6,0,0,1-9.83,6.49l-.5-.51c-3.82-3.82-7.07-7.89-10.84-11.47s-7.38-7.17-11.43-10.27a154,154,0,0,0-51.94-27.86c-4.65-1.44-9.37-2.57-14.06-3.59-2.35-.44-4.7-.92-7-1.21-1.17-.2-2.29-.31-3.41-.43-.57-.07-1.11-.13-1.6-.17l-1.2-.09-.46,0a17.39,17.39,0,0,1-7.24-32.44c13.4-7.63,27.51-14.66,42.7-18.19a74,74,0,0,1,11.34-2.54c3.83-.59,7.65-1.27,11.47-1.74,7.7-.45,15.38-1.12,23-.52a160.81,160.81,0,0,1,44.34,8.26c14.15,5,27.39,11.22,39.53,20.54A6.05,6.05,0,0,1,1867,1638Z"/><path class="cls-2" d="M227.36,2608.79c50.57-11.57,101.13-14.64,151.69-15.87,50.56-1.61,101.13-.76,151.69.12s101.12.73,151.69.75H2351l75.85,0c25.28,0,50.56-1,75.84-1.49s50.56.26,75.84,2.15c25.29,2.22,50.57,5.93,75.85,14.36a7.91,7.91,0,0,1,5,10,8,8,0,0,1-5,5c-25.28,8.43-50.56,12.14-75.85,14.36q-37.92,2.83-75.84,2.15c-25.28-.47-50.56-1.5-75.84-1.49l-75.85,0H682.43c-50.57,0-101.13-.19-151.69.75s-101.13,1.73-151.69.12c-50.56-1.23-101.12-4.3-151.69-15.87a7.69,7.69,0,0,1,0-15Z"/></g></g></svg>